Menaion-Regular.ufo
<glyph name="uni0021" format="2">
  <advance width="333"/>
  <unicode hex="0021"/>
  <outline>
    <contour>
      <point x="176" y="175" type="line"/>
      <point x="157" y="175" type="line"/>
      <point x="114" y="571" type="line" smooth="yes"/>
      <point x="112" y="587.669"/>
      <point x="111" y="600.336"/>
      <point x="111" y="609" type="curve" smooth="yes"/>
      <point x="111" y="629.667"/>
      <point x="116.5" y="646.167"/>
      <point x="127.5" y="658.5" type="curve" smooth="yes"/>
      <point x="138.5" y="670.833"/>
      <point x="151.667" y="677"/>
      <point x="167" y="677" type="curve" smooth="yes"/>
      <point x="182.333" y="677"/>
      <point x="195.333" y="670.833"/>
      <point x="206" y="658.5" type="curve" smooth="yes"/>
      <point x="216.667" y="646.167"/>
      <point x="222" y="628"/>
      <point x="222" y="604" type="curve"/>
      <point x="221.333" y="600"/>
      <point x="221" y="595.333"/>
      <point x="221" y="590" type="curve" smooth="yes"/>
      <point x="221" y="584.658"/>
      <point x="220.667" y="578.324"/>
      <point x="220" y="571" type="curve" smooth="yes"/>
    </contour>
    <contour>
      <point x="166" y="94" type="curve" smooth="yes"/>
      <point x="180.667" y="94"/>
      <point x="193.334" y="88.6667"/>
      <point x="204" y="78" type="curve" smooth="yes"/>
      <point x="214.667" y="67.3333"/>
      <point x="220" y="55"/>
      <point x="220" y="41" type="curve" smooth="yes"/>
      <point x="220" y="25.6667"/>
      <point x="214.667" y="12.6667"/>
      <point x="204" y="2" type="curve" smooth="yes"/>
      <point x="193.333" y="-8.66667"/>
      <point x="180.667" y="-14"/>
      <point x="166" y="-14" type="curve" smooth="yes"/>
      <point x="151.333" y="-14"/>
      <point x="138.667" y="-8.66667"/>
      <point x="128" y="2" type="curve" smooth="yes"/>
      <point x="117.333" y="12.6667"/>
      <point x="112" y="25.6667"/>
      <point x="112" y="41" type="curve" smooth="yes"/>
      <point x="112" y="55"/>
      <point x="117.333" y="67.3333"/>
      <point x="128" y="78" type="curve" smooth="yes"/>
      <point x="138.667" y="88.6667"/>
      <point x="151.333" y="94"/>
    </contour>
  </outline>
</glyph>
<glyph name="uni0022" format="2">
  <advance width="408"/>
  <unicode hex="0022"/>
  <outline>
    <contour>
      <point x="281" y="392" type="line"/>
      <point x="244" y="594" type="line" smooth="yes"/>
      <point x="243.333" y="598"/>
      <point x="243" y="602"/>
      <point x="243" y="606" type="curve" smooth="yes"/>
      <point x="243" y="612"/>
      <point x="243" y="612"/>
      <point x="243" y="618" type="curve" smooth="yes"/>
      <point x="243" y="638.667"/>
      <point x="247.667" y="653.667"/>
      <point x="257" y="663" type="curve" smooth="yes"/>
      <point x="266.333" y="672.333"/>
      <point x="278.333" y="677"/>
      <point x="293" y="677" type="curve" smooth="yes"/>
      <point x="307" y="677"/>
      <point x="318.667" y="672.333"/>
      <point x="328" y="663" type="curve" smooth="yes"/>
      <point x="337.333" y="653.667"/>
      <point x="342" y="641"/>
      <point x="342" y="625" type="curve" smooth="yes"/>
      <point x="342" y="597"/>
      <point x="339" y="567"/>
      <point x="333" y="535" type="curve" smooth="yes"/>
      <point x="305" y="392" type="line"/>
    </contour>
    <contour>
      <point x="103" y="392" type="line"/>
      <point x="76" y="537" type="line" smooth="yes"/>
      <point x="68.6667" y="577.667"/>
      <point x="65" y="604.667"/>
      <point x="65" y="618" type="curve" smooth="yes"/>
      <point x="65" y="638.667"/>
      <point x="69.3333" y="653.667"/>
      <point x="78" y="663" type="curve" smooth="yes"/>
      <point x="86.6667" y="672.333"/>
      <point x="98.3333" y="677"/>
      <point x="113" y="677" type="curve" smooth="yes"/>
      <point x="127" y="677"/>
      <point x="138.833" y="672.167"/>
      <point x="148.5" y="662.5" type="curve" smooth="yes"/>
      <point x="158.167" y="652.833"/>
      <point x="163" y="640.333"/>
      <point x="163" y="625" type="curve" smooth="yes"/>
      <point x="163" y="618.333"/>
      <point x="161.833" y="607.667"/>
      <point x="159.5" y="593" type="curve" smooth="yes"/>
      <point x="157.167" y="578.333"/>
      <point x="154" y="559.333"/>
      <point x="150" y="536" type="curve" smooth="yes"/>
      <point x="124" y="392" type="line"/>
    </contour>
  </outline>
</glyph>
<glyph name="uni0023" format="2">
  <advance width="500"/>
  <unicode hex="0023"/>
  <outline>
    <contour>
      <point x="56" y="-14" type="line"/>
      <point x="102" y="208" type="line"/>
      <point x="18" y="208" type="line"/>
      <point x="18" y="249" type="line"/>
      <point x="109" y="249" type="line"/>
      <point x="143" y="416" type="line"/>
      <point x="18" y="416" type="line"/>
      <point x="18" y="455" type="line"/>
      <point x="152" y="455" type="line"/>
      <point x="197" y="677" type="line"/>
      <point x="237" y="677" type="line"/>
      <point x="193" y="455" type="line"/>
      <point x="357" y="455" type="line"/>
      <point x="405" y="677" type="line"/>
      <point x="445" y="677" type="line"/>
      <point x="399" y="455" type="line"/>
      <point x="482" y="455" type="line"/>
      <point x="482" y="416" type="line"/>
      <point x="392" y="416" type="line"/>
      <point x="357" y="249" type="line"/>
      <point x="482" y="249" type="line"/>
      <point x="482" y="208" type="line"/>
      <point x="349" y="208" type="line"/>
      <point x="304" y="-14" type="line"/>
      <point x="264" y="-14" type="line"/>
      <point x="309" y="208" type="line"/>
      <point x="143" y="208" type="line"/>
      <point x="97" y="-14" type="line"/>
    </contour>
    <contour>
      <point x="150" y="249" type="line"/>
      <point x="316" y="249" type="line"/>
      <point x="351" y="416" type="line"/>
      <point x="185" y="416" type="line"/>
    </contour>
  </outline>
</glyph>
<glyph name="uni0024" format="2">
  <advance width="500"/>
  <unicode hex="0024"/>
  <outline>
    <contour>
      <point x="226" y="-14" type="line"/>
      <point x="154" y="-14"/>
      <point x="111" y="1"/>
      <point x="53" y="25" type="curve"/>
      <point x="53" y="163" type="line"/>
      <point x="74" y="163" type="line"/>
      <point x="74" y="70"/>
      <point x="132" y="18"/>
      <point x="226" y="18" type="curve"/>
      <point x="226" y="303" type="line"/>
      <point x="173" y="336"/>
      <point x="127" y="365"/>
      <point x="92" y="406" type="curve" smooth="yes"/>
      <point x="67" y="435"/>
      <point x="53" y="465"/>
      <point x="53" y="514" type="curve" smooth="yes"/>
      <point x="53" y="587"/>
      <point x="99" y="631"/>
      <point x="152" y="654" type="curve" smooth="yes"/>
      <point x="173" y="663"/>
      <point x="198" y="670"/>
      <point x="226" y="673" type="curve"/>
      <point x="226" y="718" type="line"/>
      <point x="257" y="718" type="line"/>
      <point x="257" y="673" type="line"/>
      <point x="266" y="672"/>
      <point x="273" y="672"/>
      <point x="278" y="672" type="curve" smooth="yes"/>
      <point x="280" y="672"/>
      <point x="283" y="672"/>
      <point x="285" y="672" type="curve" smooth="yes"/>
      <point x="292" y="672"/>
      <point x="299" y="672"/>
      <point x="310" y="669" type="curve" smooth="yes"/>
      <point x="347" y="659"/>
      <point x="368" y="649"/>
      <point x="418" y="630" type="curve"/>
      <point x="418" y="484" type="line"/>
      <point x="399" y="484" type="line"/>
      <point x="399" y="584"/>
      <point x="352" y="630"/>
      <point x="257" y="640" type="curve"/>
      <point x="257" y="392" type="line"/>
      <point x="299" y="363"/>
      <point x="333" y="338"/>
      <point x="358" y="318" type="curve" smooth="yes"/>
      <point x="383" y="299"/>
      <point x="403" y="281"/>
      <point x="416" y="265" type="curve" smooth="yes"/>
      <point x="441" y="236"/>
      <point x="450" y="213"/>
      <point x="450" y="164" type="curve" smooth="yes"/>
      <point x="450" y="82"/>
      <point x="397" y="32"/>
      <point x="338" y="6" type="curve" smooth="yes"/>
      <point x="315" y="-5"/>
      <point x="288" y="-14"/>
      <point x="257" y="-14" type="curve"/>
      <point x="257" y="-76" type="line"/>
      <point x="226" y="-76" type="line"/>
    </contour>
    <contour>
      <point x="226" y="640" type="line"/>
      <point x="169" y="633"/>
      <point x="129" y="603"/>
      <point x="129" y="545" type="curve" smooth="yes"/>
      <point x="129" y="522"/>
      <point x="136" y="500"/>
      <point x="150" y="479" type="curve" smooth="yes"/>
      <point x="165" y="458"/>
      <point x="190" y="436"/>
      <point x="226" y="413" type="curve"/>
    </contour>
    <contour>
      <point x="257" y="18" type="line"/>
      <point x="323" y="29"/>
      <point x="372" y="69"/>
      <point x="372" y="140" type="curve" smooth="yes"/>
      <point x="372" y="188"/>
      <point x="348" y="210"/>
      <point x="318" y="236" type="curve" smooth="yes"/>
      <point x="304" y="248"/>
      <point x="283" y="264"/>
      <point x="257" y="282" type="curve"/>
    </contour>
  </outline>
</glyph>
<glyph name="uni0025" format="2">
  <advance width="833"/>
  <unicode hex="0025"/>
  <outline>
    <contour>
      <point x="680" y="677" type="line"/>
      <point x="197" y="-27" type="line"/>
      <point x="154" y="-27" type="line"/>
      <point x="636" y="677" type="line"/>
    </contour>
    <contour>
      <point x="178" y="677" type="line" smooth="yes"/>
      <point x="200" y="677"/>
      <point x="219.5" y="672"/>
      <point x="236.5" y="662" type="curve" smooth="yes"/>
      <point x="253.5" y="652"/>
      <point x="268" y="638.5"/>
      <point x="280" y="621.5" type="curve" smooth="yes"/>
      <point x="292" y="604.5"/>
      <point x="301" y="585.167"/>
      <point x="307" y="563.5" type="curve" smooth="yes"/>
      <point x="313" y="541.833"/>
      <point x="316" y="519.667"/>
      <point x="316" y="497" type="curve" smooth="yes"/>
      <point x="316" y="467.667"/>
      <point x="312.167" y="441.833"/>
      <point x="304.5" y="419.5" type="curve" smooth="yes"/>
      <point x="296.833" y="397.167"/>
      <point x="286.333" y="378.5"/>
      <point x="273" y="363.5" type="curve" smooth="yes"/>
      <point x="259.667" y="348.5"/>
      <point x="244.333" y="337.333"/>
      <point x="227" y="330" type="curve" smooth="yes"/>
      <point x="209.667" y="322.667"/>
      <point x="191" y="319"/>
      <point x="171" y="319" type="curve" smooth="yes"/>
      <point x="151" y="319"/>
      <point x="132.667" y="323.667"/>
      <point x="116" y="333" type="curve" smooth="yes"/>
      <point x="99.3333" y="342.333"/>
      <point x="85" y="355.333"/>
      <point x="73" y="372" type="curve" smooth="yes"/>
      <point x="61" y="388.667"/>
      <point x="51.6667" y="408.167"/>
      <point x="45" y="430.5" type="curve" smooth="yes"/>
      <point x="38.3333" y="452.833"/>
      <point x="35" y="477"/>
      <point x="35" y="503" type="curve" smooth="yes"/>
      <point x="35" y="527.667"/>
      <point x="38.8333" y="550.667"/>
      <point x="46.5" y="572" type="curve" smooth="yes"/>
      <point x="54.1667" y="593.333"/>
      <point x="64.5" y="611.667"/>
      <point x="77.5" y="627" type="curve" smooth="yes"/>
      <point x="90.5" y="642.333"/>
      <point x="105" y="654.5"/>
      <point x="121" y="663.5" type="curve" smooth="yes"/>
      <point x="137" y="672.5"/>
      <point x="153.667" y="677"/>
      <point x="171" y="677" type="curve" smooth="yes"/>
    </contour>
    <contour>
      <point x="176" y="650" type="curve" smooth="yes"/>
      <point x="168" y="650"/>
      <point x="160.333" y="648.167"/>
      <point x="153" y="644.5" type="curve" smooth="yes"/>
      <point x="145.667" y="640.833"/>
      <point x="139" y="633.5"/>
      <point x="133" y="622.5" type="curve" smooth="yes"/>
      <point x="127" y="611.5"/>
      <point x="122.167" y="596"/>
      <point x="118.5" y="576" type="curve" smooth="yes"/>
      <point x="114.833" y="556"/>
      <point x="113" y="530"/>
      <point x="113" y="498" type="curve" smooth="yes"/>
      <point x="113" y="448"/>
      <point x="117.667" y="409.833"/>
      <point x="127" y="383.5" type="curve" smooth="yes"/>
      <point x="136.333" y="357.167"/>
      <point x="152.333" y="344"/>
      <point x="175" y="344" type="curve" smooth="yes"/>
      <point x="195" y="344"/>
      <point x="210.667" y="356.833"/>
      <point x="222" y="382.5" type="curve" smooth="yes"/>
      <point x="233.333" y="408.167"/>
      <point x="239" y="445.667"/>
      <point x="239" y="495" type="curve" smooth="yes"/>
      <point x="239" y="545.667"/>
      <point x="233.5" y="584.167"/>
      <point x="222.5" y="610.5" type="curve" smooth="yes"/>
      <point x="211.5" y="636.833"/>
      <point x="196" y="650"/>
    </contour>
    <contour>
      <point x="657" y="329" type="line" smooth="yes"/>
      <point x="674.333" y="329"/>
      <point x="691.5" y="324.833"/>
      <point x="708.5" y="316.5" type="curve" smooth="yes"/>
      <point x="725.5" y="308.167"/>
      <point x="740.667" y="296.667"/>
      <point x="754" y="282" type="curve" smooth="yes"/>
      <point x="767.333" y="267.333"/>
      <point x="778" y="249.5"/>
      <point x="786" y="228.5" type="curve" smooth="yes"/>
      <point x="794" y="207.5"/>
      <point x="798" y="184.667"/>
      <point x="798" y="160" type="curve" smooth="yes"/>
      <point x="798" y="100"/>
      <point x="784.833" y="53.8333"/>
      <point x="758.5" y="21.5" type="curve" smooth="yes"/>
      <point x="732.167" y="-10.8333"/>
      <point x="699" y="-27"/>
      <point x="659" y="-27" type="curve" smooth="yes"/>
      <point x="639" y="-27"/>
      <point x="620.5" y="-22.5"/>
      <point x="603.5" y="-13.5" type="curve" smooth="yes"/>
      <point x="586.5" y="-4.5"/>
      <point x="571.667" y="8.16667"/>
      <point x="559" y="24.5" type="curve" smooth="yes"/>
      <point x="546.333" y="40.8333"/>
      <point x="536.333" y="60.3333"/>
      <point x="529" y="83" type="curve" smooth="yes"/>
      <point x="521.667" y="105.667"/>
      <point x="518" y="130.667"/>
      <point x="518" y="158" type="curve" smooth="yes"/>
      <point x="518" y="182.667"/>
      <point x="521.833" y="205.5"/>
      <point x="529.5" y="226.5" type="curve" smooth="yes"/>
      <point x="537.171" y="247.5"/>
      <point x="547.337" y="265.5"/>
      <point x="560" y="280.5" type="curve" smooth="yes"/>
      <point x="572.667" y="295.5"/>
      <point x="587" y="307.333"/>
      <point x="603" y="316" type="curve" smooth="yes"/>
      <point x="619" y="324.667"/>
      <point x="635.333" y="329"/>
      <point x="652" y="329" type="curve" smooth="yes"/>
    </contour>
    <contour>
      <point x="658" y="303" type="curve" smooth="yes"/>
      <point x="638.664" y="303"/>
      <point x="623.331" y="291.167"/>
      <point x="612" y="267.5" type="curve" smooth="yes"/>
      <point x="600.667" y="243.833"/>
      <point x="595" y="203.667"/>
      <point x="595" y="147" type="curve" smooth="yes"/>
      <point x="595" y="96.3333"/>
      <point x="600.667" y="59.1667"/>
      <point x="612" y="35.5" type="curve" smooth="yes"/>
      <point x="623.333" y="11.8333"/>
      <point x="638.667" y="0"/>
      <point x="658" y="0" type="curve" smooth="yes"/>
      <point x="675.333" y="0"/>
      <point x="690.167" y="11.6667"/>
      <point x="702.5" y="35" type="curve" smooth="yes"/>
      <point x="714.833" y="58.3334"/>
      <point x="721" y="96.3334"/>
      <point x="721" y="149" type="curve" smooth="yes"/>
      <point x="721" y="200.333"/>
      <point x="715.5" y="238.833"/>
      <point x="704.5" y="264.5" type="curve" smooth="yes"/>
      <point x="693.5" y="290.167"/>
      <point x="678" y="303"/>
    </contour>
  </outline>
</glyph>
<glyph name="uni0026" format="2">
  <advance width="778"/>
  <unicode hex="0026"/>
  <outline>
    <contour>
      <point x="510" y="426" type="line"/>
      <point x="715" y="426" type="line"/>
      <point x="715" y="408" type="line"/>
      <point x="701" y="406.667"/>
      <point x="689.333" y="405.333"/>
      <point x="680" y="404" type="curve" smooth="yes"/>
      <point x="670.662" y="402.667"/>
      <point x="661.828" y="398.5"/>
      <point x="653.5" y="391.5" type="curve" smooth="yes"/>
      <point x="645.167" y="384.5"/>
      <point x="636.167" y="373.667"/>
      <point x="626.5" y="359" type="curve" smooth="yes"/>
      <point x="616.833" y="344.333"/>
      <point x="604.333" y="323.333"/>
      <point x="589" y="296" type="curve" smooth="yes"/>
      <point x="574.333" y="270.667"/>
      <point x="559" y="245.833"/>
      <point x="543" y="221.5" type="curve" smooth="yes"/>
      <point x="527" y="197.167"/>
      <point x="510.333" y="173.667"/>
      <point x="493" y="151" type="curve"/>
      <point x="521.669" y="117.667"/>
      <point x="547.335" y="94.1666"/>
      <point x="570" y="80.5" type="curve" smooth="yes"/>
      <point x="592.667" y="66.8333"/>
      <point x="615.667" y="59.9999"/>
      <point x="639" y="60" type="curve" smooth="yes"/>
      <point x="661.667" y="60.0001"/>
      <point x="680.834" y="66.1667"/>
      <point x="696.5" y="78.5" type="curve" smooth="yes"/>
      <point x="712.167" y="90.8334"/>
      <point x="723" y="108.667"/>
      <point x="729" y="132" type="curve"/>
      <point x="748" y="119" type="line"/>
      <point x="735.333" y="73"/>
      <point x="715.833" y="39.1667"/>
      <point x="689.5" y="17.5" type="curve" smooth="yes"/>
      <point x="663.167" y="-4.16667"/>
      <point x="632" y="-15"/>
      <point x="596" y="-15" type="curve" smooth="yes"/>
      <point x="569.333" y="-15"/>
      <point x="542.333" y="-7.83333"/>
      <point x="515" y="6.5" type="curve" smooth="yes"/>
      <point x="487.667" y="20.8333"/>
      <point x="457.667" y="45.3333"/>
      <point x="425" y="80" type="curve"/>
      <point x="405" y="62"/>
      <point x="386" y="47"/>
      <point x="368" y="35" type="curve" smooth="yes"/>
      <point x="350" y="23"/>
      <point x="332.5" y="13.1667"/>
      <point x="315.5" y="5.5" type="curve" smooth="yes"/>
      <point x="298.5" y="-2.16667"/>
      <point x="281.5" y="-7.5"/>
      <point x="264.5" y="-10.5" type="curve" smooth="yes"/>
      <point x="247.5" y="-13.5"/>
      <point x="230" y="-15"/>
      <point x="212" y="-15" type="curve" smooth="yes"/>
      <point x="184.667" y="-15"/>
      <point x="160.167" y="-11"/>
      <point x="138.5" y="-3" type="curve" smooth="yes"/>
      <point x="116.833" y="5"/>
      <point x="98.5" y="15.6667"/>
      <point x="83.5" y="29" type="curve" smooth="yes"/>
      <point x="68.5" y="42.3333"/>
      <point x="57" y="57.6667"/>
      <point x="49" y="75" type="curve" smooth="yes"/>
      <point x="41" y="92.3334"/>
      <point x="37" y="110.667"/>
      <point x="37" y="130" type="curve" smooth="yes"/>
      <point x="37" y="150"/>
      <point x="40.1667" y="169.667"/>
      <point x="46.5" y="189" type="curve" smooth="yes"/>
      <point x="52.8333" y="208.333"/>
      <point x="63.6667" y="227.833"/>
      <point x="79" y="247.5" type="curve" smooth="yes"/>
      <point x="94.3333" y="267.167"/>
      <point x="115" y="287.167"/>
      <point x="141" y="307.5" type="curve" smooth="yes"/>
      <point x="167" y="327.834"/>
      <point x="199.667" y="348.667"/>
      <point x="239" y="370" type="curve"/>
      <point x="223.667" y="404"/>
      <point x="213.167" y="431.833"/>
      <point x="207.5" y="453.5" type="curve" smooth="yes"/>
      <point x="201.833" y="475.167"/>
      <point x="199" y="496"/>
      <point x="199" y="516" type="curve" smooth="yes"/>
      <point x="199" y="540"/>
      <point x="203.5" y="562"/>
      <point x="212.5" y="582" type="curve" smooth="yes"/>
      <point x="221.5" y="602"/>
      <point x="233.667" y="619"/>
      <point x="249" y="633" type="curve" smooth="yes"/>
      <point x="264.333" y="647"/>
      <point x="282.333" y="657.833"/>
      <point x="303" y="665.5" type="curve" smooth="yes"/>
      <point x="323.667" y="673.167"/>
      <point x="346" y="677"/>
      <point x="370" y="677" type="curve" smooth="yes"/>
      <point x="389.333" y="677"/>
      <point x="407" y="674"/>
      <point x="423" y="668" type="curve" smooth="yes"/>
      <point x="439" y="662"/>
      <point x="452.833" y="653.667"/>
      <point x="464.5" y="643" type="curve" smooth="yes"/>
      <point x="476.167" y="632.333"/>
      <point x="485.167" y="619.667"/>
      <point x="491.5" y="605" type="curve" smooth="yes"/>
      <point x="497.833" y="590.333"/>
      <point x="501" y="574.667"/>
      <point x="501" y="558" type="curve" smooth="yes"/>
      <point x="501" y="540.667"/>
      <point x="498.333" y="524.667"/>
      <point x="493" y="510" type="curve" smooth="yes"/>
      <point x="487.667" y="495.332"/>
      <point x="478.667" y="481.166"/>
      <point x="466" y="467.5" type="curve" smooth="yes"/>
      <point x="453.333" y="453.833"/>
      <point x="436.833" y="440.167"/>
      <point x="416.5" y="426.5" type="curve" smooth="yes"/>
      <point x="396.167" y="412.833"/>
      <point x="370.667" y="398"/>
      <point x="340" y="382" type="curve"/>
      <point x="360.667" y="344.667"/>
      <point x="381.833" y="309.333"/>
      <point x="403.5" y="276" type="curve" smooth="yes"/>
      <point x="425.167" y="242.667"/>
      <point x="447.333" y="210.667"/>
      <point x="470" y="180" type="curve"/>
      <point x="527.333" y="248.667"/>
      <point x="556" y="306.333"/>
      <point x="556" y="353" type="curve" smooth="yes"/>
      <point x="556" y="365"/>
      <point x="552.167" y="376.833"/>
      <point x="544.5" y="388.5" type="curve" smooth="yes"/>
      <point x="536.833" y="400.167"/>
      <point x="525.333" y="406.667"/>
      <point x="510" y="408" type="curve"/>
    </contour>
    <contour>
      <point x="324" y="414" type="curve"/>
      <point x="404" y="450.667"/>
      <point x="444" y="499.667"/>
      <point x="444" y="561" type="curve" smooth="yes"/>
      <point x="444" y="584.333"/>
      <point x="436.833" y="603.667"/>
      <point x="422.5" y="619" type="curve" smooth="yes"/>
      <point x="408.167" y="634.333"/>
      <point x="390.333" y="642"/>
      <point x="369" y="642" type="curve" smooth="yes"/>
      <point x="355" y="642"/>
      <point x="342.5" y="639.167"/>
      <point x="331.5" y="633.5" type="curve" smooth="yes"/>
      <point x="320.5" y="627.833"/>
      <point x="311.5" y="620.833"/>
      <point x="304.5" y="612.5" type="curve" smooth="yes"/>
      <point x="297.5" y="604.164"/>
      <point x="292.167" y="594.831"/>
      <point x="288.5" y="584.5" type="curve" smooth="yes"/>
      <point x="284.833" y="574.167"/>
      <point x="283" y="564"/>
      <point x="283" y="554" type="curve" smooth="yes"/>
      <point x="283" y="546"/>
      <point x="283.667" y="537.833"/>
      <point x="285" y="529.5" type="curve" smooth="yes"/>
      <point x="286.333" y="521.167"/>
      <point x="288.5" y="511.5"/>
      <point x="291.5" y="500.5" type="curve" smooth="yes"/>
      <point x="294.5" y="489.5"/>
      <point x="298.667" y="477"/>
      <point x="304" y="463" type="curve" smooth="yes"/>
      <point x="309.333" y="449"/>
      <point x="316" y="432.667"/>
    </contour>
    <contour>
      <point x="399" y="108" type="curve"/>
      <point x="376.333" y="138.667"/>
      <point x="358.166" y="163.833"/>
      <point x="344.5" y="183.5" type="curve" smooth="yes"/>
      <point x="330.832" y="203.167"/>
      <point x="319.165" y="220.667"/>
      <point x="309.5" y="236" type="curve" smooth="yes"/>
      <point x="299.833" y="251.333"/>
      <point x="291" y="266.5"/>
      <point x="283" y="281.5" type="curve" smooth="yes"/>
      <point x="275" y="296.5"/>
      <point x="265.667" y="315"/>
      <point x="255" y="337" type="curve"/>
      <point x="177" y="292.333"/>
      <point x="138" y="238.333"/>
      <point x="138" y="175" type="curve" smooth="yes"/>
      <point x="138" y="157.667"/>
      <point x="140.833" y="141.167"/>
      <point x="146.5" y="125.5" type="curve" smooth="yes"/>
      <point x="152.167" y="109.833"/>
      <point x="160.334" y="96"/>
      <point x="171" y="84" type="curve" smooth="yes"/>
      <point x="181.667" y="72"/>
      <point x="194.667" y="62.3333"/>
      <point x="210" y="55" type="curve" smooth="yes"/>
      <point x="225.333" y="47.6667"/>
      <point x="242.667" y="44"/>
      <point x="262" y="44" type="curve" smooth="yes"/>
      <point x="272.667" y="44"/>
      <point x="282.667" y="44.8333"/>
      <point x="292" y="46.5" type="curve" smooth="yes"/>
      <point x="301.335" y="48.1667"/>
      <point x="311.168" y="51.1667"/>
      <point x="321.5" y="55.5" type="curve" smooth="yes"/>
      <point x="331.834" y="59.8333"/>
      <point x="343.167" y="66.1667"/>
      <point x="355.5" y="74.5" type="curve" smooth="yes"/>
      <point x="367.833" y="82.8333"/>
      <point x="382.333" y="94"/>
    </contour>
  </outline>
</glyph>
<glyph name="uni0027" format="2">
  <advance width="180"/>
  <unicode hex="0027"/>
  <outline>
    <contour>
      <point x="77" y="392" type="line"/>
      <point x="51" y="537" type="line" smooth="yes"/>
      <point x="47.6667" y="557"/>
      <point x="45" y="573.667"/>
      <point x="43" y="587" type="curve" smooth="yes"/>
      <point x="41" y="600.333"/>
      <point x="40" y="610.667"/>
      <point x="40" y="618" type="curve" smooth="yes"/>
      <point x="40" y="638.667"/>
      <point x="44.1667" y="653.667"/>
      <point x="52.5" y="663" type="curve" smooth="yes"/>
      <point x="60.8333" y="672.333"/>
      <point x="72.3333" y="677"/>
      <point x="87" y="677" type="curve" smooth="yes"/>
      <point x="101.667" y="677"/>
      <point x="113.833" y="672.167"/>
      <point x="123.5" y="662.5" type="curve" smooth="yes"/>
      <point x="133.167" y="652.833"/>
      <point x="138" y="640.333"/>
      <point x="138" y="625" type="curve" smooth="yes"/>
      <point x="138" y="619"/>
      <point x="136.833" y="608.5"/>
      <point x="134.5" y="593.5" type="curve" smooth="yes"/>
      <point x="132.167" y="578.5"/>
      <point x="129" y="559.333"/>
      <point x="125" y="536" type="curve" smooth="yes"/>
      <point x="99" y="392" type="line"/>
    </contour>
  </outline>
</glyph>
<glyph name="uni0028" format="2">
  <advance width="333"/>
  <unicode hex="0028"/>
  <outline>
    <contour>
      <point x="311" y="-196" type="curve"/>
      <point x="311" y="-214" type="line"/>
      <point x="267" y="-192"/>
      <point x="228.333" y="-165"/>
      <point x="195" y="-133" type="curve" smooth="yes"/>
      <point x="161.667" y="-101"/>
      <point x="133.5" y="-65.3333"/>
      <point x="110.5" y="-26" type="curve" smooth="yes"/>
      <point x="87.5" y="13.3333"/>
      <point x="70.1667" y="55.5"/>
      <point x="58.5" y="100.5" type="curve" smooth="yes"/>
      <point x="46.8333" y="145.5"/>
      <point x="41" y="192"/>
      <point x="41" y="240" type="curve" smooth="yes"/>
      <point x="41" y="290"/>
      <point x="47.5" y="338.5"/>
      <point x="60.5" y="385.5" type="curve" smooth="yes"/>
      <point x="73.5" y="432.5"/>
      <point x="92" y="476"/>
      <point x="116" y="516" type="curve" smooth="yes"/>
      <point x="140" y="556"/>
      <point x="168.5" y="591.333"/>
      <point x="201.5" y="622" type="curve" smooth="yes"/>
      <point x="234.5" y="652.667"/>
      <point x="271" y="676.667"/>
      <point x="311" y="694" type="curve"/>
      <point x="311" y="674" type="line"/>
      <point x="279.667" y="657.333"/>
      <point x="253" y="635.333"/>
      <point x="231" y="608" type="curve" smooth="yes"/>
      <point x="209" y="580.667"/>
      <point x="190.833" y="549"/>
      <point x="176.5" y="513" type="curve" smooth="yes"/>
      <point x="162.167" y="477"/>
      <point x="151.667" y="437"/>
      <point x="145" y="393" type="curve" smooth="yes"/>
      <point x="138.333" y="349"/>
      <point x="135" y="302"/>
      <point x="135" y="252" type="curve" smooth="yes"/>
      <point x="135" y="222"/>
      <point x="136.167" y="192.5"/>
      <point x="138.5" y="163.5" type="curve" smooth="yes"/>
      <point x="140.833" y="134.5"/>
      <point x="144.167" y="107"/>
      <point x="148.5" y="81" type="curve" smooth="yes"/>
      <point x="152.833" y="55"/>
      <point x="157.833" y="31.3333"/>
      <point x="163.5" y="10" type="curve" smooth="yes"/>
      <point x="169.167" y="-11.3333"/>
      <point x="175.334" y="-29.6667"/>
      <point x="182" y="-45" type="curve" smooth="yes"/>
      <point x="194" y="-73"/>
      <point x="210" y="-99.5"/>
      <point x="230" y="-124.5" type="curve" smooth="yes"/>
      <point x="250" y="-149.5"/>
      <point x="277" y="-173.333"/>
    </contour>
  </outline>
</glyph>
<glyph name="uni0029" format="2">
  <advance width="333"/>
  <unicode hex="0029"/>
  <outline>
    <contour>
      <point x="22" y="674" type="curve"/>
      <point x="22" y="694" type="line"/>
      <point x="65.3333" y="672.667"/>
      <point x="103.833" y="646.167"/>
      <point x="137.5" y="614.5" type="curve" smooth="yes"/>
      <point x="171.167" y="582.833"/>
      <point x="199.5" y="547.167"/>
      <point x="222.5" y="507.5" type="curve" smooth="yes"/>
      <point x="245.5" y="467.833"/>
      <point x="262.833" y="425.5"/>
      <point x="274.5" y="380.5" type="curve" smooth="yes"/>
      <point x="286.167" y="335.5"/>
      <point x="292" y="289"/>
      <point x="292" y="241" type="curve" smooth="yes"/>
      <point x="292" y="191.667"/>
      <point x="285.5" y="143.5"/>
      <point x="272.5" y="96.5" type="curve" smooth="yes"/>
      <point x="259.5" y="49.5"/>
      <point x="241.167" y="6"/>
      <point x="217.5" y="-34" type="curve" smooth="yes"/>
      <point x="193.833" y="-74"/>
      <point x="165.333" y="-109.5"/>
      <point x="132" y="-140.5" type="curve" smooth="yes"/>
      <point x="98.6666" y="-171.5"/>
      <point x="62" y="-196"/>
      <point x="22" y="-214" type="curve"/>
      <point x="22" y="-196" type="line"/>
      <point x="83.3333" y="-161.333"/>
      <point x="128" y="-107.333"/>
      <point x="156" y="-34" type="curve" smooth="yes"/>
      <point x="184" y="39.3333"/>
      <point x="198" y="126"/>
      <point x="198" y="226" type="curve" smooth="yes"/>
      <point x="198" y="286.667"/>
      <point x="193.5" y="343.5"/>
      <point x="184.5" y="396.5" type="curve" smooth="yes"/>
      <point x="175.5" y="449.5"/>
      <point x="164.333" y="491.667"/>
      <point x="151" y="523" type="curve" smooth="yes"/>
      <point x="139" y="551"/>
      <point x="123" y="577.5"/>
      <point x="103" y="602.5" type="curve" smooth="yes"/>
      <point x="83" y="627.5"/>
      <point x="56" y="651.333"/>
    </contour>
  </outline>
</glyph>
<glyph name="uni002A" format="2">
  <advance width="500"/>
  <unicode hex="002A"/>
  <outline>
    <contour>
      <point x="241" y="510" type="curve"/>
      <point x="240.333" y="522.668"/>
      <point x="238.5" y="535.834"/>
      <point x="235.5" y="549.5" type="curve" smooth="yes"/>
      <point x="232.5" y="563.169"/>
      <point x="229.167" y="576.336"/>
      <point x="225.5" y="589" type="curve" smooth="yes"/>
      <point x="221.833" y="601.667"/>
      <point x="218.5" y="612.834"/>
      <point x="215.5" y="622.5" type="curve" smooth="yes"/>
      <point x="212.5" y="632.167"/>
      <point x="211" y="639"/>
      <point x="211" y="643" type="curve" smooth="yes"/>
      <point x="211" y="659.669"/>
      <point x="215" y="672.336"/>
      <point x="223" y="681" type="curve" smooth="yes"/>
      <point x="231" y="689.667"/>
      <point x="240.667" y="694"/>
      <point x="252" y="694" type="curve" smooth="yes"/>
      <point x="262.667" y="694"/>
      <point x="271.667" y="689.667"/>
      <point x="279" y="681" type="curve" smooth="yes"/>
      <point x="286.333" y="672.333"/>
      <point x="290" y="660"/>
      <point x="290" y="644" type="curve" smooth="yes"/>
      <point x="290" y="637.333"/>
      <point x="288.667" y="628.5"/>
      <point x="286" y="617.5" type="curve" smooth="yes"/>
      <point x="283.333" y="606.5"/>
      <point x="280.333" y="594.833"/>
      <point x="277" y="582.5" type="curve" smooth="yes"/>
      <point x="273.667" y="570.167"/>
      <point x="270.333" y="557.5"/>
      <point x="267" y="544.5" type="curve" smooth="yes"/>
      <point x="263.667" y="531.5"/>
      <point x="261.667" y="520"/>
      <point x="261" y="510" type="curve"/>
      <point x="280.333" y="522"/>
      <point x="295.833" y="533.833"/>
      <point x="307.5" y="545.5" type="curve" smooth="yes"/>
      <point x="319.167" y="557.167"/>
      <point x="329.167" y="567.667"/>
      <point x="337.5" y="577" type="curve" smooth="yes"/>
      <point x="345.833" y="586.333"/>
      <point x="354" y="593.833"/>
      <point x="362" y="599.5" type="curve" smooth="yes"/>
      <point x="370" y="605.167"/>
      <point x="380" y="608"/>
      <point x="392" y="608" type="curve" smooth="yes"/>
      <point x="402.667" y="608"/>
      <point x="411.667" y="604.333"/>
      <point x="419" y="597" type="curve" smooth="yes"/>
      <point x="426.333" y="589.667"/>
      <point x="430" y="581"/>
      <point x="430" y="571" type="curve" smooth="yes"/>
      <point x="430" y="565"/>
      <point x="429" y="559.5"/>
      <point x="427" y="554.5" type="curve" smooth="yes"/>
      <point x="425" y="549.5"/>
      <point x="420.833" y="544.5"/>
      <point x="414.5" y="539.5" type="curve" smooth="yes"/>
      <point x="408.167" y="534.5"/>
      <point x="398.5" y="529.667"/>
      <point x="385.5" y="525" type="curve" smooth="yes"/>
      <point x="372.5" y="520.333"/>
      <point x="355" y="515.667"/>
      <point x="333" y="511" type="curve" smooth="yes"/>
      <point x="320.333" y="508.333"/>
      <point x="308.833" y="505.333"/>
      <point x="298.5" y="502" type="curve" smooth="yes"/>
      <point x="288.167" y="498.667"/>
      <point x="279" y="495.333"/>
      <point x="271" y="492" type="curve"/>
      <point x="279.667" y="487.333"/>
      <point x="289" y="483.5"/>
      <point x="299" y="480.5" type="curve" smooth="yes"/>
      <point x="309" y="477.5"/>
      <point x="320.333" y="474.667"/>
      <point x="333" y="472" type="curve" smooth="yes"/>
      <point x="353" y="468"/>
      <point x="369.167" y="463.833"/>
      <point x="381.5" y="459.5" type="curve" smooth="yes"/>
      <point x="393.833" y="455.167"/>
      <point x="403.5" y="450.333"/>
      <point x="410.5" y="445" type="curve" smooth="yes"/>
      <point x="417.5" y="439.667"/>
      <point x="422.167" y="434"/>
      <point x="424.5" y="428" type="curve" smooth="yes"/>
      <point x="426.833" y="422"/>
      <point x="428" y="416"/>
      <point x="428" y="410" type="curve" smooth="yes"/>
      <point x="428" y="400"/>
      <point x="424.333" y="391.5"/>
      <point x="417" y="384.5" type="curve" smooth="yes"/>
      <point x="409.667" y="377.5"/>
      <point x="401.333" y="374"/>
      <point x="392" y="374" type="curve" smooth="yes"/>
      <point x="382" y="374"/>
      <point x="371" y="377.333"/>
      <point x="359" y="384" type="curve" smooth="yes"/>
      <point x="347" y="390.667"/>
      <point x="331" y="406"/>
      <point x="311" y="430" type="curve" smooth="yes"/>
      <point x="298.333" y="445.333"/>
      <point x="281.666" y="460.333"/>
      <point x="261" y="475" type="curve"/>
      <point x="261.667" y="461.667"/>
      <point x="263.5" y="447.833"/>
      <point x="266.5" y="433.5" type="curve" smooth="yes"/>
      <point x="269.5" y="419.167"/>
      <point x="272.833" y="405.333"/>
      <point x="276.5" y="392" type="curve" smooth="yes"/>
      <point x="280.167" y="378.667"/>
      <point x="283.333" y="366.833"/>
      <point x="286" y="356.5" type="curve" smooth="yes"/>
      <point x="288.667" y="346.167"/>
      <point x="290" y="339"/>
      <point x="290" y="335" type="curve" smooth="yes"/>
      <point x="290" y="322.333"/>
      <point x="286.167" y="311.5"/>
      <point x="278.5" y="302.5" type="curve" smooth="yes"/>
      <point x="270.833" y="293.5"/>
      <point x="262.333" y="289"/>
      <point x="253" y="289" type="curve" smooth="yes"/>
      <point x="243" y="289"/>
      <point x="233.333" y="292.5"/>
      <point x="224" y="299.5" type="curve" smooth="yes"/>
      <point x="214.667" y="306.5"/>
      <point x="210" y="318.667"/>
      <point x="210" y="336" type="curve" smooth="yes"/>
      <point x="210" y="342.667"/>
      <point x="211.167" y="351.167"/>
      <point x="213.5" y="361.5" type="curve" smooth="yes"/>
      <point x="215.833" y="371.833"/>
      <point x="218.5" y="382"/>
      <point x="221.5" y="392" type="curve" smooth="yes"/>
      <point x="224.5" y="402"/>
      <point x="227.5" y="411.167"/>
      <point x="230.5" y="419.5" type="curve" smooth="yes"/>
      <point x="233.5" y="427.837"/>
      <point x="235.333" y="433.67"/>
      <point x="236" y="437" type="curve" smooth="yes"/>
      <point x="237.333" y="441.667"/>
      <point x="238.333" y="447"/>
      <point x="239" y="453" type="curve" smooth="yes"/>
      <point x="239.667" y="459"/>
      <point x="240.333" y="466.333"/>
      <point x="241" y="475" type="curve"/>
      <point x="221.666" y="461.667"/>
      <point x="205.833" y="449"/>
      <point x="193.5" y="437" type="curve" smooth="yes"/>
      <point x="181.167" y="425"/>
      <point x="170.5" y="414.333"/>
      <point x="161.5" y="405" type="curve" smooth="yes"/>
      <point x="152.5" y="395.667"/>
      <point x="144.167" y="388.167"/>
      <point x="136.5" y="382.5" type="curve" smooth="yes"/>
      <point x="128.833" y="376.833"/>
      <point x="120.333" y="374"/>
      <point x="111" y="374" type="curve" smooth="yes"/>
      <point x="99.6667" y="374"/>
      <point x="90.1667" y="377.667"/>
      <point x="82.5" y="385" type="curve" smooth="yes"/>
      <point x="74.8333" y="392.335"/>
      <point x="71" y="400.668"/>
      <point x="71" y="410" type="curve" smooth="yes"/>
      <point x="71" y="417.333"/>
      <point x="72.3333" y="423.833"/>
      <point x="75" y="429.5" type="curve" smooth="yes"/>
      <point x="77.6667" y="435.167"/>
      <point x="82.8333" y="440.5"/>
      <point x="90.5" y="445.5" type="curve" smooth="yes"/>
      <point x="98.1667" y="450.5"/>
      <point x="108.5" y="455.167"/>
      <point x="121.5" y="459.5" type="curve" smooth="yes"/>
      <point x="134.5" y="463.833"/>
      <point x="151" y="468.333"/>
      <point x="171" y="473" type="curve" smooth="yes"/>
      <point x="181" y="475"/>
      <point x="191" y="477.5"/>
      <point x="201" y="480.5" type="curve" smooth="yes"/>
      <point x="211" y="483.5"/>
      <point x="220.667" y="487.333"/>
      <point x="230" y="492" type="curve"/>
      <point x="206.666" y="504"/>
      <point x="185.333" y="512.167"/>
      <point x="166" y="516.5" type="curve" smooth="yes"/>
      <point x="146.667" y="520.833"/>
      <point x="130" y="524.833"/>
      <point x="116" y="528.5" type="curve" smooth="yes"/>
      <point x="102" y="532.175"/>
      <point x="91" y="536.841"/>
      <point x="83" y="542.5" type="curve" smooth="yes"/>
      <point x="75" y="548.167"/>
      <point x="71" y="558.667"/>
      <point x="71" y="574" type="curve" smooth="yes"/>
      <point x="71" y="582.667"/>
      <point x="74.6667" y="590.667"/>
      <point x="82" y="598" type="curve" smooth="yes"/>
      <point x="89.3334" y="605.333"/>
      <point x="97.6668" y="609"/>
      <point x="107" y="609" type="curve" smooth="yes"/>
      <point x="118.333" y="609"/>
      <point x="130" y="605.833"/>
      <point x="142" y="599.5" type="curve" smooth="yes"/>
      <point x="154" y="593.164"/>
      <point x="168.667" y="579.331"/>
      <point x="186" y="558" type="curve" smooth="yes"/>
      <point x="202.667" y="538"/>
      <point x="221" y="522"/>
    </contour>
  </outline>
</glyph>
<glyph name="uni002B" format="2">
  <advance width="564"/>
  <unicode hex="002B"/>
  <outline>
    <contour>
      <point x="261" y="69" type="line"/>
      <point x="261" y="312" type="line"/>
      <point x="18" y="312" type="line"/>
      <point x="18" y="353" type="line"/>
      <point x="261" y="353" type="line"/>
      <point x="261" y="595" type="line"/>
      <point x="300" y="595" type="line"/>
      <point x="300" y="353" type="line"/>
      <point x="544" y="353" type="line"/>
      <point x="544" y="312" type="line"/>
      <point x="300" y="312" type="line"/>
      <point x="300" y="69" type="line"/>
    </contour>
  </outline>
</glyph>
<glyph name="uni002C" format="2">
  <advance width="250"/>
  <unicode hex="002C"/>
  <outline>
    <contour>
      <point x="54" y="-167" type="curve"/>
      <point x="54" y="-145" type="line"/>
      <point x="88" y="-133.667"/>
      <point x="114" y="-116.5"/>
      <point x="132" y="-93.5" type="curve" smooth="yes"/>
      <point x="150" y="-70.5"/>
      <point x="159" y="-46"/>
      <point x="159" y="-20" type="curve" smooth="yes"/>
      <point x="159" y="-6.66667"/>
      <point x="155.333" y="0"/>
      <point x="148" y="0" type="curve" smooth="yes"/>
      <point x="146" y="-2.38419e-07"/>
      <point x="140.667" y="-2.33333"/>
      <point x="132" y="-7" type="curve" smooth="yes"/>
      <point x="123.333" y="-11.6667"/>
      <point x="114.667" y="-14"/>
      <point x="106" y="-14" type="curve" smooth="yes"/>
      <point x="90" y="-14"/>
      <point x="77.3333" y="-9.16667"/>
      <point x="68" y="0.5" type="curve" smooth="yes"/>
      <point x="58.6667" y="10.1667"/>
      <point x="54" y="23.3333"/>
      <point x="54" y="40" type="curve" smooth="yes"/>
      <point x="54" y="55.3333"/>
      <point x="60" y="68.8333"/>
      <point x="72" y="80.5" type="curve" smooth="yes"/>
      <point x="84" y="92.1667"/>
      <point x="99" y="98"/>
      <point x="117" y="98" type="curve" smooth="yes"/>
      <point x="138.333" y="98"/>
      <point x="157.333" y="88.6667"/>
      <point x="174" y="70" type="curve" smooth="yes"/>
      <point x="190.667" y="51.3333"/>
      <point x="199" y="26.3333"/>
      <point x="199" y="-5" type="curve" smooth="yes"/>
      <point x="199" y="-39"/>
      <point x="187.333" y="-70.3333"/>
      <point x="164" y="-99" type="curve" smooth="yes"/>
      <point x="140.667" y="-127.667"/>
      <point x="104" y="-150.333"/>
    </contour>
  </outline>
</glyph>
<glyph name="uni002D" format="2">
  <advance width="333"/>
  <unicode hex="002D"/>
  <outline>
    <contour>
      <point x="41" y="261" type="line"/>
      <point x="293" y="261" type="line"/>
      <point x="293" y="187" type="line"/>
      <point x="41" y="187" type="line"/>
    </contour>
  </outline>
</glyph>
<glyph name="uni002E" format="2">
  <advance width="250"/>
  <unicode hex="002E"/>
  <outline>
    <contour>
      <point x="125" y="95" type="curve" smooth="yes"/>
      <point x="140.333" y="95"/>
      <point x="153.167" y="89.6667"/>
      <point x="163.5" y="79" type="curve" smooth="yes"/>
      <point x="173.833" y="68.3333"/>
      <point x="179" y="55.6667"/>
      <point x="179" y="41" type="curve" smooth="yes"/>
      <point x="179" y="25.6667"/>
      <point x="173.667" y="12.6667"/>
      <point x="163" y="2" type="curve" smooth="yes"/>
      <point x="152.333" y="-8.66667"/>
      <point x="139.667" y="-14"/>
      <point x="125" y="-14" type="curve" smooth="yes"/>
      <point x="110.333" y="-14"/>
      <point x="97.6666" y="-8.66667"/>
      <point x="87" y="2" type="curve" smooth="yes"/>
      <point x="76.3333" y="12.6667"/>
      <point x="71" y="25.6667"/>
      <point x="71" y="41" type="curve" smooth="yes"/>
      <point x="71" y="55.6667"/>
      <point x="76.3333" y="68.3333"/>
      <point x="87" y="79" type="curve" smooth="yes"/>
      <point x="97.6667" y="89.6667"/>
      <point x="110.333" y="95"/>
    </contour>
  </outline>
</glyph>
<glyph name="uni002F" format="2">
  <advance width="278"/>
  <unicode hex="002F"/>
  <outline>
    <contour>
      <point x="280" y="694" type="line"/>
      <point x="41" y="-14" type="line"/>
      <point x="1" y="-14" type="line"/>
      <point x="241" y="694" type="line"/>
    </contour>
  </outline>
</glyph>
<glyph name="uni0030" format="2">
  <advance width="500"/>
  <unicode hex="0030"/>
  <outline>
    <contour>
      <point x="36" y="327" type="curve" smooth="yes"/>
      <point x="36" y="378.333"/>
      <point x="41.6667" y="425.333"/>
      <point x="53" y="468" type="curve" smooth="yes"/>
      <point x="64.3333" y="510.667"/>
      <point x="79.8333" y="547.5"/>
      <point x="99.5" y="578.5" type="curve" smooth="yes"/>
      <point x="119.167" y="609.5"/>
      <point x="142" y="633.5"/>
      <point x="168" y="650.5" type="curve" smooth="yes"/>
      <point x="194" y="667.5"/>
      <point x="222" y="676"/>
      <point x="252" y="676" type="curve" smooth="yes"/>
      <point x="282.667" y="676"/>
      <point x="310.833" y="667.167"/>
      <point x="336.5" y="649.5" type="curve" smooth="yes"/>
      <point x="362.167" y="631.833"/>
      <point x="384.5" y="607.167"/>
      <point x="403.5" y="575.5" type="curve" smooth="yes"/>
      <point x="422.5" y="543.833"/>
      <point x="437.333" y="506.5"/>
      <point x="448" y="463.5" type="curve" smooth="yes"/>
      <point x="458.667" y="420.5"/>
      <point x="464" y="374"/>
      <point x="464" y="324" type="curve" smooth="yes"/>
      <point x="464" y="266.667"/>
      <point x="457" y="217"/>
      <point x="443" y="175" type="curve" smooth="yes"/>
      <point x="429" y="133"/>
      <point x="411.333" y="98.1667"/>
      <point x="390" y="70.5" type="curve" smooth="yes"/>
      <point x="368.667" y="42.8333"/>
      <point x="345.333" y="22.1667"/>
      <point x="320" y="8.5" type="curve" smooth="yes"/>
      <point x="294.667" y="-5.16667"/>
      <point x="270.333" y="-12"/>
      <point x="247" y="-12" type="curve" smooth="yes"/>
      <point x="218.333" y="-12"/>
      <point x="191.333" y="-3.5"/>
      <point x="166" y="13.5" type="curve" smooth="yes"/>
      <point x="140.667" y="30.5"/>
      <point x="118.333" y="54.1667"/>
      <point x="99" y="84.5" type="curve" smooth="yes"/>
      <point x="79.6667" y="114.833"/>
      <point x="64.3333" y="150.667"/>
      <point x="53" y="192" type="curve" smooth="yes"/>
      <point x="41.6667" y="233.333"/>
      <point x="36" y="278.333"/>
    </contour>
    <contour>
      <point x="132" y="315" type="curve" smooth="yes"/>
      <point x="132" y="274.333"/>
      <point x="134.333" y="236.167"/>
      <point x="139" y="200.5" type="curve" smooth="yes"/>
      <point x="143.667" y="164.833"/>
      <point x="150.667" y="133.5"/>
      <point x="160" y="106.5" type="curve" smooth="yes"/>
      <point x="169.333" y="79.5"/>
      <point x="181.5" y="58.1667"/>
      <point x="196.5" y="42.5" type="curve" smooth="yes"/>
      <point x="211.5" y="26.8333"/>
      <point x="229" y="19"/>
      <point x="249" y="19" type="curve" smooth="yes"/>
      <point x="267.667" y="19"/>
      <point x="284.333" y="25.3333"/>
      <point x="299" y="38" type="curve" smooth="yes"/>
      <point x="313.667" y="50.6667"/>
      <point x="326.167" y="70.5"/>
      <point x="336.5" y="97.5" type="curve" smooth="yes"/>
      <point x="346.833" y="124.5"/>
      <point x="354.833" y="159.5"/>
      <point x="360.5" y="202.5" type="curve" smooth="yes"/>
      <point x="366.167" y="245.5"/>
      <point x="369" y="297.667"/>
      <point x="369" y="359" type="curve" smooth="yes"/>
      <point x="369" y="401.667"/>
      <point x="366.5" y="440.5"/>
      <point x="361.5" y="475.5" type="curve" smooth="yes"/>
      <point x="356.5" y="510.5"/>
      <point x="349" y="540.5"/>
      <point x="339" y="565.5" type="curve" smooth="yes"/>
      <point x="329" y="590.5"/>
      <point x="316.667" y="609.833"/>
      <point x="302" y="623.5" type="curve" smooth="yes"/>
      <point x="287.333" y="637.167"/>
      <point x="270.333" y="644"/>
      <point x="251" y="644" type="curve" smooth="yes"/>
      <point x="229" y="644"/>
      <point x="210.5" y="635.167"/>
      <point x="195.5" y="617.5" type="curve" smooth="yes"/>
      <point x="180.5" y="599.833"/>
      <point x="168.333" y="576"/>
      <point x="159" y="546" type="curve" smooth="yes"/>
      <point x="149.666" y="516"/>
      <point x="142.833" y="481"/>
      <point x="138.5" y="441" type="curve" smooth="yes"/>
      <point x="134.167" y="401"/>
      <point x="132" y="359"/>
    </contour>
  </outline>
</glyph>
<glyph name="uni0031" format="2">
  <advance width="500"/>
  <unicode hex="0031"/>
  <outline>
    <contour>
      <point x="117" y="597" type="line"/>
      <point x="278" y="676" type="line"/>
      <point x="294" y="676" type="line"/>
      <point x="294" y="117" type="line" smooth="yes"/>
      <point x="294" y="96.3333"/>
      <point x="294.167" y="79.6666"/>
      <point x="294.5" y="67" type="curve" smooth="yes"/>
      <point x="294.833" y="54.3333"/>
      <point x="297.333" y="44.3333"/>
      <point x="302" y="37" type="curve" smooth="yes"/>
      <point x="306.667" y="29.6667"/>
      <point x="314.833" y="24.6667"/>
      <point x="326.5" y="22" type="curve" smooth="yes"/>
      <point x="338.167" y="19.3333"/>
      <point x="355.333" y="18"/>
      <point x="378" y="18" type="curve"/>
      <point x="378" y="0" type="line"/>
      <point x="129" y="0" type="line"/>
      <point x="129" y="18" type="line"/>
      <point x="145" y="18.6667"/>
      <point x="157.833" y="19.6667"/>
      <point x="167.5" y="21" type="curve" smooth="yes"/>
      <point x="177.167" y="22.3334"/>
      <point x="184.667" y="24.1667"/>
      <point x="190" y="26.5" type="curve" smooth="yes"/>
      <point x="195.333" y="28.8333"/>
      <point x="199.333" y="31.5"/>
      <point x="202" y="34.5" type="curve" smooth="yes"/>
      <point x="204.667" y="37.5"/>
      <point x="206.667" y="41"/>
      <point x="208" y="45" type="curve" smooth="yes"/>
      <point x="212" y="53"/>
      <point x="214" y="77"/>
      <point x="214" y="117" type="curve" smooth="yes"/>
      <point x="214" y="474" type="line" smooth="yes"/>
      <point x="214" y="502"/>
      <point x="213.5" y="524"/>
      <point x="212.5" y="540" type="curve" smooth="yes"/>
      <point x="211.5" y="556"/>
      <point x="209.5" y="568.333"/>
      <point x="206.5" y="577" type="curve" smooth="yes"/>
      <point x="203.5" y="585.667"/>
      <point x="199.5" y="591.167"/>
      <point x="194.5" y="593.5" type="curve" smooth="yes"/>
      <point x="189.5" y="595.833"/>
      <point x="183" y="597"/>
      <point x="175" y="597" type="curve" smooth="yes"/>
      <point x="162.333" y="597"/>
      <point x="145.667" y="592"/>
      <point x="125" y="582" type="curve"/>
    </contour>
  </outline>
</glyph>
<glyph name="uni0032" format="2">
  <advance width="500"/>
  <unicode hex="0032"/>
  <outline>
    <contour>
      <point x="458" y="127" type="line"/>
      <point x="412" y="0" type="line"/>
      <point x="21" y="0" type="line"/>
      <point x="21" y="18" type="line"/>
      <point x="79" y="70.6667"/>
      <point x="128" y="118"/>
      <point x="168" y="160" type="curve" smooth="yes"/>
      <point x="208" y="202"/>
      <point x="240.167" y="240.333"/>
      <point x="264.5" y="275" type="curve" smooth="yes"/>
      <point x="288.833" y="309.667"/>
      <point x="306.5" y="341.667"/>
      <point x="317.5" y="371" type="curve" smooth="yes"/>
      <point x="328.5" y="400.333"/>
      <point x="334" y="429"/>
      <point x="334" y="457" type="curve" smooth="yes"/>
      <point x="334" y="477.667"/>
      <point x="330.5" y="496.667"/>
      <point x="323.5" y="514" type="curve" smooth="yes"/>
      <point x="316.5" y="531.333"/>
      <point x="307" y="546.5"/>
      <point x="295" y="559.5" type="curve" smooth="yes"/>
      <point x="283" y="572.5"/>
      <point x="269.167" y="582.667"/>
      <point x="253.5" y="590" type="curve" smooth="yes"/>
      <point x="237.833" y="597.333"/>
      <point x="221.333" y="601"/>
      <point x="204" y="601" type="curve" smooth="yes"/>
      <point x="171.333" y="601"/>
      <point x="142" y="591.5"/>
      <point x="116" y="572.5" type="curve" smooth="yes"/>
      <point x="90" y="553.5"/>
      <point x="71" y="525.667"/>
      <point x="59" y="489" type="curve"/>
      <point x="41" y="489" type="line"/>
      <point x="49" y="549.667"/>
      <point x="69.8333" y="596"/>
      <point x="103.5" y="628" type="curve" smooth="yes"/>
      <point x="137.167" y="660"/>
      <point x="179" y="676"/>
      <point x="229" y="676" type="curve" smooth="yes"/>
      <point x="255.667" y="676"/>
      <point x="280.5" y="671.333"/>
      <point x="303.5" y="662" type="curve" smooth="yes"/>
      <point x="326.5" y="652.667"/>
      <point x="346.5" y="640"/>
      <point x="363.5" y="624" type="curve" smooth="yes"/>
      <point x="380.5" y="608"/>
      <point x="393.833" y="589.5"/>
      <point x="403.5" y="568.5" type="curve" smooth="yes"/>
      <point x="413.167" y="547.5"/>
      <point x="418" y="525.333"/>
      <point x="418" y="502" type="curve" smooth="yes"/>
      <point x="418" y="459.333"/>
      <point x="405.5" y="416"/>
      <point x="380.5" y="372" type="curve" smooth="yes"/>
      <point x="355.5" y="328"/>
      <point x="321" y="282"/>
      <point x="277" y="234" type="curve" smooth="yes"/>
      <point x="236.333" y="189.333"/>
      <point x="203.5" y="153.833"/>
      <point x="178.5" y="127.5" type="curve" smooth="yes"/>
      <point x="153.5" y="101.167"/>
      <point x="135.667" y="83.3333"/>
      <point x="125" y="74" type="curve"/>
      <point x="298" y="74" type="line" smooth="yes"/>
      <point x="320" y="74"/>
      <point x="338.5" y="74.5"/>
      <point x="353.5" y="75.5" type="curve" smooth="yes"/>
      <point x="368.5" y="76.5"/>
      <point x="381.167" y="78.8333"/>
      <point x="391.5" y="82.5" type="curve" smooth="yes"/>
      <point x="401.833" y="86.1667"/>
      <point x="410.833" y="91.5"/>
      <point x="418.5" y="98.5" type="curve" smooth="yes"/>
      <point x="426.167" y="105.5"/>
      <point x="433.333" y="115"/>
      <point x="440" y="127" type="curve"/>
    </contour>
  </outline>
</glyph>
<glyph name="uni0033" format="2">
  <advance width="500"/>
  <unicode hex="0033"/>
  <outline>
    <contour>
      <point x="51" y="536" type="line"/>
      <point x="69.6667" y="580.667"/>
      <point x="93.5" y="615.167"/>
      <point x="122.5" y="639.5" type="curve" smooth="yes"/>
      <point x="151.5" y="663.833"/>
      <point x="187.333" y="676"/>
      <point x="230" y="676" type="curve" smooth="yes"/>
      <point x="252.667" y="676"/>
      <point x="273.333" y="672.333"/>
      <point x="292" y="665" type="curve" smooth="yes"/>
      <point x="310.667" y="657.662"/>
      <point x="326.833" y="647.828"/>
      <point x="340.5" y="635.5" type="curve" smooth="yes"/>
      <point x="354.167" y="623.164"/>
      <point x="364.833" y="608.831"/>
      <point x="372.5" y="592.5" type="curve" smooth="yes"/>
      <point x="380.167" y="576.164"/>
      <point x="384" y="559.331"/>
      <point x="384" y="542" type="curve" smooth="yes"/>
      <point x="384" y="492.667"/>
      <point x="353.667" y="442.667"/>
      <point x="293" y="392" type="curve"/>
      <point x="333.667" y="376"/>
      <point x="364.5" y="353.167"/>
      <point x="385.5" y="323.5" type="curve" smooth="yes"/>
      <point x="406.5" y="293.833"/>
      <point x="417" y="259"/>
      <point x="417" y="219" type="curve" smooth="yes"/>
      <point x="417" y="185.667"/>
      <point x="410.833" y="154.833"/>
      <point x="398.5" y="126.5" type="curve" smooth="yes"/>
      <point x="386.167" y="98.1667"/>
      <point x="368.5" y="73.6667"/>
      <point x="345.5" y="53" type="curve" smooth="yes"/>
      <point x="322.5" y="32.3333"/>
      <point x="295" y="16.3333"/>
      <point x="263" y="5" type="curve" smooth="yes"/>
      <point x="231" y="-6.33333"/>
      <point x="195.333" y="-12"/>
      <point x="156" y="-12" type="curve" smooth="yes"/>
      <point x="134" y="-12"/>
      <point x="115.5" y="-10.5"/>
      <point x="100.5" y="-7.5" type="curve" smooth="yes"/>
      <point x="85.5" y="-4.5"/>
      <point x="73.6667" y="-0.5"/>
      <point x="65" y="4.5" type="curve" smooth="yes"/>
      <point x="56.3333" y="9.5"/>
      <point x="50.1667" y="15.1667"/>
      <point x="46.5" y="21.5" type="curve" smooth="yes"/>
      <point x="42.8333" y="27.8333"/>
      <point x="41" y="34.3333"/>
      <point x="41" y="41" type="curve" smooth="yes"/>
      <point x="41" y="50.3333"/>
      <point x="44.6667" y="58.5"/>
      <point x="52" y="65.5" type="curve" smooth="yes"/>
      <point x="59.3333" y="72.5"/>
      <point x="68.6667" y="76"/>
      <point x="80" y="76" type="curve" smooth="yes"/>
      <point x="86" y="76"/>
      <point x="86" y="76"/>
      <point x="90.5" y="76" type="curve" smooth="yes"/>
      <point x="93.5" y="76"/>
      <point x="97" y="75.3333"/>
      <point x="101" y="74" type="curve" smooth="yes"/>
      <point x="105" y="72.6667"/>
      <point x="110" y="70.5"/>
      <point x="116" y="67.5" type="curve" smooth="yes"/>
      <point x="122" y="64.5"/>
      <point x="130.667" y="60"/>
      <point x="142" y="54" type="curve" smooth="yes"/>
      <point x="152.667" y="48"/>
      <point x="161.834" y="43.5"/>
      <point x="169.5" y="40.5" type="curve" smooth="yes"/>
      <point x="177.167" y="37.5"/>
      <point x="183.667" y="35.1667"/>
      <point x="189" y="33.5" type="curve" smooth="yes"/>
      <point x="194.333" y="31.8333"/>
      <point x="199.5" y="31"/>
      <point x="204.5" y="31" type="curve" smooth="yes"/>
      <point x="212" y="31"/>
      <point x="212" y="31"/>
      <point x="221" y="31" type="curve" smooth="yes"/>
      <point x="237.667" y="31"/>
      <point x="253.5" y="34.5"/>
      <point x="268.5" y="41.5" type="curve" smooth="yes"/>
      <point x="283.5" y="48.5"/>
      <point x="296.667" y="58"/>
      <point x="308" y="70" type="curve" smooth="yes"/>
      <point x="319.333" y="82"/>
      <point x="328.333" y="95.8333"/>
      <point x="335" y="111.5" type="curve" smooth="yes"/>
      <point x="341.667" y="127.167"/>
      <point x="345" y="143.667"/>
      <point x="345" y="161" type="curve" smooth="yes"/>
      <point x="345" y="185.667"/>
      <point x="340.667" y="208.167"/>
      <point x="332" y="228.5" type="curve" smooth="yes"/>
      <point x="323.333" y="248.833"/>
      <point x="311" y="266.5"/>
      <point x="295" y="281.5" type="curve" smooth="yes"/>
      <point x="279" y="296.5"/>
      <point x="260.167" y="308.167"/>
      <point x="238.5" y="316.5" type="curve" smooth="yes"/>
      <point x="216.833" y="324.833"/>
      <point x="193" y="329"/>
      <point x="167" y="329" type="curve" smooth="yes"/>
      <point x="152" y="329" type="line"/>
      <point x="152" y="343" type="line"/>
      <point x="176" y="345.667"/>
      <point x="197.333" y="352"/>
      <point x="216" y="362" type="curve" smooth="yes"/>
      <point x="234.667" y="372"/>
      <point x="250.5" y="384"/>
      <point x="263.5" y="398" type="curve" smooth="yes"/>
      <point x="276.5" y="412"/>
      <point x="286.333" y="427.667"/>
      <point x="293" y="445" type="curve" smooth="yes"/>
      <point x="299.667" y="462.334"/>
      <point x="303" y="479.668"/>
      <point x="303" y="497" type="curve" smooth="yes"/>
      <point x="303" y="531"/>
      <point x="292.667" y="558.167"/>
      <point x="272" y="578.5" type="curve" smooth="yes"/>
      <point x="251.333" y="598.833"/>
      <point x="225" y="609"/>
      <point x="193" y="609" type="curve" smooth="yes"/>
      <point x="143" y="609"/>
      <point x="101" y="582"/>
      <point x="67" y="528" type="curve"/>
    </contour>
  </outline>
</glyph>
<glyph name="uni0034" format="2">
  <advance width="500"/>
  <unicode hex="0034"/>
  <outline>
    <contour>
      <point x="465" y="244" type="line"/>
      <point x="465" y="175" type="line"/>
      <point x="376" y="175" type="line"/>
      <point x="376" y="0" type="line"/>
      <point x="296" y="0" type="line"/>
      <point x="296" y="175" type="line"/>
      <point x="16" y="175" type="line"/>
      <point x="16" y="237" type="line"/>
      <point x="323" y="676" type="line"/>
      <point x="376" y="676" type="line"/>
      <point x="376" y="244" type="line"/>
    </contour>
    <contour>
      <point x="296" y="244" type="line"/>
      <point x="296" y="573" type="line"/>
      <point x="63" y="244" type="line"/>
    </contour>
  </outline>
</glyph>
<glyph name="uni0035" format="2">
  <advance width="500"/>
  <unicode hex="0035"/>
  <outline>
    <contour>
      <point x="434" y="662" type="line"/>
      <point x="396" y="579" type="line"/>
      <point x="197" y="579" type="line"/>
      <point x="153" y="490" type="line"/>
      <point x="192.333" y="484"/>
      <point x="228.5" y="473.667"/>
      <point x="261.5" y="459" type="curve" smooth="yes"/>
      <point x="294.5" y="444.333"/>
      <point x="323" y="426"/>
      <point x="347" y="404" type="curve" smooth="yes"/>
      <point x="371" y="382"/>
      <point x="389.667" y="357"/>
      <point x="403" y="329" type="curve" smooth="yes"/>
      <point x="416.333" y="301"/>
      <point x="423" y="270.667"/>
      <point x="423" y="238" type="curve" smooth="yes"/>
      <point x="423" y="197.333"/>
      <point x="414.667" y="161.5"/>
      <point x="398" y="130.5" type="curve" smooth="yes"/>
      <point x="381.333" y="99.5"/>
      <point x="360.166" y="73.5"/>
      <point x="334.5" y="52.5" type="curve" smooth="yes"/>
      <point x="308.833" y="31.5"/>
      <point x="280.666" y="15.5"/>
      <point x="250" y="4.5" type="curve" smooth="yes"/>
      <point x="219.333" y="-6.5"/>
      <point x="190" y="-12"/>
      <point x="162" y="-12" type="curve" smooth="yes"/>
      <point x="122" y="-12"/>
      <point x="93" y="-5.16667"/>
      <point x="75" y="8.5" type="curve" smooth="yes"/>
      <point x="57" y="22.1667"/>
      <point x="48" y="37"/>
      <point x="48" y="53" type="curve" smooth="yes"/>
      <point x="48" y="62.3333"/>
      <point x="51.6667" y="70.5"/>
      <point x="59" y="77.5" type="curve" smooth="yes"/>
      <point x="66.3334" y="84.5"/>
      <point x="75.6667" y="88"/>
      <point x="87" y="88" type="curve" smooth="yes"/>
      <point x="95.6667" y="88"/>
      <point x="103.167" y="86.6667"/>
      <point x="109.5" y="84" type="curve" smooth="yes"/>
      <point x="115.833" y="81.3332"/>
      <point x="126.667" y="74.6665"/>
      <point x="142" y="64" type="curve" smooth="yes"/>
      <point x="166.667" y="47.3333"/>
      <point x="191.333" y="39"/>
      <point x="216" y="39" type="curve" smooth="yes"/>
      <point x="234.667" y="39"/>
      <point x="252.667" y="42.8333"/>
      <point x="270" y="50.5" type="curve" smooth="yes"/>
      <point x="287.334" y="58.1667"/>
      <point x="302.667" y="68.8333"/>
      <point x="316" y="82.5" type="curve" smooth="yes"/>
      <point x="329.333" y="96.1667"/>
      <point x="340" y="112"/>
      <point x="348" y="130" type="curve" smooth="yes"/>
      <point x="356" y="148"/>
      <point x="360" y="167"/>
      <point x="360" y="187" type="curve" smooth="yes"/>
      <point x="360" y="217"/>
      <point x="353.833" y="244.833"/>
      <point x="341.5" y="270.5" type="curve" smooth="yes"/>
      <point x="329.167" y="296.167"/>
      <point x="310.667" y="318.5"/>
      <point x="286" y="337.5" type="curve" smooth="yes"/>
      <point x="261.333" y="356.5"/>
      <point x="231" y="372"/>
      <point x="195" y="384" type="curve" smooth="yes"/>
      <point x="159" y="396"/>
      <point x="117.333" y="403"/>
      <point x="70" y="405" type="curve"/>
      <point x="197" y="662" type="line"/>
    </contour>
  </outline>
</glyph>
<glyph name="uni0036" format="2">
  <advance width="500"/>
  <unicode hex="0036"/>
  <outline>
    <contour>
      <point x="448" y="676" type="line"/>
      <point x="448" y="658" type="line"/>
      <point x="370" y="649.333"/>
      <point x="306.667" y="620.333"/>
      <point x="258" y="571" type="curve" smooth="yes"/>
      <point x="209.333" y="521.666"/>
      <point x="174.333" y="454.666"/>
      <point x="153" y="370" type="curve"/>
      <point x="199.667" y="402"/>
      <point x="246.667" y="418"/>
      <point x="294" y="418" type="curve" smooth="yes"/>
      <point x="316" y="418"/>
      <point x="337" y="413.167"/>
      <point x="357" y="403.5" type="curve" smooth="yes"/>
      <point x="377" y="393.833"/>
      <point x="394.833" y="380.333"/>
      <point x="410.5" y="363" type="curve" smooth="yes"/>
      <point x="426.167" y="345.667"/>
      <point x="438.5" y="325.167"/>
      <point x="447.5" y="301.5" type="curve" smooth="yes"/>
      <point x="456.5" y="277.833"/>
      <point x="461" y="251.667"/>
      <point x="461" y="223" type="curve" smooth="yes"/>
      <point x="461" y="192.333"/>
      <point x="455.667" y="162.833"/>
      <point x="445" y="134.5" type="curve" smooth="yes"/>
      <point x="434.333" y="106.167"/>
      <point x="419.666" y="81.1667"/>
      <point x="401" y="59.5" type="curve" smooth="yes"/>
      <point x="382.333" y="37.8333"/>
      <point x="360.166" y="20.5"/>
      <point x="334.5" y="7.5" type="curve" smooth="yes"/>
      <point x="308.833" y="-5.5"/>
      <point x="281" y="-12"/>
      <point x="251" y="-12" type="curve" smooth="yes"/>
      <point x="217.667" y="-12"/>
      <point x="188.167" y="-3.83333"/>
      <point x="162.5" y="12.5" type="curve" smooth="yes"/>
      <point x="136.833" y="28.8333"/>
      <point x="115.167" y="50"/>
      <point x="97.5" y="76" type="curve" smooth="yes"/>
      <point x="79.8333" y="102"/>
      <point x="66.3333" y="131.167"/>
      <point x="57" y="163.5" type="curve" smooth="yes"/>
      <point x="47.6667" y="195.833"/>
      <point x="43" y="228"/>
      <point x="43" y="260" type="curve" smooth="yes"/>
      <point x="43" y="320"/>
      <point x="54.8333" y="376.333"/>
      <point x="78.5" y="429" type="curve" smooth="yes"/>
      <point x="102.167" y="481.667"/>
      <point x="136" y="529"/>
      <point x="180" y="571" type="curve"/>
      <point x="224.667" y="612.333"/>
      <point x="267.167" y="640.167"/>
      <point x="307.5" y="654.5" type="curve" smooth="yes"/>
      <point x="347.833" y="668.833"/>
      <point x="385.333" y="676"/>
      <point x="420" y="676" type="curve" smooth="yes"/>
    </contour>
    <contour>
      <point x="145" y="334" type="curve"/>
      <point x="139" y="290"/>
      <point x="136" y="254.667"/>
      <point x="136" y="228" type="curve" smooth="yes"/>
      <point x="136" y="208"/>
      <point x="138.5" y="185.667"/>
      <point x="143.5" y="161" type="curve" smooth="yes"/>
      <point x="148.5" y="136.333"/>
      <point x="156.333" y="113.167"/>
      <point x="167" y="91.5" type="curve" smooth="yes"/>
      <point x="177.667" y="69.8333"/>
      <point x="191.167" y="51.8333"/>
      <point x="207.5" y="37.5" type="curve" smooth="yes"/>
      <point x="223.833" y="23.1667"/>
      <point x="243" y="16"/>
      <point x="265" y="16" type="curve" smooth="yes"/>
      <point x="279" y="16"/>
      <point x="292.667" y="19.3333"/>
      <point x="306" y="26" type="curve" smooth="yes"/>
      <point x="319.335" y="32.6667"/>
      <point x="331.168" y="42.5"/>
      <point x="341.5" y="55.5" type="curve" smooth="yes"/>
      <point x="351.833" y="68.5"/>
      <point x="360" y="84.6667"/>
      <point x="366" y="104" type="curve" smooth="yes"/>
      <point x="372" y="123.333"/>
      <point x="375" y="145.333"/>
      <point x="375" y="170" type="curve" smooth="yes"/>
      <point x="375" y="196"/>
      <point x="372.167" y="221.333"/>
      <point x="366.5" y="246" type="curve" smooth="yes"/>
      <point x="360.832" y="270.667"/>
      <point x="352.665" y="292.5"/>
      <point x="342" y="311.5" type="curve" smooth="yes"/>
      <point x="331.333" y="330.5"/>
      <point x="318" y="345.833"/>
      <point x="302" y="357.5" type="curve" smooth="yes"/>
      <point x="286" y="369.167"/>
      <point x="267.667" y="375"/>
      <point x="247" y="375" type="curve" smooth="yes"/>
      <point x="235" y="375"/>
      <point x="221.833" y="372.5"/>
      <point x="207.5" y="367.5" type="curve" smooth="yes"/>
      <point x="193.166" y="362.5"/>
      <point x="172.333" y="351.333"/>
    </contour>
  </outline>
</glyph>
<glyph name="uni0037" format="2">
  <advance width="500"/>
  <unicode hex="0037"/>
  <outline>
    <contour>
      <point x="101" y="662" type="line"/>
      <point x="456" y="662" type="line"/>
      <point x="456" y="644" type="line"/>
      <point x="235" y="-14" type="line"/>
      <point x="180" y="-14" type="line"/>
      <point x="378" y="583" type="line"/>
      <point x="196" y="583" type="line" smooth="yes"/>
      <point x="174" y="583"/>
      <point x="155.5" y="581"/>
      <point x="140.5" y="577" type="curve" smooth="yes"/>
      <point x="125.5" y="573"/>
      <point x="112.5" y="567.5"/>
      <point x="101.5" y="560.5" type="curve" smooth="yes"/>
      <point x="90.5" y="553.5"/>
      <point x="81" y="544.833"/>
      <point x="73" y="534.5" type="curve" smooth="yes"/>
      <point x="65" y="524.167"/>
      <point x="57.6667" y="512.667"/>
      <point x="51" y="500" type="curve"/>
      <point x="37" y="505" type="line"/>
    </contour>
  </outline>
</glyph>
<glyph name="uni0038" format="2">
  <advance width="500"/>
  <unicode hex="0038"/>
  <outline>
    <contour>
      <point x="192" y="333" type="curve"/>
      <point x="164.667" y="355"/>
      <point x="143" y="374.333"/>
      <point x="127" y="391" type="curve" smooth="yes"/>
      <point x="111" y="407.667"/>
      <point x="98.5" y="423"/>
      <point x="89.5" y="437" type="curve" smooth="yes"/>
      <point x="80.5" y="451"/>
      <point x="74.6667" y="464.333"/>
      <point x="72" y="477" type="curve" smooth="yes"/>
      <point x="69.3333" y="489.667"/>
      <point x="68" y="503.333"/>
      <point x="68" y="518" type="curve" smooth="yes"/>
      <point x="68" y="539.333"/>
      <point x="72.3333" y="559.667"/>
      <point x="81" y="579" type="curve" smooth="yes"/>
      <point x="89.6667" y="598.333"/>
      <point x="102" y="615.167"/>
      <point x="118" y="629.5" type="curve" smooth="yes"/>
      <point x="134" y="643.833"/>
      <point x="153.167" y="655.167"/>
      <point x="175.5" y="663.5" type="curve" smooth="yes"/>
      <point x="197.833" y="671.833"/>
      <point x="222.667" y="676"/>
      <point x="250" y="676" type="curve" smooth="yes"/>
      <point x="276" y="676"/>
      <point x="300" y="672"/>
      <point x="322" y="664" type="curve" smooth="yes"/>
      <point x="344" y="656"/>
      <point x="362.833" y="645.333"/>
      <point x="378.5" y="632" type="curve" smooth="yes"/>
      <point x="394.167" y="618.664"/>
      <point x="406.333" y="603.331"/>
      <point x="415" y="586" type="curve" smooth="yes"/>
      <point x="423.667" y="568.667"/>
      <point x="428" y="551"/>
      <point x="428" y="533" type="curve" smooth="yes"/>
      <point x="428" y="520.333"/>
      <point x="426.333" y="508"/>
      <point x="423" y="496" type="curve" smooth="yes"/>
      <point x="419.667" y="484"/>
      <point x="413" y="471.5"/>
      <point x="403" y="458.5" type="curve" smooth="yes"/>
      <point x="393" y="445.5"/>
      <point x="379.167" y="431.5"/>
      <point x="361.5" y="416.5" type="curve" smooth="yes"/>
      <point x="343.833" y="401.5"/>
      <point x="320.666" y="385"/>
      <point x="292" y="367" type="curve"/>
      <point x="324" y="341.667"/>
      <point x="349.833" y="319.667"/>
      <point x="369.5" y="301" type="curve" smooth="yes"/>
      <point x="389.167" y="282.333"/>
      <point x="404.333" y="265.333"/>
      <point x="415" y="250" type="curve" smooth="yes"/>
      <point x="425.667" y="234.667"/>
      <point x="432.833" y="219.667"/>
      <point x="436.5" y="205" type="curve" smooth="yes"/>
      <point x="440.167" y="190.333"/>
      <point x="442" y="174.333"/>
      <point x="442" y="157" type="curve" smooth="yes"/>
      <point x="442" y="133.667"/>
      <point x="437.333" y="111.667"/>
      <point x="428" y="91" type="curve" smooth="yes"/>
      <point x="418.667" y="70.3333"/>
      <point x="405.5" y="52.3333"/>
      <point x="388.5" y="37" type="curve" smooth="yes"/>
      <point x="371.5" y="21.6667"/>
      <point x="351.333" y="9.66667"/>
      <point x="328" y="1" type="curve" smooth="yes"/>
      <point x="304.667" y="-7.66667"/>
      <point x="278.667" y="-12"/>
      <point x="250" y="-12" type="curve" smooth="yes"/>
      <point x="222" y="-12"/>
      <point x="196.333" y="-7.5"/>
      <point x="173" y="1.5" type="curve" smooth="yes"/>
      <point x="149.667" y="10.5"/>
      <point x="129.667" y="22.5"/>
      <point x="113" y="37.5" type="curve" smooth="yes"/>
      <point x="96.3333" y="52.5"/>
      <point x="83.5" y="69.8333"/>
      <point x="74.5" y="89.5" type="curve" smooth="yes"/>
      <point x="65.5" y="109.167"/>
      <point x="61" y="129.667"/>
      <point x="61" y="151" type="curve" smooth="yes"/>
      <point x="61" y="181"/>
      <point x="70.8333" y="210.167"/>
      <point x="90.5" y="238.5" type="curve" smooth="yes"/>
      <point x="110.167" y="266.833"/>
      <point x="144" y="298.333"/>
    </contour>
    <contour>
      <point x="269" y="386" type="line"/>
      <point x="289" y="404"/>
      <point x="304.833" y="419.5"/>
      <point x="316.5" y="432.5" type="curve" smooth="yes"/>
      <point x="328.167" y="445.5"/>
      <point x="337.167" y="457.833"/>
      <point x="343.5" y="469.5" type="curve" smooth="yes"/>
      <point x="349.833" y="481.167"/>
      <point x="353.833" y="492.333"/>
      <point x="355.5" y="503" type="curve" smooth="yes"/>
      <point x="357.167" y="513.669"/>
      <point x="358" y="525.335"/>
      <point x="358" y="538" type="curve" smooth="yes"/>
      <point x="358" y="572"/>
      <point x="348.667" y="598.667"/>
      <point x="330" y="618" type="curve" smooth="yes"/>
      <point x="311.333" y="637.333"/>
      <point x="285" y="647"/>
      <point x="251" y="647" type="curve" smooth="yes"/>
      <point x="234.333" y="647"/>
      <point x="219.167" y="644.5"/>
      <point x="205.5" y="639.5" type="curve" smooth="yes"/>
      <point x="191.833" y="634.5"/>
      <point x="180" y="627.5"/>
      <point x="170" y="618.5" type="curve" smooth="yes"/>
      <point x="160" y="609.5"/>
      <point x="152.333" y="599.167"/>
      <point x="147" y="587.5" type="curve" smooth="yes"/>
      <point x="141.667" y="575.833"/>
      <point x="139" y="563.667"/>
      <point x="139" y="551" type="curve" smooth="yes"/>
      <point x="139" y="534.333"/>
      <point x="143.333" y="517.5"/>
      <point x="152" y="500.5" type="curve" smooth="yes"/>
      <point x="160.667" y="483.5"/>
      <point x="172.667" y="467.333"/>
      <point x="188" y="452" type="curve"/>
    </contour>
    <contour>
      <point x="215" y="315" type="curve"/>
      <point x="187" y="292.333"/>
      <point x="166.667" y="267.666"/>
      <point x="154" y="241" type="curve" smooth="yes"/>
      <point x="141.333" y="214.333"/>
      <point x="135" y="185"/>
      <point x="135" y="153" type="curve" smooth="yes"/>
      <point x="135" y="111"/>
      <point x="146.333" y="77.5"/>
      <point x="169" y="52.5" type="curve" smooth="yes"/>
      <point x="191.667" y="27.5"/>
      <point x="221" y="15"/>
      <point x="257" y="15" type="curve" smooth="yes"/>
      <point x="293" y="15"/>
      <point x="321.5" y="24.8333"/>
      <point x="342.5" y="44.5" type="curve" smooth="yes"/>
      <point x="363.5" y="64.1667"/>
      <point x="374" y="88.3333"/>
      <point x="374" y="117" type="curve" smooth="yes"/>
      <point x="374" y="131.667"/>
      <point x="371" y="146"/>
      <point x="365" y="160" type="curve" smooth="yes"/>
      <point x="359" y="174"/>
      <point x="349.667" y="188.833"/>
      <point x="337" y="204.5" type="curve" smooth="yes"/>
      <point x="324.333" y="220.167"/>
      <point x="307.833" y="236.834"/>
      <point x="287.5" y="254.5" type="curve" smooth="yes"/>
      <point x="267.167" y="272.167"/>
      <point x="243" y="292.333"/>
    </contour>
  </outline>
</glyph>
<glyph name="uni0039" format="2">
  <advance width="500"/>
  <unicode hex="0039"/>
  <outline>
    <contour>
      <point x="53" y="-14" type="line"/>
      <point x="53" y="4" type="line"/>
      <point x="95.6667" y="4.66667"/>
      <point x="135" y="14.3333"/>
      <point x="171" y="33" type="curve" smooth="yes"/>
      <point x="207" y="51.6667"/>
      <point x="242.333" y="85"/>
      <point x="277" y="133" type="curve" smooth="yes"/>
      <point x="311.667" y="181.667"/>
      <point x="335.333" y="234.333"/>
      <point x="348" y="291" type="curve"/>
      <point x="296.667" y="257.667"/>
      <point x="250.333" y="241"/>
      <point x="209" y="241" type="curve" smooth="yes"/>
      <point x="185.667" y="241"/>
      <point x="163.667" y="245.667"/>
      <point x="143" y="255" type="curve" smooth="yes"/>
      <point x="122.333" y="264.334"/>
      <point x="104.333" y="277.667"/>
      <point x="89" y="295" type="curve" smooth="yes"/>
      <point x="73.6667" y="312.334"/>
      <point x="61.6667" y="333.167"/>
      <point x="53" y="357.5" type="curve" smooth="yes"/>
      <point x="44.3333" y="381.834"/>
      <point x="40" y="408.667"/>
      <point x="40" y="438" type="curve" smooth="yes"/>
      <point x="40" y="470.667"/>
      <point x="45.3333" y="501.333"/>
      <point x="56" y="530" type="curve" smooth="yes"/>
      <point x="66.6667" y="558.669"/>
      <point x="81.1667" y="583.836"/>
      <point x="99.5" y="605.5" type="curve" smooth="yes"/>
      <point x="117.833" y="627.169"/>
      <point x="139.5" y="644.336"/>
      <point x="164.5" y="657" type="curve" smooth="yes"/>
      <point x="189.5" y="669.667"/>
      <point x="216.667" y="676"/>
      <point x="246" y="676" type="curve" smooth="yes"/>
      <point x="276.667" y="676"/>
      <point x="305" y="668.5"/>
      <point x="331" y="653.5" type="curve" smooth="yes"/>
      <point x="357" y="638.5"/>
      <point x="379.333" y="618.333"/>
      <point x="398" y="593" type="curve" smooth="yes"/>
      <point x="416.667" y="567.667"/>
      <point x="431.167" y="538.5"/>
      <point x="441.5" y="505.5" type="curve" smooth="yes"/>
      <point x="451.833" y="472.5"/>
      <point x="457" y="438"/>
      <point x="457" y="402" type="curve" smooth="yes"/>
      <point x="457" y="354.667"/>
      <point x="447.667" y="306.333"/>
      <point x="429" y="257" type="curve" smooth="yes"/>
      <point x="410.333" y="207.667"/>
      <point x="384.333" y="163"/>
      <point x="351" y="123" type="curve" smooth="yes"/>
      <point x="317.667" y="83"/>
      <point x="278" y="50.1667"/>
      <point x="232" y="24.5" type="curve" smooth="yes"/>
      <point x="186" y="-1.16667"/>
      <point x="135.667" y="-14"/>
      <point x="81" y="-14" type="curve" smooth="yes"/>
    </contour>
    <contour>
      <point x="355" y="327" type="curve"/>
      <point x="361" y="369"/>
      <point x="364" y="402.667"/>
      <point x="364" y="428" type="curve" smooth="yes"/>
      <point x="364" y="458.667"/>
      <point x="360.667" y="487.167"/>
      <point x="354" y="513.5" type="curve" smooth="yes"/>
      <point x="347.332" y="539.833"/>
      <point x="338.165" y="562.667"/>
      <point x="326.5" y="582" type="curve" smooth="yes"/>
      <point x="314.832" y="601.333"/>
      <point x="301.165" y="616.5"/>
      <point x="285.5" y="627.5" type="curve" smooth="yes"/>
      <point x="269.833" y="638.5"/>
      <point x="253" y="644"/>
      <point x="235" y="644" type="curve" smooth="yes"/>
      <point x="221" y="644"/>
      <point x="207.333" y="640.833"/>
      <point x="194" y="634.5" type="curve" smooth="yes"/>
      <point x="180.667" y="628.167"/>
      <point x="169" y="618.5"/>
      <point x="159" y="605.5" type="curve" smooth="yes"/>
      <point x="149" y="592.5"/>
      <point x="141" y="576.333"/>
      <point x="135" y="557" type="curve" smooth="yes"/>
      <point x="129" y="537.667"/>
      <point x="126" y="515"/>
      <point x="126" y="489" type="curve" smooth="yes"/>
      <point x="126" y="460.333"/>
      <point x="128.834" y="433.667"/>
      <point x="134.5" y="409" type="curve" smooth="yes"/>
      <point x="140.167" y="384.333"/>
      <point x="148.334" y="362.833"/>
      <point x="159" y="344.5" type="curve" smooth="yes"/>
      <point x="169.667" y="326.167"/>
      <point x="182.5" y="311.833"/>
      <point x="197.5" y="301.5" type="curve" smooth="yes"/>
      <point x="212.5" y="291.167"/>
      <point x="229.333" y="286"/>
      <point x="248" y="286" type="curve" smooth="yes"/>
      <point x="263.334" y="286"/>
      <point x="281.167" y="289.5"/>
      <point x="301.5" y="296.5" type="curve" smooth="yes"/>
      <point x="321.834" y="303.5"/>
      <point x="339.667" y="313.667"/>
    </contour>
  </outline>
</glyph>
<glyph name="uni003A" format="2">
  <advance width="36"/>
  <unicode hex="003A"/>
  <outline>
    <contour>
      <point x="18" y="482" type="curve" smooth="yes"/>
      <point x="34.6667" y="482"/>
      <point x="49" y="476"/>
      <point x="61" y="464" type="curve" smooth="yes"/>
      <point x="73" y="452"/>
      <point x="79" y="437.333"/>
      <point x="79" y="420" type="curve" smooth="yes"/>
      <point x="79" y="403.333"/>
      <point x="73" y="388.833"/>
      <point x="61" y="376.5" type="curve" smooth="yes"/>
      <point x="49" y="364.167"/>
      <point x="34.6667" y="358"/>
      <point x="18" y="358" type="curve" smooth="yes"/>
      <point x="1.33333" y="358"/>
      <point x="-13" y="364"/>
      <point x="-25" y="376" type="curve" smooth="yes"/>
      <point x="-37" y="388"/>
      <point x="-43" y="402.333"/>
      <point x="-43" y="419" type="curve" smooth="yes"/>
      <point x="-43" y="436.335"/>
      <point x="-36.8333" y="451.168"/>
      <point x="-24.5" y="463.5" type="curve" smooth="yes"/>
      <point x="-12.1667" y="475.833"/>
      <point x="2" y="482"/>
    </contour>
    <contour>
      <point x="18" y="113" type="curve" smooth="yes"/>
      <point x="35.3333" y="113"/>
      <point x="49.8333" y="107"/>
      <point x="61.5" y="95" type="curve" smooth="yes"/>
      <point x="73.1667" y="83"/>
      <point x="79" y="68.6667"/>
      <point x="79" y="52" type="curve" smooth="yes"/>
      <point x="79" y="34.6667"/>
      <point x="73" y="20.1667"/>
      <point x="61" y="8.5" type="curve" smooth="yes"/>
      <point x="49" y="-3.16667"/>
      <point x="34.6667" y="-9"/>
      <point x="18" y="-9" type="curve" smooth="yes"/>
      <point x="1.33333" y="-9"/>
      <point x="-13" y="-3.16667"/>
      <point x="-25" y="8.5" type="curve" smooth="yes"/>
      <point x="-37" y="20.1667"/>
      <point x="-43" y="34.6667"/>
      <point x="-43" y="52" type="curve" smooth="yes"/>
      <point x="-43" y="68.6667"/>
      <point x="-37.1667" y="83"/>
      <point x="-25.5" y="95" type="curve" smooth="yes"/>
      <point x="-13.8333" y="107"/>
      <point x="0.666667" y="113"/>
    </contour>
  </outline>
</glyph>
<glyph name="uni003B" format="2">
  <advance width="31"/>
  <unicode hex="003B"/>
  <outline>
    <contour>
      <point x="13" y="484" type="curve" smooth="yes"/>
      <point x="30.3333" y="484"/>
      <point x="44.8333" y="478"/>
      <point x="56.5" y="466" type="curve" smooth="yes"/>
      <point x="68.1667" y="454"/>
      <point x="74" y="439.333"/>
      <point x="74" y="422" type="curve" smooth="yes"/>
      <point x="74" y="405.333"/>
      <point x="68.1667" y="390.833"/>
      <point x="56.5" y="378.5" type="curve" smooth="yes"/>
      <point x="44.8333" y="366.167"/>
      <point x="30.3333" y="360"/>
      <point x="13" y="360" type="curve" smooth="yes"/>
      <point x="-3.66667" y="360"/>
      <point x="-18" y="366"/>
      <point x="-30" y="378" type="curve" smooth="yes"/>
      <point x="-42" y="390"/>
      <point x="-48" y="404.333"/>
      <point x="-48" y="421" type="curve" smooth="yes"/>
      <point x="-48" y="438.334"/>
      <point x="-41.8333" y="453.168"/>
      <point x="-29.5" y="465.5" type="curve" smooth="yes"/>
      <point x="-17.1667" y="477.833"/>
      <point x="-3" y="484"/>
    </contour>
    <contour>
      <point x="-39" y="-176" type="curve"/>
      <point x="-65" y="-144" type="line"/>
      <point x="1.66666" y="-89.3333"/>
      <point x="35" y="-43.6667"/>
      <point x="35" y="-7" type="curve" smooth="yes"/>
      <point x="35" y="-4"/>
      <point x="35" y="-4"/>
      <point x="35" y="-0.5" type="curve" smooth="yes"/>
      <point x="35" y="1.83333"/>
      <point x="34.6667" y="4.66667"/>
      <point x="34" y="8" type="curve"/>
      <point x="28" y="6"/>
      <point x="22.5" y="4.33333"/>
      <point x="17.5" y="3" type="curve" smooth="yes"/>
      <point x="12.5" y="1.66667"/>
      <point x="7.66667" y="1"/>
      <point x="3" y="1" type="curve" smooth="yes"/>
      <point x="-13" y="1"/>
      <point x="-25.6667" y="6"/>
      <point x="-35" y="16" type="curve" smooth="yes"/>
      <point x="-44.3333" y="26"/>
      <point x="-49" y="39"/>
      <point x="-49" y="55" type="curve" smooth="yes"/>
      <point x="-49" y="70.3334"/>
      <point x="-43.3333" y="83.6667"/>
      <point x="-32" y="95" type="curve" smooth="yes"/>
      <point x="-20.6667" y="106.333"/>
      <point x="-7" y="112"/>
      <point x="9" y="112" type="curve" smooth="yes"/>
      <point x="31" y="112"/>
      <point x="50" y="103.167"/>
      <point x="66" y="85.5" type="curve" smooth="yes"/>
      <point x="82" y="67.8333"/>
      <point x="90" y="45"/>
      <point x="90" y="17" type="curve" smooth="yes"/>
      <point x="90" y="-0.333334"/>
      <point x="88.1667" y="-15.8333"/>
      <point x="84.5" y="-29.5" type="curve" smooth="yes"/>
      <point x="80.8332" y="-43.1667"/>
      <point x="74.1665" y="-57.1667"/>
      <point x="64.5" y="-71.5" type="curve" smooth="yes"/>
      <point x="54.8333" y="-85.8333"/>
      <point x="41.6667" y="-101.333"/>
      <point x="25" y="-118" type="curve" smooth="yes"/>
      <point x="8.33333" y="-134.667"/>
      <point x="-13" y="-154"/>
    </contour>
  </outline>
</glyph>
<glyph name="uni003C" format="2">
  <advance width="564"/>
  <unicode hex="003C"/>
  <outline>
    <contour>
      <point x="18" y="345" type="line"/>
      <point x="543" y="572" type="line"/>
      <point x="543" y="530" type="line"/>
      <point x="91" y="333" type="line"/>
      <point x="543" y="135" type="line"/>
      <point x="543" y="91" type="line"/>
      <point x="18" y="321" type="line"/>
    </contour>
  </outline>
</glyph>
<glyph name="uni003D" format="2">
  <advance width="564"/>
  <unicode hex="003D"/>
  <outline>
    <contour>
      <point x="18" y="431" type="line"/>
      <point x="545" y="431" type="line"/>
      <point x="545" y="391" type="line"/>
      <point x="18" y="391" type="line"/>
    </contour>
    <contour>
      <point x="18" y="272" type="line"/>
      <point x="545" y="272" type="line"/>
      <point x="545" y="232" type="line"/>
      <point x="18" y="232" type="line"/>
    </contour>
  </outline>
</glyph>
<glyph name="uni003E" format="2">
  <advance width="564"/>
  <unicode hex="003E"/>
  <outline>
    <contour>
      <point x="543" y="319" type="line"/>
      <point x="18" y="91" type="line"/>
      <point x="18" y="133" type="line"/>
      <point x="471" y="330" type="line"/>
      <point x="18" y="528" type="line"/>
      <point x="18" y="572" type="line"/>
      <point x="543" y="343" type="line"/>
    </contour>
  </outline>
</glyph>
<glyph name="uni003F" format="2">
  <advance width="444"/>
  <unicode hex="003F"/>
  <outline>
    <contour>
      <point x="222" y="156" type="curve"/>
      <point x="202" y="156" type="line"/>
      <point x="202.667" y="178"/>
      <point x="204.167" y="196.667"/>
      <point x="206.5" y="212" type="curve" smooth="yes"/>
      <point x="208.833" y="227.333"/>
      <point x="212.167" y="242.5"/>
      <point x="216.5" y="257.5" type="curve" smooth="yes"/>
      <point x="220.833" y="272.5"/>
      <point x="227" y="288.667"/>
      <point x="235" y="306" type="curve" smooth="yes"/>
      <point x="243" y="323.334"/>
      <point x="253.667" y="344.667"/>
      <point x="267" y="370" type="curve" smooth="yes"/>
      <point x="277" y="389.333"/>
      <point x="285" y="405.833"/>
      <point x="291" y="419.5" type="curve" smooth="yes"/>
      <point x="297" y="433.167"/>
      <point x="301.667" y="445.167"/>
      <point x="305" y="455.5" type="curve" smooth="yes"/>
      <point x="308.333" y="465.835"/>
      <point x="310.5" y="475.668"/>
      <point x="311.5" y="485" type="curve" smooth="yes"/>
      <point x="312.5" y="494.333"/>
      <point x="313" y="504.333"/>
      <point x="313" y="515" type="curve" smooth="yes"/>
      <point x="313" y="557"/>
      <point x="302.167" y="590"/>
      <point x="280.5" y="614" type="curve" smooth="yes"/>
      <point x="258.833" y="638"/>
      <point x="232" y="650"/>
      <point x="200" y="650" type="curve" smooth="yes"/>
      <point x="171.333" y="650"/>
      <point x="148.833" y="643.333"/>
      <point x="132.5" y="630" type="curve" smooth="yes"/>
      <point x="116.167" y="616.667"/>
      <point x="108" y="602"/>
      <point x="108" y="586" type="curve" smooth="yes"/>
      <point x="108" y="580.667"/>
      <point x="109.5" y="574"/>
      <point x="112.5" y="566" type="curve" smooth="yes"/>
      <point x="115.5" y="558"/>
      <point x="119" y="550"/>
      <point x="123" y="542" type="curve" smooth="yes"/>
      <point x="127" y="534"/>
      <point x="130.5" y="526.333"/>
      <point x="133.5" y="519" type="curve" smooth="yes"/>
      <point x="136.5" y="511.667"/>
      <point x="138" y="506"/>
      <point x="138" y="502" type="curve" smooth="yes"/>
      <point x="138" y="490"/>
      <point x="134.167" y="480"/>
      <point x="126.5" y="472" type="curve" smooth="yes"/>
      <point x="118.833" y="464"/>
      <point x="109.667" y="460"/>
      <point x="99" y="460" type="curve" smooth="yes"/>
      <point x="85.6667" y="460"/>
      <point x="73.3333" y="466.833"/>
      <point x="62" y="480.5" type="curve" smooth="yes"/>
      <point x="50.6667" y="494.167"/>
      <point x="45" y="513"/>
      <point x="45" y="537" type="curve" smooth="yes"/>
      <point x="45" y="555.669"/>
      <point x="49.1667" y="573.336"/>
      <point x="57.5" y="590" type="curve" smooth="yes"/>
      <point x="65.8334" y="606.667"/>
      <point x="77.6667" y="621.5"/>
      <point x="93" y="634.5" type="curve" smooth="yes"/>
      <point x="108.333" y="647.5"/>
      <point x="126.833" y="657.833"/>
      <point x="148.5" y="665.5" type="curve" smooth="yes"/>
      <point x="170.167" y="673.167"/>
      <point x="194.334" y="677"/>
      <point x="221" y="677" type="curve" smooth="yes"/>
      <point x="249.667" y="677"/>
      <point x="275.333" y="673"/>
      <point x="298" y="665" type="curve" smooth="yes"/>
      <point x="320.667" y="657"/>
      <point x="339.833" y="646"/>
      <point x="355.5" y="632" type="curve" smooth="yes"/>
      <point x="371.167" y="618"/>
      <point x="383.167" y="601.667"/>
      <point x="391.5" y="583" type="curve" smooth="yes"/>
      <point x="399.833" y="564.333"/>
      <point x="404" y="544.333"/>
      <point x="404" y="523" type="curve" smooth="yes"/>
      <point x="404" y="499.667"/>
      <point x="398.667" y="475.333"/>
      <point x="388" y="450" type="curve" smooth="yes"/>
      <point x="377.333" y="424.667"/>
      <point x="357.333" y="395.333"/>
      <point x="328" y="362" type="curve" smooth="yes"/>
      <point x="304" y="334.667"/>
      <point x="285.167" y="312.5"/>
      <point x="271.5" y="295.5" type="curve" smooth="yes"/>
      <point x="257.833" y="278.5"/>
      <point x="247.5" y="263.167"/>
      <point x="240.5" y="249.5" type="curve" smooth="yes"/>
      <point x="233.5" y="235.833"/>
      <point x="228.833" y="222"/>
      <point x="226.5" y="208" type="curve" smooth="yes"/>
      <point x="224.167" y="194"/>
      <point x="222.667" y="176.667"/>
    </contour>
    <contour>
      <point x="215" y="96" type="curve" smooth="yes"/>
      <point x="230.333" y="96"/>
      <point x="243.333" y="90.6667"/>
      <point x="254" y="80" type="curve" smooth="yes"/>
      <point x="264.667" y="69.3333"/>
      <point x="270" y="56.3333"/>
      <point x="270" y="41" type="curve" smooth="yes"/>
      <point x="270" y="26.3333"/>
      <point x="264.5" y="13.6667"/>
      <point x="253.5" y="3" type="curve" smooth="yes"/>
      <point x="242.5" y="-7.66667"/>
      <point x="229.667" y="-13"/>
      <point x="215" y="-13" type="curve" smooth="yes"/>
      <point x="199.667" y="-13"/>
      <point x="186.833" y="-7.66667"/>
      <point x="176.5" y="3" type="curve" smooth="yes"/>
      <point x="166.167" y="13.6667"/>
      <point x="161" y="26.3333"/>
      <point x="161" y="41" type="curve" smooth="yes"/>
      <point x="161" y="56.3333"/>
      <point x="166.167" y="69.3333"/>
      <point x="176.5" y="80" type="curve" smooth="yes"/>
      <point x="186.833" y="90.6667"/>
      <point x="199.667" y="96"/>
    </contour>
  </outline>
</glyph>
<glyph name="uni0040" format="2">
  <advance width="921"/>
  <unicode hex="0040"/>
  <outline>
    <contour>
      <point x="687" y="468" type="line"/>
      <point x="630" y="273" type="line" smooth="yes"/>
      <point x="614" y="217"/>
      <point x="614" y="217"/>
      <point x="605" y="185.5" type="curve" smooth="yes"/>
      <point x="599" y="164.5"/>
      <point x="594.5" y="148"/>
      <point x="591.5" y="136" type="curve" smooth="yes"/>
      <point x="588.5" y="124"/>
      <point x="586.667" y="114.667"/>
      <point x="586" y="108" type="curve" smooth="yes"/>
      <point x="585.333" y="101.333"/>
      <point x="585" y="94.3333"/>
      <point x="585" y="87" type="curve" smooth="yes"/>
      <point x="585" y="77"/>
      <point x="588.5" y="68.3333"/>
      <point x="595.5" y="61" type="curve" smooth="yes"/>
      <point x="602.5" y="53.6667"/>
      <point x="611.333" y="50"/>
      <point x="622" y="50" type="curve" smooth="yes"/>
      <point x="637.333" y="50"/>
      <point x="656.833" y="56.6667"/>
      <point x="680.5" y="70" type="curve" smooth="yes"/>
      <point x="704.167" y="83.3333"/>
      <point x="727" y="103.333"/>
      <point x="749" y="130" type="curve" smooth="yes"/>
      <point x="771" y="156.667"/>
      <point x="789.833" y="189.833"/>
      <point x="805.5" y="229.5" type="curve" smooth="yes"/>
      <point x="821.167" y="269.167"/>
      <point x="829" y="315.667"/>
      <point x="829" y="369" type="curve" smooth="yes"/>
      <point x="829" y="414.333"/>
      <point x="820.667" y="455.5"/>
      <point x="804" y="492.5" type="curve" smooth="yes"/>
      <point x="787.333" y="529.5"/>
      <point x="764.833" y="561"/>
      <point x="736.5" y="587" type="curve" smooth="yes"/>
      <point x="708.167" y="613"/>
      <point x="674.667" y="633.167"/>
      <point x="636" y="647.5" type="curve" smooth="yes"/>
      <point x="597.333" y="661.833"/>
      <point x="556" y="669"/>
      <point x="512" y="669" type="curve" smooth="yes"/>
      <point x="459.333" y="669"/>
      <point x="407.833" y="658"/>
      <point x="357.5" y="636" type="curve" smooth="yes"/>
      <point x="307.167" y="614"/>
      <point x="262.5" y="582.667"/>
      <point x="223.5" y="542" type="curve" smooth="yes"/>
      <point x="184.5" y="501.333"/>
      <point x="153" y="452.333"/>
      <point x="129" y="395" type="curve" smooth="yes"/>
      <point x="105" y="337.667"/>
      <point x="93" y="274"/>
      <point x="93" y="204" type="curve" smooth="yes"/>
      <point x="93" y="142"/>
      <point x="103.333" y="86.6667"/>
      <point x="124" y="38" type="curve" smooth="yes"/>
      <point x="144.667" y="-10.6667"/>
      <point x="172.5" y="-51.5"/>
      <point x="207.5" y="-84.5" type="curve" smooth="yes"/>
      <point x="242.5" y="-117.5"/>
      <point x="283.167" y="-142.667"/>
      <point x="329.5" y="-160" type="curve" smooth="yes"/>
      <point x="375.834" y="-177.333"/>
      <point x="424.667" y="-186"/>
      <point x="476" y="-186" type="curve" smooth="yes"/>
      <point x="562" y="-186"/>
      <point x="639.333" y="-163.167"/>
      <point x="708" y="-117.5" type="curve" smooth="yes"/>
      <point x="776.667" y="-71.8333"/>
      <point x="830" y="-4.66666"/>
      <point x="868" y="84" type="curve"/>
      <point x="896" y="84" type="line"/>
      <point x="881.333" y="39.3333"/>
      <point x="860.333" y="-1.33333"/>
      <point x="833" y="-38" type="curve" smooth="yes"/>
      <point x="805.667" y="-74.6667"/>
      <point x="773.5" y="-106.167"/>
      <point x="736.5" y="-132.5" type="curve" smooth="yes"/>
      <point x="699.5" y="-158.833"/>
      <point x="658.5" y="-179.333"/>
      <point x="613.5" y="-194" type="curve" smooth="yes"/>
      <point x="568.5" y="-208.667"/>
      <point x="521.667" y="-216"/>
      <point x="473" y="-216" type="curve" smooth="yes"/>
      <point x="416.333" y="-216"/>
      <point x="362.166" y="-205.833"/>
      <point x="310.5" y="-185.5" type="curve" smooth="yes"/>
      <point x="258.833" y="-165.167"/>
      <point x="213.5" y="-136.167"/>
      <point x="174.5" y="-98.5" type="curve" smooth="yes"/>
      <point x="135.5" y="-60.8333"/>
      <point x="104.5" y="-15.3333"/>
      <point x="81.5" y="38" type="curve" smooth="yes"/>
      <point x="58.5" y="91.3333"/>
      <point x="47" y="151"/>
      <point x="47" y="217" type="curve" smooth="yes"/>
      <point x="47" y="281.667"/>
      <point x="58.6667" y="342.833"/>
      <point x="82" y="400.5" type="curve" smooth="yes"/>
      <point x="105.333" y="458.167"/>
      <point x="137.5" y="508.667"/>
      <point x="178.5" y="552" type="curve" smooth="yes"/>
      <point x="219.5" y="595.333"/>
      <point x="268.333" y="629.833"/>
      <point x="325" y="655.5" type="curve" smooth="yes"/>
      <point x="381.667" y="681.167"/>
      <point x="443" y="694"/>
      <point x="509" y="694" type="curve" smooth="yes"/>
      <point x="558.333" y="694"/>
      <point x="604.167" y="686.167"/>
      <point x="646.5" y="670.5" type="curve" smooth="yes"/>
      <point x="688.833" y="654.833"/>
      <point x="725.667" y="632.5"/>
      <point x="757" y="603.5" type="curve" smooth="yes"/>
      <point x="788.333" y="574.5"/>
      <point x="813" y="539.333"/>
      <point x="831" y="498" type="curve" smooth="yes"/>
      <point x="849" y="456.667"/>
      <point x="858" y="410.667"/>
      <point x="858" y="360" type="curve" smooth="yes"/>
      <point x="858" y="300"/>
      <point x="844.667" y="241"/>
      <point x="818" y="183" type="curve" smooth="yes"/>
      <point x="791.333" y="124.333"/>
      <point x="757.5" y="81.6667"/>
      <point x="716.5" y="55" type="curve" smooth="yes"/>
      <point x="675.5" y="28.3333"/>
      <point x="632.667" y="15"/>
      <point x="588" y="15" type="curve" smooth="yes"/>
      <point x="538.667" y="15"/>
      <point x="514" y="37.3333"/>
      <point x="514" y="82" type="curve" smooth="yes"/>
      <point x="514" y="91.3333"/>
      <point x="514.667" y="101.833"/>
      <point x="516" y="113.5" type="curve" smooth="yes"/>
      <point x="517.333" y="125.167"/>
      <point x="519.333" y="138.667"/>
      <point x="522" y="154" type="curve"/>
      <point x="498" y="124"/>
      <point x="476.5" y="99.8333"/>
      <point x="457.5" y="81.5" type="curve" smooth="yes"/>
      <point x="438.5" y="63.1667"/>
      <point x="421.333" y="49.1667"/>
      <point x="406" y="39.5" type="curve" smooth="yes"/>
      <point x="390.667" y="29.8333"/>
      <point x="376.833" y="23.3333"/>
      <point x="364.5" y="20" type="curve" smooth="yes"/>
      <point x="352.167" y="16.6667"/>
      <point x="340.667" y="15"/>
      <point x="330" y="15" type="curve" smooth="yes"/>
      <point x="318" y="15"/>
      <point x="306.667" y="17.6667"/>
      <point x="296" y="23" type="curve" smooth="yes"/>
      <point x="285.333" y="28.3333"/>
      <point x="276" y="36"/>
      <point x="268" y="46" type="curve" smooth="yes"/>
      <point x="260" y="56"/>
      <point x="253.667" y="67.8333"/>
      <point x="249" y="81.5" type="curve" smooth="yes"/>
      <point x="244.333" y="95.1667"/>
      <point x="242" y="110.667"/>
      <point x="242" y="128" type="curve" smooth="yes"/>
      <point x="242" y="146.667"/>
      <point x="245.5" y="168.167"/>
      <point x="252.5" y="192.5" type="curve" smooth="yes"/>
      <point x="259.5" y="216.833"/>
      <point x="269" y="241.833"/>
      <point x="281" y="267.5" type="curve" smooth="yes"/>
      <point x="293" y="293.167"/>
      <point x="307.5" y="318.167"/>
      <point x="324.5" y="342.5" type="curve" smooth="yes"/>
      <point x="341.5" y="366.833"/>
      <point x="359.833" y="388.5"/>
      <point x="379.5" y="407.5" type="curve" smooth="yes"/>
      <point x="399.167" y="426.5"/>
      <point x="420.167" y="441.833"/>
      <point x="442.5" y="453.5" type="curve" smooth="yes"/>
      <point x="464.834" y="465.167"/>
      <point x="487.668" y="471"/>
      <point x="511" y="471" type="curve" smooth="yes"/>
      <point x="555.667" y="471"/>
      <point x="583.667" y="448.333"/>
      <point x="595" y="403" type="curve"/>
      <point x="611" y="457" type="line"/>
    </contour>
    <contour>
      <point x="516" y="448" type="curve" smooth="yes"/>
      <point x="500.667" y="448"/>
      <point x="485.333" y="443"/>
      <point x="470" y="433" type="curve" smooth="yes"/>
      <point x="454.667" y="423"/>
      <point x="439.667" y="409.167"/>
      <point x="425" y="391.5" type="curve" smooth="yes"/>
      <point x="410.333" y="373.833"/>
      <point x="396.5" y="353.333"/>
      <point x="383.5" y="330" type="curve" smooth="yes"/>
      <point x="370.5" y="306.667"/>
      <point x="358.667" y="282"/>
      <point x="348" y="256" type="curve" smooth="yes"/>
      <point x="328.667" y="208"/>
      <point x="319" y="170.333"/>
      <point x="319" y="143" type="curve" smooth="yes"/>
      <point x="319" y="122.333"/>
      <point x="324.833" y="105.667"/>
      <point x="336.5" y="93" type="curve" smooth="yes"/>
      <point x="348.167" y="80.3333"/>
      <point x="361" y="74"/>
      <point x="375" y="74" type="curve" smooth="yes"/>
      <point x="394.334" y="74"/>
      <point x="415.667" y="82.8333"/>
      <point x="439" y="100.5" type="curve" smooth="yes"/>
      <point x="462.333" y="118.167"/>
      <point x="484.333" y="141.333"/>
      <point x="505" y="170" type="curve" smooth="yes"/>
      <point x="525.669" y="198.667"/>
      <point x="542.835" y="231.167"/>
      <point x="556.5" y="267.5" type="curve" smooth="yes"/>
      <point x="570.167" y="303.833"/>
      <point x="577" y="340.333"/>
      <point x="577" y="377" type="curve" smooth="yes"/>
      <point x="577" y="399"/>
      <point x="571.167" y="416.333"/>
      <point x="559.5" y="429" type="curve" smooth="yes"/>
      <point x="547.833" y="441.667"/>
      <point x="533.333" y="448"/>
    </contour>
  </outline>
</glyph>
<glyph name="uni0041" format="2">
  <advance width="722"/>
  <unicode hex="0041"/>
  <outline>
    <contour>
      <point x="458" y="222" type="line"/>
      <point x="201" y="222" type="line"/>
      <point x="156" y="117" type="line" smooth="yes"/>
      <point x="145.333" y="93"/>
      <point x="140" y="74"/>
      <point x="140" y="60" type="curve" smooth="yes"/>
      <point x="140" y="49.3333"/>
      <point x="144.667" y="40.1667"/>
      <point x="154" y="32.5" type="curve" smooth="yes"/>
      <point x="163.333" y="24.8333"/>
      <point x="184" y="20"/>
      <point x="216" y="18" type="curve"/>
      <point x="216" y="0" type="line"/>
      <point x="8" y="0" type="line"/>
      <point x="8" y="18" type="line"/>
      <point x="24.6667" y="20.6667"/>
      <point x="38" y="24.5"/>
      <point x="48" y="29.5" type="curve" smooth="yes"/>
      <point x="58" y="34.5"/>
      <point x="66.6667" y="41.1667"/>
      <point x="74" y="49.5" type="curve" smooth="yes"/>
      <point x="81.3333" y="57.8333"/>
      <point x="88" y="68.6667"/>
      <point x="94" y="82" type="curve" smooth="yes"/>
      <point x="100" y="95.3333"/>
      <point x="107.667" y="112"/>
      <point x="117" y="132" type="curve"/>
      <point x="350" y="677" type="line"/>
      <point x="367" y="677" type="line"/>
      <point x="597" y="126" type="line" smooth="yes"/>
      <point x="607" y="103.333"/>
      <point x="615.833" y="85.1666"/>
      <point x="623.5" y="71.5" type="curve" smooth="yes"/>
      <point x="631.167" y="57.8333"/>
      <point x="639.167" y="47.1667"/>
      <point x="647.5" y="39.5" type="curve" smooth="yes"/>
      <point x="655.833" y="31.8333"/>
      <point x="665" y="26.5"/>
      <point x="675" y="23.5" type="curve" smooth="yes"/>
      <point x="685" y="20.5"/>
      <point x="697" y="18.6667"/>
      <point x="711" y="18" type="curve"/>
      <point x="711" y="0" type="line"/>
      <point x="450" y="0" type="line"/>
      <point x="450" y="18" type="line"/>
      <point x="476" y="19.3333"/>
      <point x="493.667" y="23.6667"/>
      <point x="503" y="31" type="curve" smooth="yes"/>
      <point x="512.333" y="38.3333"/>
      <point x="517" y="47.6667"/>
      <point x="517" y="59" type="curve" smooth="yes"/>
      <point x="517" y="73.6667"/>
      <point x="510.667" y="96"/>
      <point x="498" y="126" type="curve" smooth="yes"/>
    </contour>
    <contour>
      <point x="444" y="258" type="line"/>
      <point x="332" y="525" type="line"/>
      <point x="216" y="258" type="line"/>
    </contour>
  </outline>
</glyph>
<glyph name="uni0042" format="2">
  <advance width="667"/>
  <unicode hex="0042"/>
  <outline>
    <contour>
      <point x="462" y="338" type="curve"/>
      <point x="516" y="326"/>
      <point x="554.5" y="306"/>
      <point x="577.5" y="278" type="curve" smooth="yes"/>
      <point x="600.5" y="250"/>
      <point x="612" y="217.667"/>
      <point x="612" y="181" type="curve" smooth="yes"/>
      <point x="612" y="148.333"/>
      <point x="601.667" y="117"/>
      <point x="581" y="87" type="curve" smooth="yes"/>
      <point x="560.333" y="57"/>
      <point x="531.667" y="35"/>
      <point x="495" y="21" type="curve" smooth="yes"/>
      <point x="459" y="7"/>
      <point x="403.667" y="0"/>
      <point x="329" y="0" type="curve" smooth="yes"/>
      <point x="17" y="0" type="line"/>
      <point x="17" y="18" type="line"/>
      <point x="42" y="18" type="line" smooth="yes"/>
      <point x="54" y="18"/>
      <point x="64.3333" y="19.1667"/>
      <point x="73" y="21.5" type="curve" smooth="yes"/>
      <point x="81.6667" y="23.8333"/>
      <point x="88.8333" y="28.5"/>
      <point x="94.5" y="35.5" type="curve" smooth="yes"/>
      <point x="100.167" y="42.5"/>
      <point x="104.5" y="52.5"/>
      <point x="107.5" y="65.5" type="curve" smooth="yes"/>
      <point x="110.5" y="78.5"/>
      <point x="112" y="95.6667"/>
      <point x="112" y="117" type="curve" smooth="yes"/>
      <point x="112" y="545" type="line" smooth="yes"/>
      <point x="112" y="567.667"/>
      <point x="110.333" y="585.667"/>
      <point x="107" y="599" type="curve" smooth="yes"/>
      <point x="103.667" y="612.333"/>
      <point x="99" y="622.333"/>
      <point x="93" y="629" type="curve" smooth="yes"/>
      <point x="87" y="635.676"/>
      <point x="79.6667" y="639.843"/>
      <point x="71" y="641.5" type="curve" smooth="yes"/>
      <point x="62.3333" y="643.167"/>
      <point x="52.6667" y="644"/>
      <point x="42" y="644" type="curve" smooth="yes"/>
      <point x="17" y="644" type="line"/>
      <point x="17" y="662" type="line"/>
      <point x="303" y="662" type="line" smooth="yes"/>
      <point x="394.334" y="662"/>
      <point x="463.667" y="646.667"/>
      <point x="511" y="616" type="curve" smooth="yes"/>
      <point x="558.333" y="585.333"/>
      <point x="582" y="541.667"/>
      <point x="582" y="485" type="curve" smooth="yes"/>
      <point x="582" y="452.333"/>
      <point x="572" y="422.833"/>
      <point x="552" y="396.5" type="curve" smooth="yes"/>
      <point x="532" y="370.167"/>
      <point x="502" y="350.667"/>
    </contour>
    <contour>
      <point x="206" y="364" type="line"/>
      <point x="218" y="362"/>
      <point x="231.833" y="360.333"/>
      <point x="247.5" y="359" type="curve" smooth="yes"/>
      <point x="263.167" y="357.667"/>
      <point x="280" y="357"/>
      <point x="298" y="357" type="curve" smooth="yes"/>
      <point x="364" y="357"/>
      <point x="410.667" y="368.833"/>
      <point x="438" y="392.5" type="curve" smooth="yes"/>
      <point x="465.333" y="416.167"/>
      <point x="479" y="448.333"/>
      <point x="479" y="489" type="curve" smooth="yes"/>
      <point x="479" y="508.333"/>
      <point x="475" y="526.5"/>
      <point x="467" y="543.5" type="curve" smooth="yes"/>
      <point x="459" y="560.5"/>
      <point x="447.333" y="575.333"/>
      <point x="432" y="588" type="curve" smooth="yes"/>
      <point x="416.667" y="600.667"/>
      <point x="397.333" y="610.667"/>
      <point x="374" y="618" type="curve" smooth="yes"/>
      <point x="350.667" y="625.333"/>
      <point x="324" y="629"/>
      <point x="294" y="629" type="curve" smooth="yes"/>
      <point x="260" y="629"/>
      <point x="230.667" y="625.667"/>
      <point x="206" y="619" type="curve"/>
    </contour>
    <contour>
      <point x="206" y="48" type="line"/>
      <point x="242.667" y="39.3333"/>
      <point x="280" y="35"/>
      <point x="318" y="35" type="curve" smooth="yes"/>
      <point x="378" y="35"/>
      <point x="423.167" y="48.3333"/>
      <point x="453.5" y="75" type="curve" smooth="yes"/>
      <point x="483.833" y="101.667"/>
      <point x="499" y="135.333"/>
      <point x="499" y="176" type="curve" smooth="yes"/>
      <point x="499" y="194.667"/>
      <point x="495" y="212.834"/>
      <point x="487" y="230.5" type="curve" smooth="yes"/>
      <point x="479" y="248.167"/>
      <point x="466.833" y="264"/>
      <point x="450.5" y="278" type="curve" smooth="yes"/>
      <point x="434.167" y="292"/>
      <point x="413.667" y="303.167"/>
      <point x="389" y="311.5" type="curve" smooth="yes"/>
      <point x="364.333" y="319.833"/>
      <point x="335.333" y="324"/>
      <point x="302" y="324" type="curve" smooth="yes"/>
      <point x="279.333" y="324"/>
      <point x="260" y="323.667"/>
      <point x="244" y="323" type="curve" smooth="yes"/>
      <point x="228" y="322.333"/>
      <point x="215.333" y="321"/>
      <point x="206" y="319" type="curve"/>
    </contour>
  </outline>
</glyph>
<glyph name="uni0043" format="2">
  <advance width="667"/>
  <unicode hex="0043"/>
  <outline>
    <contour>
      <point x="602" y="677" type="line"/>
      <point x="617" y="452" type="line"/>
      <point x="602" y="452" type="line"/>
      <point x="582" y="520"/>
      <point x="553.167" y="568.667"/>
      <point x="515.5" y="598" type="curve" smooth="yes"/>
      <point x="477.833" y="627.333"/>
      <point x="433" y="642"/>
      <point x="381" y="642" type="curve" smooth="yes"/>
      <point x="346.333" y="642"/>
      <point x="314.666" y="635.5"/>
      <point x="286" y="622.5" type="curve" smooth="yes"/>
      <point x="257.333" y="609.5"/>
      <point x="232.667" y="589.333"/>
      <point x="212" y="562" type="curve" smooth="yes"/>
      <point x="191.333" y="534.667"/>
      <point x="175.333" y="500.167"/>
      <point x="164" y="458.5" type="curve" smooth="yes"/>
      <point x="152.667" y="416.833"/>
      <point x="147" y="367.333"/>
      <point x="147" y="310" type="curve" smooth="yes"/>
      <point x="147" y="266"/>
      <point x="153" y="226.5"/>
      <point x="165" y="191.5" type="curve" smooth="yes"/>
      <point x="177" y="156.5"/>
      <point x="194" y="127"/>
      <point x="216" y="103" type="curve" smooth="yes"/>
      <point x="238" y="79"/>
      <point x="264.167" y="60.5"/>
      <point x="294.5" y="47.5" type="curve" smooth="yes"/>
      <point x="324.833" y="34.5"/>
      <point x="358.333" y="28"/>
      <point x="395" y="28" type="curve" smooth="yes"/>
      <point x="416.333" y="28"/>
      <point x="436.333" y="30"/>
      <point x="455" y="34" type="curve" smooth="yes"/>
      <point x="473.667" y="38"/>
      <point x="491.667" y="45.1667"/>
      <point x="509" y="55.5" type="curve" smooth="yes"/>
      <point x="526.333" y="65.8333"/>
      <point x="543.833" y="79.8333"/>
      <point x="561.5" y="97.5" type="curve" smooth="yes"/>
      <point x="579.167" y="115.167"/>
      <point x="597.667" y="137.667"/>
      <point x="617" y="165" type="curve"/>
      <point x="632" y="155" type="line"/>
      <point x="599.333" y="96.3333"/>
      <point x="561" y="53.3333"/>
      <point x="517" y="26" type="curve" smooth="yes"/>
      <point x="473" y="-1.33333"/>
      <point x="420" y="-15"/>
      <point x="358" y="-15" type="curve" smooth="yes"/>
      <point x="310" y="-15"/>
      <point x="266.167" y="-6.33333"/>
      <point x="226.5" y="11" type="curve" smooth="yes"/>
      <point x="186.833" y="28.3333"/>
      <point x="152.833" y="52.3333"/>
      <point x="124.5" y="83" type="curve" smooth="yes"/>
      <point x="96.1667" y="113.667"/>
      <point x="74.3333" y="150"/>
      <point x="59" y="192" type="curve" smooth="yes"/>
      <point x="43.6667" y="234"/>
      <point x="36" y="280"/>
      <point x="36" y="330" type="curve" smooth="yes"/>
      <point x="36" y="378"/>
      <point x="44.6667" y="423"/>
      <point x="62" y="465" type="curve" smooth="yes"/>
      <point x="79.3333" y="507"/>
      <point x="103" y="543.667"/>
      <point x="133" y="575" type="curve" smooth="yes"/>
      <point x="163" y="606.333"/>
      <point x="197.833" y="631.167"/>
      <point x="237.5" y="649.5" type="curve" smooth="yes"/>
      <point x="277.167" y="667.833"/>
      <point x="319" y="677"/>
      <point x="363" y="677" type="curve" smooth="yes"/>
      <point x="389" y="677"/>
      <point x="414.5" y="674.333"/>
      <point x="439.5" y="669" type="curve" smooth="yes"/>
      <point x="464.5" y="663.667"/>
      <point x="489.667" y="654.667"/>
      <point x="515" y="642" type="curve" smooth="yes"/>
      <point x="528.333" y="634.667"/>
      <point x="538" y="631"/>
      <point x="544" y="631" type="curve" smooth="yes"/>
      <point x="554" y="631"/>
      <point x="562.667" y="635.5"/>
      <point x="570" y="644.5" type="curve" smooth="yes"/>
      <point x="577.333" y="653.5"/>
      <point x="582.333" y="664.333"/>
      <point x="585" y="677" type="curve"/>
    </contour>
  </outline>
</glyph>
<glyph name="uni0044" format="2">
  <advance width="722"/>
  <unicode hex="0044"/>
  <outline>
    <contour>
      <point x="17" y="0" type="line"/>
      <point x="17" y="18" type="line"/>
      <point x="42" y="18" type="line" smooth="yes"/>
      <point x="54" y="18"/>
      <point x="64.3333" y="19"/>
      <point x="73" y="21" type="curve" smooth="yes"/>
      <point x="81.6667" y="23"/>
      <point x="88.8333" y="27.5"/>
      <point x="94.5" y="34.5" type="curve" smooth="yes"/>
      <point x="100.167" y="41.5"/>
      <point x="104.5" y="51.5"/>
      <point x="107.5" y="64.5" type="curve" smooth="yes"/>
      <point x="110.5" y="77.5"/>
      <point x="112" y="95"/>
      <point x="112" y="117" type="curve" smooth="yes"/>
      <point x="112" y="545" type="line" smooth="yes"/>
      <point x="112" y="568.333"/>
      <point x="110.333" y="586.667"/>
      <point x="107" y="600" type="curve" smooth="yes"/>
      <point x="103.667" y="613.333"/>
      <point x="99" y="623.167"/>
      <point x="93" y="629.5" type="curve" smooth="yes"/>
      <point x="87" y="635.833"/>
      <point x="79.6667" y="639.833"/>
      <point x="71" y="641.5" type="curve" smooth="yes"/>
      <point x="62.3333" y="643.167"/>
      <point x="52.6667" y="644"/>
      <point x="42" y="644" type="curve" smooth="yes"/>
      <point x="17" y="644" type="line"/>
      <point x="17" y="662" type="line"/>
      <point x="287" y="662" type="line" smooth="yes"/>
      <point x="337" y="662"/>
      <point x="380.5" y="659.333"/>
      <point x="417.5" y="654" type="curve" smooth="yes"/>
      <point x="454.5" y="648.667"/>
      <point x="486.667" y="640.167"/>
      <point x="514" y="628.5" type="curve" smooth="yes"/>
      <point x="541.333" y="616.833"/>
      <point x="564.833" y="601.667"/>
      <point x="584.5" y="583" type="curve" smooth="yes"/>
      <point x="604.167" y="564.333"/>
      <point x="621.667" y="542"/>
      <point x="637" y="516" type="curve" smooth="yes"/>
      <point x="668.333" y="462.667"/>
      <point x="684" y="402"/>
      <point x="684" y="334" type="curve" smooth="yes"/>
      <point x="684" y="284.667"/>
      <point x="676" y="239.667"/>
      <point x="660" y="199" type="curve" smooth="yes"/>
      <point x="644" y="158.333"/>
      <point x="620.5" y="123.167"/>
      <point x="589.5" y="93.5" type="curve" smooth="yes"/>
      <point x="558.5" y="63.8333"/>
      <point x="519.833" y="40.8333"/>
      <point x="473.5" y="24.5" type="curve" smooth="yes"/>
      <point x="427.167" y="8.16667"/>
      <point x="373.667" y="0"/>
      <point x="313" y="0" type="curve" smooth="yes"/>
    </contour>
    <contour>
      <point x="206" y="48" type="line"/>
      <point x="248.667" y="38.6667"/>
      <point x="283.333" y="34"/>
      <point x="310" y="34" type="curve" smooth="yes"/>
      <point x="347.333" y="34"/>
      <point x="382" y="40.8333"/>
      <point x="414" y="54.5" type="curve" smooth="yes"/>
      <point x="446" y="68.1667"/>
      <point x="473.833" y="87.8333"/>
      <point x="497.5" y="113.5" type="curve" smooth="yes"/>
      <point x="521.167" y="139.167"/>
      <point x="539.667" y="170.167"/>
      <point x="553" y="206.5" type="curve" smooth="yes"/>
      <point x="566.333" y="242.833"/>
      <point x="573" y="284"/>
      <point x="573" y="330" type="curve" smooth="yes"/>
      <point x="573" y="375.334"/>
      <point x="566.333" y="416.167"/>
      <point x="553" y="452.5" type="curve" smooth="yes"/>
      <point x="539.667" y="488.834"/>
      <point x="521.167" y="519.834"/>
      <point x="497.5" y="545.5" type="curve" smooth="yes"/>
      <point x="473.833" y="571.169"/>
      <point x="445.666" y="590.836"/>
      <point x="413" y="604.5" type="curve" smooth="yes"/>
      <point x="380.333" y="618.167"/>
      <point x="344.666" y="625"/>
      <point x="306" y="625" type="curve" smooth="yes"/>
      <point x="278" y="625"/>
      <point x="244.667" y="620.333"/>
      <point x="206" y="611" type="curve"/>
    </contour>
  </outline>
</glyph>
<glyph name="uni0045" format="2">
  <advance width="611"/>
  <unicode hex="0045"/>
  <outline>
    <contour>
      <point x="209" y="626" type="line"/>
      <point x="209" y="364" type="line"/>
      <point x="354" y="364" type="line" smooth="yes"/>
      <point x="375.333" y="364"/>
      <point x="392.667" y="365.833"/>
      <point x="406" y="369.5" type="curve" smooth="yes"/>
      <point x="419.334" y="373.167"/>
      <point x="429.667" y="379"/>
      <point x="437" y="387" type="curve" smooth="yes"/>
      <point x="444.333" y="395"/>
      <point x="449.5" y="405"/>
      <point x="452.5" y="417" type="curve" smooth="yes"/>
      <point x="455.5" y="429"/>
      <point x="457.333" y="443.333"/>
      <point x="458" y="460" type="curve"/>
      <point x="477" y="460" type="line"/>
      <point x="477" y="230" type="line"/>
      <point x="458" y="230" type="line"/>
      <point x="455.333" y="249.333"/>
      <point x="452.5" y="265.333"/>
      <point x="449.5" y="278" type="curve" smooth="yes"/>
      <point x="446.5" y="290.667"/>
      <point x="441.5" y="300.833"/>
      <point x="434.5" y="308.5" type="curve" smooth="yes"/>
      <point x="427.5" y="316.167"/>
      <point x="417.667" y="321.5"/>
      <point x="405" y="324.5" type="curve" smooth="yes"/>
      <point x="392.333" y="327.5"/>
      <point x="375.333" y="329"/>
      <point x="354" y="329" type="curve" smooth="yes"/>
      <point x="209" y="329" type="line"/>
      <point x="209" y="110" type="line" smooth="yes"/>
      <point x="209" y="94"/>
      <point x="209.167" y="81.1667"/>
      <point x="209.5" y="71.5" type="curve" smooth="yes"/>
      <point x="209.833" y="61.8333"/>
      <point x="211.667" y="54.3333"/>
      <point x="215" y="49" type="curve" smooth="yes"/>
      <point x="218.333" y="43.6667"/>
      <point x="223.833" y="40.1667"/>
      <point x="231.5" y="38.5" type="curve" smooth="yes"/>
      <point x="239.167" y="36.8333"/>
      <point x="250" y="36"/>
      <point x="264" y="36" type="curve" smooth="yes"/>
      <point x="376" y="36" type="line" smooth="yes"/>
      <point x="404.667" y="36"/>
      <point x="428.667" y="38.3333"/>
      <point x="448" y="43" type="curve" smooth="yes"/>
      <point x="467.333" y="47.6667"/>
      <point x="483.833" y="55"/>
      <point x="497.5" y="65" type="curve" smooth="yes"/>
      <point x="511.167" y="75"/>
      <point x="523.333" y="88.3333"/>
      <point x="534" y="105" type="curve" smooth="yes"/>
      <point x="544.667" y="121.667"/>
      <point x="556" y="142"/>
      <point x="568" y="166" type="curve"/>
      <point x="588" y="166" type="line"/>
      <point x="531" y="0" type="line"/>
      <point x="21" y="0" type="line"/>
      <point x="21" y="18" type="line"/>
      <point x="44" y="18" type="line" smooth="yes"/>
      <point x="56.6667" y="18"/>
      <point x="67.5" y="19.1667"/>
      <point x="76.5" y="21.5" type="curve" smooth="yes"/>
      <point x="85.5" y="23.8333"/>
      <point x="92.8333" y="28.6667"/>
      <point x="98.5" y="36" type="curve" smooth="yes"/>
      <point x="104.167" y="43.3333"/>
      <point x="108.333" y="53.3333"/>
      <point x="111" y="66" type="curve" smooth="yes"/>
      <point x="113.667" y="78.6667"/>
      <point x="115" y="95.6667"/>
      <point x="115" y="117" type="curve" smooth="yes"/>
      <point x="115" y="547" type="line" smooth="yes"/>
      <point x="115" y="571"/>
      <point x="113.5" y="589.5"/>
      <point x="110.5" y="602.5" type="curve" smooth="yes"/>
      <point x="107.5" y="615.5"/>
      <point x="103.167" y="625.167"/>
      <point x="97.5" y="631.5" type="curve" smooth="yes"/>
      <point x="91.8333" y="637.833"/>
      <point x="84.5" y="641.5"/>
      <point x="75.5" y="642.5" type="curve" smooth="yes"/>
      <point x="66.5" y="643.5"/>
      <point x="56" y="644"/>
      <point x="44" y="644" type="curve" smooth="yes"/>
      <point x="21" y="644" type="line"/>
      <point x="21" y="662" type="line"/>
      <point x="531" y="662" type="line"/>
      <point x="531" y="517" type="line"/>
      <point x="519" y="517" type="line"/>
      <point x="514.333" y="541"/>
      <point x="509.333" y="560.167"/>
      <point x="504" y="574.5" type="curve" smooth="yes"/>
      <point x="498.667" y="588.833"/>
      <point x="491.5" y="599.833"/>
      <point x="482.5" y="607.5" type="curve" smooth="yes"/>
      <point x="473.5" y="615.167"/>
      <point x="461.667" y="620.167"/>
      <point x="447" y="622.5" type="curve" smooth="yes"/>
      <point x="432.333" y="624.833"/>
      <point x="413.666" y="626"/>
      <point x="391" y="626" type="curve" smooth="yes"/>
    </contour>
  </outline>
</glyph>
<glyph name="uni0046" format="2">
  <advance width="556"/>
  <unicode hex="0046"/>
  <outline>
    <contour>
      <point x="205" y="626" type="line"/>
      <point x="205" y="366" type="line"/>
      <point x="325" y="366" type="line" smooth="yes"/>
      <point x="339" y="366"/>
      <point x="351" y="367.333"/>
      <point x="361" y="370" type="curve" smooth="yes"/>
      <point x="371" y="372.667"/>
      <point x="379.333" y="377.333"/>
      <point x="386" y="384" type="curve" smooth="yes"/>
      <point x="392.667" y="390.667"/>
      <point x="398.167" y="400"/>
      <point x="402.5" y="412" type="curve" smooth="yes"/>
      <point x="406.833" y="424"/>
      <point x="410" y="439"/>
      <point x="412" y="457" type="curve"/>
      <point x="430" y="457" type="line"/>
      <point x="430" y="232" type="line"/>
      <point x="412" y="232" type="line"/>
      <point x="410.667" y="250.667"/>
      <point x="408.333" y="266"/>
      <point x="405" y="278" type="curve" smooth="yes"/>
      <point x="401.667" y="290"/>
      <point x="396.833" y="299.167"/>
      <point x="390.5" y="305.5" type="curve" smooth="yes"/>
      <point x="384.167" y="311.833"/>
      <point x="375.667" y="316.333"/>
      <point x="365" y="319" type="curve" smooth="yes"/>
      <point x="354.333" y="321.667"/>
      <point x="341" y="323.667"/>
      <point x="325" y="325" type="curve"/>
      <point x="205" y="325" type="line"/>
      <point x="205" y="117" type="line" smooth="yes"/>
      <point x="205" y="102.333"/>
      <point x="205.167" y="90.1667"/>
      <point x="205.5" y="80.5" type="curve" smooth="yes"/>
      <point x="205.833" y="70.8333"/>
      <point x="207" y="62.8333"/>
      <point x="209" y="56.5" type="curve" smooth="yes"/>
      <point x="211" y="50.1667"/>
      <point x="213.667" y="45"/>
      <point x="217" y="41" type="curve" smooth="yes"/>
      <point x="220.333" y="37"/>
      <point x="225" y="33.3333"/>
      <point x="231" y="30" type="curve" smooth="yes"/>
      <point x="245.667" y="22"/>
      <point x="260.667" y="18"/>
      <point x="276" y="18" type="curve" smooth="yes"/>
      <point x="300" y="18" type="line"/>
      <point x="300" y="0" type="line"/>
      <point x="16" y="0" type="line"/>
      <point x="16" y="18" type="line"/>
      <point x="40" y="18" type="line" smooth="yes"/>
      <point x="51.3333" y="18"/>
      <point x="61.5" y="19"/>
      <point x="70.5" y="21" type="curve" smooth="yes"/>
      <point x="79.5" y="23"/>
      <point x="87" y="27.3333"/>
      <point x="93" y="34" type="curve" smooth="yes"/>
      <point x="99" y="40.6667"/>
      <point x="103.5" y="50.5"/>
      <point x="106.5" y="63.5" type="curve" smooth="yes"/>
      <point x="109.5" y="76.5"/>
      <point x="111" y="94.3333"/>
      <point x="111" y="117" type="curve" smooth="yes"/>
      <point x="111" y="545" type="line" smooth="yes"/>
      <point x="111" y="560.333"/>
      <point x="110.667" y="573"/>
      <point x="110" y="583" type="curve" smooth="yes"/>
      <point x="109.333" y="593"/>
      <point x="108" y="601.167"/>
      <point x="106" y="607.5" type="curve" smooth="yes"/>
      <point x="104" y="613.833"/>
      <point x="101.167" y="618.833"/>
      <point x="97.5" y="622.5" type="curve" smooth="yes"/>
      <point x="93.8333" y="626.171"/>
      <point x="89.3333" y="629.338"/>
      <point x="84" y="632" type="curve" smooth="yes"/>
      <point x="76.6667" y="635.333"/>
      <point x="69.3333" y="638.167"/>
      <point x="62" y="640.5" type="curve" smooth="yes"/>
      <point x="54.6666" y="642.833"/>
      <point x="47.3333" y="644"/>
      <point x="40" y="644" type="curve" smooth="yes"/>
      <point x="16" y="644" type="line"/>
      <point x="16" y="662" type="line"/>
      <point x="509" y="662" type="line"/>
      <point x="509" y="517" type="line"/>
      <point x="498" y="517" type="line"/>
      <point x="490" y="539.669"/>
      <point x="482.667" y="557.835"/>
      <point x="476" y="571.5" type="curve" smooth="yes"/>
      <point x="469.333" y="585.171"/>
      <point x="461" y="595.838"/>
      <point x="451" y="603.5" type="curve" smooth="yes"/>
      <point x="441" y="611.167"/>
      <point x="428.167" y="616.5"/>
      <point x="412.5" y="619.5" type="curve" smooth="yes"/>
      <point x="396.833" y="622.5"/>
      <point x="376.333" y="624.667"/>
      <point x="351" y="626" type="curve"/>
    </contour>
  </outline>
</glyph>
<glyph name="uni0047" format="2">
  <advance width="722"/>
  <unicode hex="0047"/>
  <outline>
    <contour>
      <point x="614" y="677" type="line"/>
      <point x="631" y="468" type="line"/>
      <point x="614" y="468" type="line"/>
      <point x="594" y="530"/>
      <point x="565.833" y="574.667"/>
      <point x="529.5" y="602" type="curve" smooth="yes"/>
      <point x="493.167" y="629.333"/>
      <point x="448.333" y="643"/>
      <point x="395" y="643" type="curve" smooth="yes"/>
      <point x="355.667" y="643"/>
      <point x="320.667" y="635.167"/>
      <point x="290" y="619.5" type="curve" smooth="yes"/>
      <point x="259.333" y="603.833"/>
      <point x="233.5" y="582.5"/>
      <point x="212.5" y="555.5" type="curve" smooth="yes"/>
      <point x="191.5" y="528.5"/>
      <point x="175.333" y="496.667"/>
      <point x="164" y="460" type="curve" smooth="yes"/>
      <point x="152.667" y="423.333"/>
      <point x="147" y="384"/>
      <point x="147" y="342" type="curve" smooth="yes"/>
      <point x="147" y="288.667"/>
      <point x="154.667" y="241.667"/>
      <point x="170" y="201" type="curve" smooth="yes"/>
      <point x="185.333" y="160.333"/>
      <point x="205.167" y="126.5"/>
      <point x="229.5" y="99.5" type="curve" smooth="yes"/>
      <point x="253.833" y="72.5"/>
      <point x="281.167" y="52.1667"/>
      <point x="311.5" y="38.5" type="curve" smooth="yes"/>
      <point x="341.833" y="24.8333"/>
      <point x="372" y="18"/>
      <point x="402" y="18" type="curve" smooth="yes"/>
      <point x="449.333" y="18"/>
      <point x="495" y="30.3333"/>
      <point x="539" y="55" type="curve"/>
      <point x="539" y="246" type="line" smooth="yes"/>
      <point x="539" y="265.333"/>
      <point x="538.167" y="281.333"/>
      <point x="536.5" y="294" type="curve" smooth="yes"/>
      <point x="534.833" y="306.667"/>
      <point x="531" y="316.667"/>
      <point x="525" y="324" type="curve" smooth="yes"/>
      <point x="519" y="331.333"/>
      <point x="510.167" y="336.333"/>
      <point x="498.5" y="339" type="curve" smooth="yes"/>
      <point x="486.833" y="341.667"/>
      <point x="471.333" y="343"/>
      <point x="452" y="343" type="curve"/>
      <point x="452" y="361" type="line"/>
      <point x="708" y="361" type="line"/>
      <point x="708" y="343" type="line"/>
      <point x="696" y="343" type="line" smooth="yes"/>
      <point x="684.667" y="343"/>
      <point x="675.167" y="341.667"/>
      <point x="667.5" y="339" type="curve" smooth="yes"/>
      <point x="659.833" y="336.333"/>
      <point x="653.5" y="331.5"/>
      <point x="648.5" y="324.5" type="curve" smooth="yes"/>
      <point x="643.5" y="317.5"/>
      <point x="639.833" y="307.667"/>
      <point x="637.5" y="295" type="curve" smooth="yes"/>
      <point x="635.167" y="282.333"/>
      <point x="634" y="266"/>
      <point x="634" y="246" type="curve" smooth="yes"/>
      <point x="634" y="43" type="line"/>
      <point x="596" y="23"/>
      <point x="558.833" y="8.33333"/>
      <point x="522.5" y="-1" type="curve" smooth="yes"/>
      <point x="486.167" y="-10.3333"/>
      <point x="445.667" y="-15"/>
      <point x="401" y="-15" type="curve" smooth="yes"/>
      <point x="345.667" y="-15"/>
      <point x="295.5" y="-6.5"/>
      <point x="250.5" y="10.5" type="curve" smooth="yes"/>
      <point x="205.5" y="27.5"/>
      <point x="167" y="51"/>
      <point x="135" y="81" type="curve" smooth="yes"/>
      <point x="103" y="111"/>
      <point x="78.3333" y="146.5"/>
      <point x="61" y="187.5" type="curve" smooth="yes"/>
      <point x="43.6667" y="228.5"/>
      <point x="35" y="273"/>
      <point x="35" y="321" type="curve" smooth="yes"/>
      <point x="35" y="368.333"/>
      <point x="43.8333" y="413.5"/>
      <point x="61.5" y="456.5" type="curve" smooth="yes"/>
      <point x="79.1667" y="499.5"/>
      <point x="103.667" y="537.333"/>
      <point x="135" y="570" type="curve" smooth="yes"/>
      <point x="166.333" y="602.667"/>
      <point x="203.333" y="628.667"/>
      <point x="246" y="648" type="curve" smooth="yes"/>
      <point x="288.667" y="667.333"/>
      <point x="335.333" y="677"/>
      <point x="386" y="677" type="curve" smooth="yes"/>
      <point x="398.667" y="677"/>
      <point x="410.167" y="676.667"/>
      <point x="420.5" y="676" type="curve" smooth="yes"/>
      <point x="430.833" y="675.333"/>
      <point x="441.5" y="673.833"/>
      <point x="452.5" y="671.5" type="curve" smooth="yes"/>
      <point x="463.5" y="669.167"/>
      <point x="475.5" y="666"/>
      <point x="488.5" y="662" type="curve" smooth="yes"/>
      <point x="501.5" y="658"/>
      <point x="517" y="652.667"/>
      <point x="535" y="646" type="curve" smooth="yes"/>
      <point x="553.667" y="638.667"/>
      <point x="566" y="635"/>
      <point x="572" y="635" type="curve" smooth="yes"/>
      <point x="578" y="635"/>
      <point x="583.167" y="637.833"/>
      <point x="587.5" y="643.5" type="curve" smooth="yes"/>
      <point x="591.833" y="649.168"/>
      <point x="594.667" y="660.335"/>
      <point x="596" y="677" type="curve"/>
    </contour>
  </outline>
</glyph>
<glyph name="uni0048" format="2">
  <advance width="722"/>
  <unicode hex="0048"/>
  <outline>
    <contour>
      <point x="206" y="355" type="line"/>
      <point x="513" y="355" type="line"/>
      <point x="513" y="544" type="line" smooth="yes"/>
      <point x="513" y="560"/>
      <point x="512.667" y="573"/>
      <point x="512" y="583" type="curve" smooth="yes"/>
      <point x="511.333" y="593"/>
      <point x="510" y="601.167"/>
      <point x="508" y="607.5" type="curve" smooth="yes"/>
      <point x="506" y="613.833"/>
      <point x="503.333" y="618.667"/>
      <point x="500" y="622" type="curve" smooth="yes"/>
      <point x="496.667" y="625.333"/>
      <point x="492" y="628.667"/>
      <point x="486" y="632" type="curve" smooth="yes"/>
      <point x="478.667" y="635.333"/>
      <point x="471.333" y="638.167"/>
      <point x="464" y="640.5" type="curve" smooth="yes"/>
      <point x="456.667" y="642.833"/>
      <point x="449.333" y="644"/>
      <point x="442" y="644" type="curve" smooth="yes"/>
      <point x="418" y="644" type="line"/>
      <point x="418" y="662" type="line"/>
      <point x="702" y="662" type="line"/>
      <point x="702" y="644" type="line"/>
      <point x="678" y="644" type="line" smooth="yes"/>
      <point x="666" y="644"/>
      <point x="655.5" y="642.833"/>
      <point x="646.5" y="640.5" type="curve" smooth="yes"/>
      <point x="637.5" y="638.167"/>
      <point x="630.167" y="633.5"/>
      <point x="624.5" y="626.5" type="curve" smooth="yes"/>
      <point x="618.833" y="619.5"/>
      <point x="614.5" y="609.5"/>
      <point x="611.5" y="596.5" type="curve" smooth="yes"/>
      <point x="608.5" y="583.5"/>
      <point x="607" y="566"/>
      <point x="607" y="544" type="curve" smooth="yes"/>
      <point x="607" y="117" type="line" smooth="yes"/>
      <point x="607" y="102.333"/>
      <point x="607.167" y="90.1667"/>
      <point x="607.5" y="80.5" type="curve" smooth="yes"/>
      <point x="607.833" y="70.8333"/>
      <point x="609" y="62.8333"/>
      <point x="611" y="56.5" type="curve" smooth="yes"/>
      <point x="613" y="50.1667"/>
      <point x="615.667" y="45"/>
      <point x="619" y="41" type="curve" smooth="yes"/>
      <point x="622.333" y="37"/>
      <point x="627" y="33.3333"/>
      <point x="633" y="30" type="curve" smooth="yes"/>
      <point x="647.667" y="22"/>
      <point x="662.667" y="18"/>
      <point x="678" y="18" type="curve" smooth="yes"/>
      <point x="702" y="18" type="line"/>
      <point x="702" y="0" type="line"/>
      <point x="418" y="0" type="line"/>
      <point x="418" y="18" type="line"/>
      <point x="442" y="18" type="line" smooth="yes"/>
      <point x="453.333" y="18"/>
      <point x="463.333" y="18.8333"/>
      <point x="472" y="20.5" type="curve" smooth="yes"/>
      <point x="480.667" y="22.1667"/>
      <point x="488" y="26.3333"/>
      <point x="494" y="33" type="curve" smooth="yes"/>
      <point x="500" y="39.6667"/>
      <point x="504.667" y="49.6667"/>
      <point x="508" y="63" type="curve" smooth="yes"/>
      <point x="511.333" y="76.3333"/>
      <point x="513" y="94.3333"/>
      <point x="513" y="117" type="curve" smooth="yes"/>
      <point x="513" y="319" type="line"/>
      <point x="206" y="319" type="line"/>
      <point x="206" y="117" type="line" smooth="yes"/>
      <point x="206" y="101.667"/>
      <point x="206.167" y="89.3333"/>
      <point x="206.5" y="80" type="curve" smooth="yes"/>
      <point x="206.833" y="70.6667"/>
      <point x="208" y="62.8333"/>
      <point x="210" y="56.5" type="curve" smooth="yes"/>
      <point x="212" y="50.1667"/>
      <point x="214.667" y="45"/>
      <point x="218" y="41" type="curve" smooth="yes"/>
      <point x="221.333" y="37"/>
      <point x="226" y="33.3333"/>
      <point x="232" y="30" type="curve" smooth="yes"/>
      <point x="246" y="22"/>
      <point x="261" y="18"/>
      <point x="277" y="18" type="curve" smooth="yes"/>
      <point x="301" y="18" type="line"/>
      <point x="301" y="0" type="line"/>
      <point x="17" y="0" type="line"/>
      <point x="17" y="18" type="line"/>
      <point x="41" y="18" type="line" smooth="yes"/>
      <point x="52.3333" y="18"/>
      <point x="62.5" y="19"/>
      <point x="71.5" y="21" type="curve" smooth="yes"/>
      <point x="80.5" y="23"/>
      <point x="88" y="27.3333"/>
      <point x="94" y="34" type="curve" smooth="yes"/>
      <point x="100" y="40.6667"/>
      <point x="104.5" y="50.5"/>
      <point x="107.5" y="63.5" type="curve" smooth="yes"/>
      <point x="110.5" y="76.5"/>
      <point x="112" y="94.3333"/>
      <point x="112" y="117" type="curve" smooth="yes"/>
      <point x="112" y="544" type="line" smooth="yes"/>
      <point x="112" y="560"/>
      <point x="111.667" y="573"/>
      <point x="111" y="583" type="curve" smooth="yes"/>
      <point x="110.333" y="593"/>
      <point x="109" y="601.167"/>
      <point x="107" y="607.5" type="curve" smooth="yes"/>
      <point x="105" y="613.833"/>
      <point x="102.167" y="618.833"/>
      <point x="98.5" y="622.5" type="curve" smooth="yes"/>
      <point x="94.8333" y="626.171"/>
      <point x="90.3333" y="629.338"/>
      <point x="85" y="632" type="curve" smooth="yes"/>
      <point x="69.6667" y="640"/>
      <point x="55" y="644"/>
      <point x="41" y="644" type="curve" smooth="yes"/>
      <point x="17" y="644" type="line"/>
      <point x="17" y="662" type="line"/>
      <point x="301" y="662" type="line"/>
      <point x="301" y="644" type="line"/>
      <point x="277" y="644" type="line" smooth="yes"/>
      <point x="265" y="644"/>
      <point x="254.5" y="642.833"/>
      <point x="245.5" y="640.5" type="curve" smooth="yes"/>
      <point x="236.5" y="638.167"/>
      <point x="229" y="633.5"/>
      <point x="223" y="626.5" type="curve" smooth="yes"/>
      <point x="217" y="619.5"/>
      <point x="212.667" y="609.5"/>
      <point x="210" y="596.5" type="curve" smooth="yes"/>
      <point x="207.333" y="583.5"/>
      <point x="206" y="566"/>
      <point x="206" y="544" type="curve" smooth="yes"/>
    </contour>
  </outline>
</glyph>
<glyph name="uni0049" format="2">
  <advance width="333"/>
  <unicode hex="0049"/>
  <outline>
    <contour>
      <point x="309" y="18" type="line"/>
      <point x="309" y="0" type="line"/>
      <point x="25" y="0" type="line"/>
      <point x="25" y="18" type="line"/>
      <point x="48" y="18" type="line" smooth="yes"/>
      <point x="59.3333" y="18"/>
      <point x="69.5" y="18.8333"/>
      <point x="78.5" y="20.5" type="curve" smooth="yes"/>
      <point x="87.5" y="22.1667"/>
      <point x="95" y="26.3333"/>
      <point x="101" y="33" type="curve" smooth="yes"/>
      <point x="107" y="39.6667"/>
      <point x="111.667" y="49.6667"/>
      <point x="115" y="63" type="curve" smooth="yes"/>
      <point x="118.333" y="76.3333"/>
      <point x="120" y="94.3333"/>
      <point x="120" y="117" type="curve" smooth="yes"/>
      <point x="120" y="545" type="line" smooth="yes"/>
      <point x="120" y="560.333"/>
      <point x="119.667" y="573"/>
      <point x="119" y="583" type="curve" smooth="yes"/>
      <point x="118.333" y="593"/>
      <point x="117" y="601.167"/>
      <point x="115" y="607.5" type="curve" smooth="yes"/>
      <point x="113" y="613.833"/>
      <point x="110.167" y="618.667"/>
      <point x="106.5" y="622" type="curve" smooth="yes"/>
      <point x="102.833" y="625.333"/>
      <point x="98.3333" y="628.667"/>
      <point x="93" y="632" type="curve" smooth="yes"/>
      <point x="79" y="640"/>
      <point x="64" y="644"/>
      <point x="48" y="644" type="curve" smooth="yes"/>
      <point x="25" y="644" type="line"/>
      <point x="25" y="662" type="line"/>
      <point x="309" y="662" type="line"/>
      <point x="309" y="644" type="line"/>
      <point x="285" y="644" type="line" smooth="yes"/>
      <point x="273" y="644"/>
      <point x="262.5" y="643"/>
      <point x="253.5" y="641" type="curve" smooth="yes"/>
      <point x="244.5" y="639"/>
      <point x="237" y="634.667"/>
      <point x="231" y="628" type="curve" smooth="yes"/>
      <point x="225" y="621.333"/>
      <point x="220.5" y="611.333"/>
      <point x="217.5" y="598" type="curve" smooth="yes"/>
      <point x="214.5" y="584.667"/>
      <point x="213" y="567"/>
      <point x="213" y="545" type="curve" smooth="yes"/>
      <point x="213" y="117" type="line" smooth="yes"/>
      <point x="213" y="95"/>
      <point x="214.667" y="77.5"/>
      <point x="218" y="64.5" type="curve" smooth="yes"/>
      <point x="221.333" y="51.5"/>
      <point x="226.167" y="41.5"/>
      <point x="232.5" y="34.5" type="curve" smooth="yes"/>
      <point x="238.833" y="27.5"/>
      <point x="246.5" y="23"/>
      <point x="255.5" y="21" type="curve" smooth="yes"/>
      <point x="264.5" y="19"/>
      <point x="274.333" y="18"/>
      <point x="285" y="18" type="curve" smooth="yes"/>
    </contour>
  </outline>
</glyph>
<glyph name="uni004A" format="2">
  <advance width="389"/>
  <unicode hex="004A"/>
  <outline>
    <contour>
      <point x="100" y="644" type="line"/>
      <point x="100" y="662" type="line"/>
      <point x="383" y="662" type="line"/>
      <point x="383" y="644" type="line"/>
      <point x="359" y="644" type="line" smooth="yes"/>
      <point x="347.667" y="644"/>
      <point x="337.667" y="643.167"/>
      <point x="329" y="641.5" type="curve" smooth="yes"/>
      <point x="320.333" y="639.833"/>
      <point x="313" y="635.667"/>
      <point x="307" y="629" type="curve" smooth="yes"/>
      <point x="301" y="622.333"/>
      <point x="296.5" y="612.333"/>
      <point x="293.5" y="599" type="curve" smooth="yes"/>
      <point x="290.5" y="585.667"/>
      <point x="289" y="567.667"/>
      <point x="289" y="545" type="curve" smooth="yes"/>
      <point x="289" y="221" type="line" smooth="yes"/>
      <point x="289" y="190.333"/>
      <point x="286" y="160.833"/>
      <point x="280" y="132.5" type="curve" smooth="yes"/>
      <point x="274" y="104.167"/>
      <point x="264.333" y="79"/>
      <point x="251" y="57" type="curve" smooth="yes"/>
      <point x="237.667" y="35"/>
      <point x="220.167" y="17.5"/>
      <point x="198.5" y="4.5" type="curve" smooth="yes"/>
      <point x="176.833" y="-8.5"/>
      <point x="150.333" y="-15"/>
      <point x="119" y="-15" type="curve" smooth="yes"/>
      <point x="88.3333" y="-15"/>
      <point x="64.3333" y="-7.5"/>
      <point x="47" y="7.5" type="curve" smooth="yes"/>
      <point x="29.6667" y="22.5"/>
      <point x="21" y="40"/>
      <point x="21" y="60" type="curve" smooth="yes"/>
      <point x="21" y="77.3334"/>
      <point x="26" y="90.1667"/>
      <point x="36" y="98.5" type="curve" smooth="yes"/>
      <point x="46" y="106.833"/>
      <point x="57.3333" y="111"/>
      <point x="70" y="111" type="curve" smooth="yes"/>
      <point x="75.3333" y="111"/>
      <point x="80.3333" y="110.333"/>
      <point x="85" y="109" type="curve" smooth="yes"/>
      <point x="89.6667" y="107.667"/>
      <point x="94.1667" y="104.833"/>
      <point x="98.5" y="100.5" type="curve" smooth="yes"/>
      <point x="102.834" y="96.1667"/>
      <point x="107.667" y="89.6667"/>
      <point x="113" y="81" type="curve" smooth="yes"/>
      <point x="118.333" y="72.3333"/>
      <point x="124" y="60.6667"/>
      <point x="130" y="46" type="curve" smooth="yes"/>
      <point x="137.333" y="28.6667"/>
      <point x="147" y="20"/>
      <point x="159" y="20" type="curve" smooth="yes"/>
      <point x="167.667" y="20"/>
      <point x="175.834" y="25.1667"/>
      <point x="183.5" y="35.5" type="curve" smooth="yes"/>
      <point x="191.167" y="45.8333"/>
      <point x="195" y="65"/>
      <point x="195" y="93" type="curve" smooth="yes"/>
      <point x="195" y="545" type="line" smooth="yes"/>
      <point x="195" y="560.333"/>
      <point x="194.667" y="573"/>
      <point x="194" y="583" type="curve" smooth="yes"/>
      <point x="193.333" y="593"/>
      <point x="192" y="601.167"/>
      <point x="190" y="607.5" type="curve" smooth="yes"/>
      <point x="188" y="613.833"/>
      <point x="185.167" y="618.833"/>
      <point x="181.5" y="622.5" type="curve" smooth="yes"/>
      <point x="177.833" y="626.171"/>
      <point x="173.333" y="629.338"/>
      <point x="168" y="632" type="curve" smooth="yes"/>
      <point x="160.666" y="635.333"/>
      <point x="153.333" y="638.167"/>
      <point x="146" y="640.5" type="curve" smooth="yes"/>
      <point x="138.666" y="642.833"/>
      <point x="131.333" y="644"/>
      <point x="124" y="644" type="curve" smooth="yes"/>
    </contour>
  </outline>
</glyph>
<glyph name="uni004B" format="2">
  <advance width="722"/>
  <unicode hex="004B"/>
  <outline>
    <contour>
      <point x="299" y="367" type="line"/>
      <point x="543" y="125" type="line"/>
      <point x="563" y="103.667"/>
      <point x="581.333" y="86.3333"/>
      <point x="598" y="73" type="curve" smooth="yes"/>
      <point x="614.667" y="59.6667"/>
      <point x="630.5" y="49.1667"/>
      <point x="645.5" y="41.5" type="curve" smooth="yes"/>
      <point x="660.5" y="33.8333"/>
      <point x="674.833" y="28.1667"/>
      <point x="688.5" y="24.5" type="curve" smooth="yes"/>
      <point x="702.167" y="20.8333"/>
      <point x="716" y="18.6666"/>
      <point x="730" y="18" type="curve"/>
      <point x="730" y="0" type="line"/>
      <point x="416" y="0" type="line"/>
      <point x="416" y="18" type="line"/>
      <point x="434.667" y="18"/>
      <point x="448.167" y="21.1667"/>
      <point x="456.5" y="27.5" type="curve" smooth="yes"/>
      <point x="464.833" y="33.8333"/>
      <point x="469" y="41"/>
      <point x="469" y="49" type="curve" smooth="yes"/>
      <point x="469" y="53"/>
      <point x="468.833" y="56.5"/>
      <point x="468.5" y="59.5" type="curve" smooth="yes"/>
      <point x="468.167" y="62.5"/>
      <point x="466.833" y="65.8333"/>
      <point x="464.5" y="69.5" type="curve" smooth="yes"/>
      <point x="462.167" y="73.1667"/>
      <point x="458.667" y="77.6667"/>
      <point x="454" y="83" type="curve" smooth="yes"/>
      <point x="449.33" y="88.3333"/>
      <point x="442.663" y="95.3333"/>
      <point x="434" y="104" type="curve" smooth="yes"/>
      <point x="205" y="331" type="line"/>
      <point x="205" y="117" type="line" smooth="yes"/>
      <point x="205" y="101.667"/>
      <point x="205.167" y="89.3333"/>
      <point x="205.5" y="80" type="curve" smooth="yes"/>
      <point x="205.833" y="70.6667"/>
      <point x="207" y="62.8333"/>
      <point x="209" y="56.5" type="curve" smooth="yes"/>
      <point x="211" y="50.1667"/>
      <point x="213.833" y="45"/>
      <point x="217.5" y="41" type="curve" smooth="yes"/>
      <point x="221.167" y="37"/>
      <point x="226" y="33.3333"/>
      <point x="232" y="30" type="curve" smooth="yes"/>
      <point x="246" y="22"/>
      <point x="260.667" y="18"/>
      <point x="276" y="18" type="curve" smooth="yes"/>
      <point x="299" y="18" type="line"/>
      <point x="299" y="0" type="line"/>
      <point x="17" y="0" type="line"/>
      <point x="17" y="18" type="line"/>
      <point x="40" y="18" type="line" smooth="yes"/>
      <point x="51.3333" y="18"/>
      <point x="61.5" y="18.8333"/>
      <point x="70.5" y="20.5" type="curve" smooth="yes"/>
      <point x="79.5" y="22.1667"/>
      <point x="87" y="26.3333"/>
      <point x="93" y="33" type="curve" smooth="yes"/>
      <point x="99" y="39.6667"/>
      <point x="103.5" y="49.5"/>
      <point x="106.5" y="62.5" type="curve" smooth="yes"/>
      <point x="109.5" y="75.5"/>
      <point x="111" y="93.6667"/>
      <point x="111" y="117" type="curve" smooth="yes"/>
      <point x="111" y="545" type="line" smooth="yes"/>
      <point x="111" y="559.667"/>
      <point x="110.667" y="572"/>
      <point x="110" y="582" type="curve" smooth="yes"/>
      <point x="109.333" y="592"/>
      <point x="108.166" y="600.167"/>
      <point x="106.5" y="606.5" type="curve" smooth="yes"/>
      <point x="104.833" y="612.833"/>
      <point x="102.333" y="617.833"/>
      <point x="99" y="621.5" type="curve" smooth="yes"/>
      <point x="95.6667" y="625.167"/>
      <point x="91" y="628.667"/>
      <point x="85" y="632" type="curve" smooth="yes"/>
      <point x="69.6667" y="640"/>
      <point x="54.6667" y="644"/>
      <point x="40" y="644" type="curve" smooth="yes"/>
      <point x="17" y="644" type="line"/>
      <point x="17" y="662" type="line"/>
      <point x="299" y="662" type="line"/>
      <point x="299" y="644" type="line"/>
      <point x="276" y="644" type="line" smooth="yes"/>
      <point x="264.667" y="644"/>
      <point x="254.5" y="643"/>
      <point x="245.5" y="641" type="curve" smooth="yes"/>
      <point x="236.5" y="639"/>
      <point x="229" y="634.5"/>
      <point x="223" y="627.5" type="curve" smooth="yes"/>
      <point x="217" y="620.5"/>
      <point x="212.5" y="610.5"/>
      <point x="209.5" y="597.5" type="curve" smooth="yes"/>
      <point x="206.5" y="584.5"/>
      <point x="205" y="567"/>
      <point x="205" y="545" type="curve" smooth="yes"/>
      <point x="205" y="342" type="line"/>
      <point x="272" y="404" type="line" smooth="yes"/>
      <point x="308" y="436.667"/>
      <point x="338" y="464.833"/>
      <point x="362" y="488.5" type="curve" smooth="yes"/>
      <point x="386" y="512.167"/>
      <point x="405.167" y="532.167"/>
      <point x="419.5" y="548.5" type="curve" smooth="yes"/>
      <point x="433.834" y="564.833"/>
      <point x="444.168" y="578.333"/>
      <point x="450.5" y="589" type="curve" smooth="yes"/>
      <point x="456.833" y="599.667"/>
      <point x="460" y="608.667"/>
      <point x="460" y="616" type="curve" smooth="yes"/>
      <point x="460" y="623.333"/>
      <point x="456.667" y="629.833"/>
      <point x="450" y="635.5" type="curve" smooth="yes"/>
      <point x="443.333" y="641.167"/>
      <point x="432" y="644"/>
      <point x="416" y="644" type="curve" smooth="yes"/>
      <point x="400" y="644" type="line"/>
      <point x="400" y="662" type="line"/>
      <point x="644" y="662" type="line"/>
      <point x="644" y="644" type="line"/>
      <point x="633.333" y="643.333"/>
      <point x="623.333" y="642.167"/>
      <point x="614" y="640.5" type="curve" smooth="yes"/>
      <point x="604.664" y="638.833"/>
      <point x="594.831" y="635.5"/>
      <point x="584.5" y="630.5" type="curve" smooth="yes"/>
      <point x="574.167" y="625.5"/>
      <point x="562.167" y="618"/>
      <point x="548.5" y="608" type="curve" smooth="yes"/>
      <point x="534.833" y="598"/>
      <point x="518.333" y="584.667"/>
      <point x="499" y="568" type="curve"/>
      <point x="400" y="468" type="line"/>
    </contour>
  </outline>
</glyph>
<glyph name="uni004C" format="2">
  <advance width="611"/>
  <unicode hex="004C"/>
  <outline>
    <contour>
      <point x="573" y="183" type="curve"/>
      <point x="589" y="180" type="line"/>
      <point x="533" y="0" type="line"/>
      <point x="20" y="0" type="line"/>
      <point x="20" y="18" type="line"/>
      <point x="45" y="18" type="line" smooth="yes"/>
      <point x="57" y="18"/>
      <point x="67.3333" y="19"/>
      <point x="76" y="21" type="curve" smooth="yes"/>
      <point x="84.6667" y="23"/>
      <point x="91.8333" y="27.5"/>
      <point x="97.5" y="34.5" type="curve" smooth="yes"/>
      <point x="103.167" y="41.5"/>
      <point x="107.5" y="51.5"/>
      <point x="110.5" y="64.5" type="curve" smooth="yes"/>
      <point x="113.5" y="77.5"/>
      <point x="115" y="95.3333"/>
      <point x="115" y="118" type="curve" smooth="yes"/>
      <point x="115" y="545" type="line" smooth="yes"/>
      <point x="115" y="568.333"/>
      <point x="113.333" y="586.667"/>
      <point x="110" y="600" type="curve" smooth="yes"/>
      <point x="106.667" y="613.333"/>
      <point x="102" y="623.167"/>
      <point x="96" y="629.5" type="curve" smooth="yes"/>
      <point x="90" y="635.833"/>
      <point x="82.6667" y="639.833"/>
      <point x="74" y="641.5" type="curve" smooth="yes"/>
      <point x="65.3333" y="643.167"/>
      <point x="55.6667" y="644"/>
      <point x="45" y="644" type="curve" smooth="yes"/>
      <point x="20" y="644" type="line"/>
      <point x="20" y="662" type="line"/>
      <point x="320" y="662" type="line"/>
      <point x="320" y="644" type="line"/>
      <point x="309" y="644" type="line" smooth="yes"/>
      <point x="284.333" y="644"/>
      <point x="265.333" y="642.167"/>
      <point x="252" y="638.5" type="curve" smooth="yes"/>
      <point x="238.666" y="634.833"/>
      <point x="228.833" y="628.667"/>
      <point x="222.5" y="620" type="curve" smooth="yes"/>
      <point x="216.166" y="611.333"/>
      <point x="212.333" y="600"/>
      <point x="211" y="586" type="curve" smooth="yes"/>
      <point x="209.667" y="572"/>
      <point x="209" y="554.667"/>
      <point x="209" y="534" type="curve" smooth="yes"/>
      <point x="209" y="118" type="line" smooth="yes"/>
      <point x="209" y="100"/>
      <point x="209.5" y="85.8333"/>
      <point x="210.5" y="75.5" type="curve" smooth="yes"/>
      <point x="211.5" y="65.1667"/>
      <point x="215.333" y="57.5"/>
      <point x="222" y="52.5" type="curve" smooth="yes"/>
      <point x="228.667" y="47.5"/>
      <point x="238.834" y="44.5"/>
      <point x="252.5" y="43.5" type="curve" smooth="yes"/>
      <point x="266.167" y="42.5"/>
      <point x="285.667" y="42"/>
      <point x="311" y="42" type="curve" smooth="yes"/>
      <point x="359" y="42" type="line" smooth="yes"/>
      <point x="389.667" y="42"/>
      <point x="415.667" y="43.3333"/>
      <point x="437" y="46" type="curve" smooth="yes"/>
      <point x="458.333" y="48.6667"/>
      <point x="477" y="54.8334"/>
      <point x="493" y="64.5" type="curve" smooth="yes"/>
      <point x="509" y="74.1667"/>
      <point x="523" y="88.3333"/>
      <point x="535" y="107" type="curve" smooth="yes"/>
      <point x="547" y="125.667"/>
      <point x="559.667" y="151"/>
    </contour>
  </outline>
</glyph>
<glyph name="uni004D" format="2">
  <advance width="889"/>
  <unicode hex="004D"/>
  <outline>
    <contour>
      <point x="409" y="0" type="line"/>
      <point x="153" y="557" type="line"/>
      <point x="153" y="115" type="line" smooth="yes"/>
      <point x="153" y="92.3333"/>
      <point x="154.667" y="74.5"/>
      <point x="158" y="61.5" type="curve" smooth="yes"/>
      <point x="161.333" y="48.5"/>
      <point x="166" y="38.8333"/>
      <point x="172" y="32.5" type="curve" smooth="yes"/>
      <point x="178" y="26.1667"/>
      <point x="185.333" y="22.1667"/>
      <point x="194" y="20.5" type="curve" smooth="yes"/>
      <point x="202.667" y="18.8333"/>
      <point x="212.667" y="18"/>
      <point x="224" y="18" type="curve" smooth="yes"/>
      <point x="247" y="18" type="line"/>
      <point x="247" y="0" type="line"/>
      <point x="17" y="0" type="line"/>
      <point x="17" y="18" type="line"/>
      <point x="40" y="18" type="line" smooth="yes"/>
      <point x="52" y="18"/>
      <point x="62.3333" y="19"/>
      <point x="71" y="21" type="curve" smooth="yes"/>
      <point x="79.6667" y="23"/>
      <point x="87" y="27.1667"/>
      <point x="93" y="33.5" type="curve" smooth="yes"/>
      <point x="99" y="39.8333"/>
      <point x="103.333" y="49.5"/>
      <point x="106" y="62.5" type="curve" smooth="yes"/>
      <point x="108.667" y="75.5"/>
      <point x="110" y="93"/>
      <point x="110" y="115" type="curve" smooth="yes"/>
      <point x="110" y="547" type="line" smooth="yes"/>
      <point x="110" y="563"/>
      <point x="109.333" y="577"/>
      <point x="108" y="589" type="curve" smooth="yes"/>
      <point x="106.667" y="601"/>
      <point x="103" y="611.167"/>
      <point x="97" y="619.5" type="curve" smooth="yes"/>
      <point x="91" y="627.833"/>
      <point x="81.6667" y="634"/>
      <point x="69" y="638" type="curve" smooth="yes"/>
      <point x="56.3333" y="642"/>
      <point x="39" y="644"/>
      <point x="17" y="644" type="curve"/>
      <point x="17" y="662" type="line"/>
      <point x="204" y="662" type="line"/>
      <point x="444" y="144" type="line"/>
      <point x="681" y="662" type="line"/>
      <point x="868" y="662" type="line"/>
      <point x="868" y="644" type="line"/>
      <point x="845" y="644" type="line" smooth="yes"/>
      <point x="833" y="644"/>
      <point x="822.667" y="643"/>
      <point x="814" y="641" type="curve" smooth="yes"/>
      <point x="805.333" y="639"/>
      <point x="798" y="634.667"/>
      <point x="792" y="628" type="curve" smooth="yes"/>
      <point x="786" y="621.333"/>
      <point x="781.5" y="611.667"/>
      <point x="778.5" y="599" type="curve" smooth="yes"/>
      <point x="775.5" y="586.333"/>
      <point x="774" y="569"/>
      <point x="774" y="547" type="curve" smooth="yes"/>
      <point x="774" y="115" type="line" smooth="yes"/>
      <point x="774" y="92.3333"/>
      <point x="775.667" y="74.5"/>
      <point x="779" y="61.5" type="curve" smooth="yes"/>
      <point x="782.333" y="48.5"/>
      <point x="787" y="38.8333"/>
      <point x="793" y="32.5" type="curve" smooth="yes"/>
      <point x="799" y="26.1667"/>
      <point x="806.333" y="22.1667"/>
      <point x="815" y="20.5" type="curve" smooth="yes"/>
      <point x="823.667" y="18.8333"/>
      <point x="833.667" y="18"/>
      <point x="845" y="18" type="curve" smooth="yes"/>
      <point x="868" y="18" type="line"/>
      <point x="868" y="0" type="line"/>
      <point x="587" y="0" type="line"/>
      <point x="587" y="18" type="line"/>
      <point x="610" y="18" type="line" smooth="yes"/>
      <point x="622" y="18"/>
      <point x="632.5" y="19"/>
      <point x="641.5" y="21" type="curve" smooth="yes"/>
      <point x="650.5" y="23"/>
      <point x="658" y="27.3333"/>
      <point x="664" y="34" type="curve" smooth="yes"/>
      <point x="670" y="40.6667"/>
      <point x="674.333" y="50.5"/>
      <point x="677" y="63.5" type="curve" smooth="yes"/>
      <point x="679.667" y="76.5"/>
      <point x="681" y="93.6667"/>
      <point x="681" y="115" type="curve" smooth="yes"/>
      <point x="681" y="557" type="line"/>
      <point x="425" y="0" type="line"/>
    </contour>
  </outline>
</glyph>
<glyph name="uni004E" format="2">
  <advance width="753"/>
  <unicode hex="004E"/>
  <outline>
    <contour>
      <point x="17" y="662" type="line"/>
      <point x="197" y="662" type="line"/>
      <point x="601" y="166" type="line"/>
      <point x="601" y="547" type="line" smooth="yes"/>
      <point x="601" y="569.669"/>
      <point x="599.5" y="587.336"/>
      <point x="596.5" y="600" type="curve" smooth="yes"/>
      <point x="593.5" y="612.671"/>
      <point x="589.167" y="622.338"/>
      <point x="583.5" y="629" type="curve" smooth="yes"/>
      <point x="577.833" y="635.676"/>
      <point x="570.5" y="639.843"/>
      <point x="561.5" y="641.5" type="curve" smooth="yes"/>
      <point x="552.5" y="643.167"/>
      <point x="542" y="644"/>
      <point x="530" y="644" type="curve" smooth="yes"/>
      <point x="508" y="644" type="line"/>
      <point x="508" y="662" type="line"/>
      <point x="738" y="662" type="line"/>
      <point x="738" y="644" type="line"/>
      <point x="715" y="644" type="line" smooth="yes"/>
      <point x="703" y="644"/>
      <point x="692.667" y="643"/>
      <point x="684" y="641" type="curve" smooth="yes"/>
      <point x="675.333" y="639"/>
      <point x="668" y="634.667"/>
      <point x="662" y="628" type="curve" smooth="yes"/>
      <point x="656" y="621.333"/>
      <point x="651.5" y="611.667"/>
      <point x="648.5" y="599" type="curve" smooth="yes"/>
      <point x="645.5" y="586.333"/>
      <point x="644" y="569"/>
      <point x="644" y="547" type="curve" smooth="yes"/>
      <point x="644" y="-11" type="line"/>
      <point x="627" y="-11" type="line"/>
      <point x="190" y="522" type="line"/>
      <point x="190" y="115" type="line" smooth="yes"/>
      <point x="190" y="91.6667"/>
      <point x="191.667" y="73.5"/>
      <point x="195" y="60.5" type="curve" smooth="yes"/>
      <point x="198.333" y="47.5"/>
      <point x="203" y="37.8333"/>
      <point x="209" y="31.5" type="curve" smooth="yes"/>
      <point x="215" y="25.1667"/>
      <point x="222.333" y="21.3333"/>
      <point x="231" y="20" type="curve" smooth="yes"/>
      <point x="239.667" y="18.6667"/>
      <point x="249.334" y="18"/>
      <point x="260" y="18" type="curve" smooth="yes"/>
      <point x="284" y="18" type="line"/>
      <point x="284" y="0" type="line"/>
      <point x="53" y="0" type="line"/>
      <point x="53" y="18" type="line"/>
      <point x="76" y="18" type="line" smooth="yes"/>
      <point x="88" y="18"/>
      <point x="98.5" y="19"/>
      <point x="107.5" y="21" type="curve" smooth="yes"/>
      <point x="116.5" y="23"/>
      <point x="124" y="27.3333"/>
      <point x="130" y="34" type="curve" smooth="yes"/>
      <point x="136" y="40.6667"/>
      <point x="140.333" y="50.5"/>
      <point x="143" y="63.5" type="curve" smooth="yes"/>
      <point x="145.667" y="76.5"/>
      <point x="147" y="93.6667"/>
      <point x="147" y="115" type="curve" smooth="yes"/>
      <point x="147" y="575" type="line"/>
      <point x="136.333" y="587.668"/>
      <point x="127" y="598.334"/>
      <point x="119" y="607" type="curve" smooth="yes"/>
      <point x="111" y="615.667"/>
      <point x="102.333" y="622.667"/>
      <point x="93" y="628" type="curve" smooth="yes"/>
      <point x="83.6667" y="633.333"/>
      <point x="73.1667" y="637.333"/>
      <point x="61.5" y="640" type="curve" smooth="yes"/>
      <point x="49.8333" y="642.667"/>
      <point x="35" y="644"/>
      <point x="17" y="644" type="curve"/>
    </contour>
  </outline>
</glyph>
<glyph name="uni004F" format="2">
  <advance width="722"/>
  <unicode hex="004F"/>
  <outline>
    <contour>
      <point x="366" y="677" type="curve" smooth="yes"/>
      <point x="408.667" y="677"/>
      <point x="449.167" y="668.167"/>
      <point x="487.5" y="650.5" type="curve" smooth="yes"/>
      <point x="525.833" y="632.833"/>
      <point x="559.5" y="608.667"/>
      <point x="588.5" y="578" type="curve" smooth="yes"/>
      <point x="617.5" y="547.333"/>
      <point x="640.667" y="511.167"/>
      <point x="658" y="469.5" type="curve" smooth="yes"/>
      <point x="675.333" y="427.833"/>
      <point x="684" y="383"/>
      <point x="684" y="335" type="curve" smooth="yes"/>
      <point x="684" y="285.667"/>
      <point x="675.5" y="239.667"/>
      <point x="658.5" y="197" type="curve" smooth="yes"/>
      <point x="641.5" y="154.333"/>
      <point x="618.167" y="117.333"/>
      <point x="588.5" y="86" type="curve" smooth="yes"/>
      <point x="558.833" y="54.6667"/>
      <point x="524.167" y="30"/>
      <point x="484.5" y="12" type="curve" smooth="yes"/>
      <point x="444.833" y="-6"/>
      <point x="402.666" y="-15"/>
      <point x="358" y="-15" type="curve" smooth="yes"/>
      <point x="312.667" y="-15"/>
      <point x="270.333" y="-6.5"/>
      <point x="231" y="10.5" type="curve" smooth="yes"/>
      <point x="191.667" y="27.5"/>
      <point x="157.5" y="51.3333"/>
      <point x="128.5" y="82" type="curve" smooth="yes"/>
      <point x="99.5" y="112.667"/>
      <point x="76.6667" y="149.333"/>
      <point x="60" y="192" type="curve" smooth="yes"/>
      <point x="43.3333" y="234.667"/>
      <point x="35" y="281.667"/>
      <point x="35" y="333" type="curve" smooth="yes"/>
      <point x="35" y="380.333"/>
      <point x="43.3333" y="425"/>
      <point x="60" y="467" type="curve" smooth="yes"/>
      <point x="76.6667" y="509"/>
      <point x="99.6667" y="545.5"/>
      <point x="129" y="576.5" type="curve" smooth="yes"/>
      <point x="158.333" y="607.5"/>
      <point x="193.167" y="632"/>
      <point x="233.5" y="650" type="curve" smooth="yes"/>
      <point x="273.833" y="668"/>
      <point x="318" y="677"/>
    </contour>
    <contour>
      <point x="356" y="642" type="curve" smooth="yes"/>
      <point x="322.667" y="642"/>
      <point x="293" y="634.833"/>
      <point x="267" y="620.5" type="curve" smooth="yes"/>
      <point x="241" y="606.167"/>
      <point x="219.167" y="585.667"/>
      <point x="201.5" y="559" type="curve" smooth="yes"/>
      <point x="183.833" y="532.333"/>
      <point x="170.333" y="500"/>
      <point x="161" y="462" type="curve" smooth="yes"/>
      <point x="151.667" y="424"/>
      <point x="147" y="381.667"/>
      <point x="147" y="335" type="curve" smooth="yes"/>
      <point x="147" y="288.333"/>
      <point x="151.5" y="245.667"/>
      <point x="160.5" y="207" type="curve" smooth="yes"/>
      <point x="169.5" y="168.333"/>
      <point x="183" y="135.167"/>
      <point x="201" y="107.5" type="curve" smooth="yes"/>
      <point x="219" y="79.8333"/>
      <point x="241" y="58.3333"/>
      <point x="267" y="43" type="curve" smooth="yes"/>
      <point x="293" y="27.6667"/>
      <point x="323" y="20"/>
      <point x="357" y="20" type="curve" smooth="yes"/>
      <point x="387.667" y="20"/>
      <point x="416.167" y="25.8333"/>
      <point x="442.5" y="37.5" type="curve" smooth="yes"/>
      <point x="468.833" y="49.1667"/>
      <point x="491.5" y="67.3333"/>
      <point x="510.5" y="92" type="curve" smooth="yes"/>
      <point x="529.5" y="116.667"/>
      <point x="544.5" y="148"/>
      <point x="555.5" y="186" type="curve" smooth="yes"/>
      <point x="566.5" y="224"/>
      <point x="572" y="269.333"/>
      <point x="572" y="322" type="curve" smooth="yes"/>
      <point x="572" y="424"/>
      <point x="553.833" y="502.833"/>
      <point x="517.5" y="558.5" type="curve" smooth="yes"/>
      <point x="481.167" y="614.167"/>
      <point x="427.333" y="642"/>
    </contour>
  </outline>
</glyph>
<glyph name="uni0050" format="2">
  <advance width="556"/>
  <unicode hex="0050"/>
  <outline>
    <contour>
      <point x="205" y="310" type="curve"/>
      <point x="205" y="117" type="line" smooth="yes"/>
      <point x="205" y="93.6667"/>
      <point x="206.667" y="75.3333"/>
      <point x="210" y="62" type="curve" smooth="yes"/>
      <point x="213.333" y="48.6666"/>
      <point x="218" y="38.8333"/>
      <point x="224" y="32.5" type="curve" smooth="yes"/>
      <point x="230" y="26.1667"/>
      <point x="237.333" y="22.1667"/>
      <point x="246" y="20.5" type="curve" smooth="yes"/>
      <point x="254.667" y="18.8333"/>
      <point x="264.333" y="18"/>
      <point x="275" y="18" type="curve" smooth="yes"/>
      <point x="300" y="18" type="line"/>
      <point x="300" y="0" type="line"/>
      <point x="17" y="0" type="line"/>
      <point x="17" y="18" type="line"/>
      <point x="42" y="18" type="line" smooth="yes"/>
      <point x="53.3333" y="18"/>
      <point x="63.3333" y="19"/>
      <point x="72" y="21" type="curve" smooth="yes"/>
      <point x="80.6667" y="23"/>
      <point x="87.8333" y="27.3333"/>
      <point x="93.5" y="34" type="curve" smooth="yes"/>
      <point x="99.1667" y="40.6667"/>
      <point x="103.5" y="50.5"/>
      <point x="106.5" y="63.5" type="curve" smooth="yes"/>
      <point x="109.5" y="76.5"/>
      <point x="111" y="94.3333"/>
      <point x="111" y="117" type="curve" smooth="yes"/>
      <point x="111" y="545" type="line" smooth="yes"/>
      <point x="111" y="568.333"/>
      <point x="109.5" y="586.667"/>
      <point x="106.5" y="600" type="curve" smooth="yes"/>
      <point x="103.5" y="613.333"/>
      <point x="99" y="623.167"/>
      <point x="93" y="629.5" type="curve" smooth="yes"/>
      <point x="87" y="635.833"/>
      <point x="79.6667" y="639.833"/>
      <point x="71" y="641.5" type="curve" smooth="yes"/>
      <point x="62.3333" y="643.167"/>
      <point x="52.6667" y="644"/>
      <point x="42" y="644" type="curve" smooth="yes"/>
      <point x="17" y="644" type="line"/>
      <point x="17" y="662" type="line"/>
      <point x="259" y="662" type="line" smooth="yes"/>
      <point x="297" y="662"/>
      <point x="332" y="658.5"/>
      <point x="364" y="651.5" type="curve" smooth="yes"/>
      <point x="396" y="644.5"/>
      <point x="423.667" y="633.667"/>
      <point x="447" y="619" type="curve" smooth="yes"/>
      <point x="470.333" y="604.333"/>
      <point x="488.5" y="585.5"/>
      <point x="501.5" y="562.5" type="curve" smooth="yes"/>
      <point x="514.5" y="539.5"/>
      <point x="521" y="511.667"/>
      <point x="521" y="479" type="curve" smooth="yes"/>
      <point x="521" y="451.667"/>
      <point x="516.5" y="426.833"/>
      <point x="507.5" y="404.5" type="curve" smooth="yes"/>
      <point x="498.5" y="382.167"/>
      <point x="485.167" y="363"/>
      <point x="467.5" y="347" type="curve" smooth="yes"/>
      <point x="449.833" y="331"/>
      <point x="428.333" y="318.5"/>
      <point x="403" y="309.5" type="curve" smooth="yes"/>
      <point x="377.667" y="300.5"/>
      <point x="348.667" y="296"/>
      <point x="316" y="296" type="curve" smooth="yes"/>
      <point x="300" y="296"/>
      <point x="282.833" y="297.167"/>
      <point x="264.5" y="299.5" type="curve" smooth="yes"/>
      <point x="246.166" y="301.833"/>
      <point x="226.333" y="305.333"/>
    </contour>
    <contour>
      <point x="205" y="338" type="line"/>
      <point x="238.333" y="331.333"/>
      <point x="265" y="328"/>
      <point x="285" y="328" type="curve" smooth="yes"/>
      <point x="303" y="328"/>
      <point x="319.5" y="331.667"/>
      <point x="334.5" y="339" type="curve" smooth="yes"/>
      <point x="349.5" y="346.333"/>
      <point x="362.667" y="356.5"/>
      <point x="374" y="369.5" type="curve" smooth="yes"/>
      <point x="385.335" y="382.5"/>
      <point x="394.168" y="397.833"/>
      <point x="400.5" y="415.5" type="curve" smooth="yes"/>
      <point x="406.833" y="433.167"/>
      <point x="410" y="452.333"/>
      <point x="410" y="473" type="curve" smooth="yes"/>
      <point x="410" y="493.667"/>
      <point x="406.667" y="513.167"/>
      <point x="400" y="531.5" type="curve" smooth="yes"/>
      <point x="393.333" y="549.833"/>
      <point x="384" y="565.833"/>
      <point x="372" y="579.5" type="curve" smooth="yes"/>
      <point x="360" y="593.171"/>
      <point x="345.833" y="603.838"/>
      <point x="329.5" y="611.5" type="curve" smooth="yes"/>
      <point x="313.167" y="619.167"/>
      <point x="295.333" y="623"/>
      <point x="276" y="623" type="curve" smooth="yes"/>
      <point x="266.667" y="623"/>
      <point x="256.333" y="622.333"/>
      <point x="245" y="621" type="curve" smooth="yes"/>
      <point x="233.666" y="619.667"/>
      <point x="220.333" y="617"/>
      <point x="205" y="613" type="curve"/>
    </contour>
  </outline>
</glyph>
<glyph name="uni0051" format="2">
  <advance width="722"/>
  <unicode hex="0051"/>
  <outline>
    <contour>
      <point x="440" y="-7" type="curve"/>
      <point x="473.333" y="-64.3333"/>
      <point x="509.333" y="-106.5"/>
      <point x="548" y="-133.5" type="curve" smooth="yes"/>
      <point x="586.667" y="-160.5"/>
      <point x="630.667" y="-176"/>
      <point x="680" y="-180" type="curve"/>
      <point x="680" y="-196" type="line"/>
      <point x="646" y="-195.333"/>
      <point x="610.167" y="-189.833"/>
      <point x="572.5" y="-179.5" type="curve" smooth="yes"/>
      <point x="534.833" y="-169.167"/>
      <point x="497.833" y="-155.5"/>
      <point x="461.5" y="-138.5" type="curve" smooth="yes"/>
      <point x="425.167" y="-121.5"/>
      <point x="390.5" y="-101.667"/>
      <point x="357.5" y="-79" type="curve" smooth="yes"/>
      <point x="324.5" y="-56.3333"/>
      <point x="296" y="-32.3333"/>
      <point x="272" y="-7" type="curve"/>
      <point x="194.667" y="23.6667"/>
      <point x="135.833" y="66"/>
      <point x="95.5" y="120" type="curve" smooth="yes"/>
      <point x="55.1667" y="174"/>
      <point x="35" y="245"/>
      <point x="35" y="333" type="curve" smooth="yes"/>
      <point x="35" y="382.333"/>
      <point x="43.6667" y="428"/>
      <point x="61" y="470" type="curve" smooth="yes"/>
      <point x="78.3333" y="512"/>
      <point x="102" y="548.333"/>
      <point x="132" y="579" type="curve" smooth="yes"/>
      <point x="162" y="609.667"/>
      <point x="197" y="633.667"/>
      <point x="237" y="651" type="curve" smooth="yes"/>
      <point x="277" y="668.333"/>
      <point x="319.333" y="677"/>
      <point x="364" y="677" type="curve" smooth="yes"/>
      <point x="406.667" y="677"/>
      <point x="447.333" y="668.333"/>
      <point x="486" y="651" type="curve" smooth="yes"/>
      <point x="524.667" y="633.667"/>
      <point x="558.667" y="609.5"/>
      <point x="588" y="578.5" type="curve" smooth="yes"/>
      <point x="617.333" y="547.5"/>
      <point x="640.667" y="510.833"/>
      <point x="658" y="468.5" type="curve" smooth="yes"/>
      <point x="675.333" y="426.167"/>
      <point x="684" y="380.333"/>
      <point x="684" y="331" type="curve" smooth="yes"/>
      <point x="684" y="291"/>
      <point x="678" y="252.833"/>
      <point x="666" y="216.5" type="curve" smooth="yes"/>
      <point x="654" y="180.167"/>
      <point x="637.333" y="147.167"/>
      <point x="616" y="117.5" type="curve" smooth="yes"/>
      <point x="594.667" y="87.8333"/>
      <point x="569" y="62.1666"/>
      <point x="539" y="40.5" type="curve" smooth="yes"/>
      <point x="509" y="18.8333"/>
      <point x="476" y="3"/>
    </contour>
    <contour>
      <point x="358" y="640" type="curve" smooth="yes"/>
      <point x="291.333" y="640"/>
      <point x="239.5" y="613.5"/>
      <point x="202.5" y="560.5" type="curve" smooth="yes"/>
      <point x="165.5" y="507.5"/>
      <point x="147" y="431.667"/>
      <point x="147" y="333" type="curve" smooth="yes"/>
      <point x="147" y="286.333"/>
      <point x="151.5" y="243.667"/>
      <point x="160.5" y="205" type="curve" smooth="yes"/>
      <point x="169.5" y="166.333"/>
      <point x="183" y="133.167"/>
      <point x="201" y="105.5" type="curve" smooth="yes"/>
      <point x="219" y="77.8333"/>
      <point x="241.167" y="56.3333"/>
      <point x="267.5" y="41" type="curve" smooth="yes"/>
      <point x="293.833" y="25.6667"/>
      <point x="324" y="18"/>
      <point x="358" y="18" type="curve" smooth="yes"/>
      <point x="426" y="18"/>
      <point x="478.667" y="44.3333"/>
      <point x="516" y="97" type="curve" smooth="yes"/>
      <point x="553.333" y="149.667"/>
      <point x="572" y="223.333"/>
      <point x="572" y="318" type="curve" smooth="yes"/>
      <point x="572" y="370.667"/>
      <point x="566.833" y="417.167"/>
      <point x="556.5" y="457.5" type="curve" smooth="yes"/>
      <point x="546.167" y="497.833"/>
      <point x="531.5" y="531.5"/>
      <point x="512.5" y="558.5" type="curve" smooth="yes"/>
      <point x="493.5" y="585.5"/>
      <point x="471" y="605.833"/>
      <point x="445" y="619.5" type="curve" smooth="yes"/>
      <point x="419" y="633.167"/>
      <point x="390" y="640"/>
    </contour>
  </outline>
</glyph>
<glyph name="uni0052" format="2">
  <advance width="667"/>
  <unicode hex="0052"/>
  <outline>
    <contour>
      <point x="676" y="0" type="line"/>
      <point x="499" y="0" type="line"/>
      <point x="275" y="310" type="line"/>
      <point x="266.332" y="309.333"/>
      <point x="258.666" y="309"/>
      <point x="252" y="309" type="curve" smooth="yes"/>
      <point x="242" y="309"/>
      <point x="242" y="309"/>
      <point x="234" y="309" type="curve" smooth="yes"/>
      <point x="228" y="309"/>
      <point x="228" y="309"/>
      <point x="220.5" y="309" type="curve" smooth="yes"/>
      <point x="215.5" y="309"/>
      <point x="210.667" y="309.333"/>
      <point x="206" y="310" type="curve"/>
      <point x="206" y="117" type="line" smooth="yes"/>
      <point x="206" y="93.6667"/>
      <point x="207.667" y="75.3333"/>
      <point x="211" y="62" type="curve" smooth="yes"/>
      <point x="214.333" y="48.6667"/>
      <point x="219" y="38.6667"/>
      <point x="225" y="32" type="curve" smooth="yes"/>
      <point x="231" y="25.3333"/>
      <point x="238.167" y="21.3333"/>
      <point x="246.5" y="20" type="curve" smooth="yes"/>
      <point x="254.833" y="18.6667"/>
      <point x="264.333" y="18"/>
      <point x="275" y="18" type="curve" smooth="yes"/>
      <point x="301" y="18" type="line"/>
      <point x="301" y="0" type="line"/>
      <point x="17" y="0" type="line"/>
      <point x="17" y="18" type="line"/>
      <point x="42" y="18" type="line" smooth="yes"/>
      <point x="54" y="18"/>
      <point x="64.3333" y="19"/>
      <point x="73" y="21" type="curve" smooth="yes"/>
      <point x="81.6667" y="23"/>
      <point x="88.8333" y="27.5"/>
      <point x="94.5" y="34.5" type="curve" smooth="yes"/>
      <point x="100.167" y="41.5"/>
      <point x="104.5" y="51.5"/>
      <point x="107.5" y="64.5" type="curve" smooth="yes"/>
      <point x="110.5" y="77.5"/>
      <point x="112" y="95"/>
      <point x="112" y="117" type="curve" smooth="yes"/>
      <point x="112" y="545" type="line" smooth="yes"/>
      <point x="112" y="568.333"/>
      <point x="110.333" y="586.667"/>
      <point x="107" y="600" type="curve" smooth="yes"/>
      <point x="103.667" y="613.333"/>
      <point x="99" y="623.167"/>
      <point x="93" y="629.5" type="curve" smooth="yes"/>
      <point x="87" y="635.833"/>
      <point x="79.6667" y="639.833"/>
      <point x="71" y="641.5" type="curve" smooth="yes"/>
      <point x="62.3333" y="643.167"/>
      <point x="52.6667" y="644"/>
      <point x="42" y="644" type="curve" smooth="yes"/>
      <point x="17" y="644" type="line"/>
      <point x="17" y="662" type="line"/>
      <point x="258" y="662" type="line" smooth="yes"/>
      <point x="294" y="662"/>
      <point x="324.667" y="660.667"/>
      <point x="350" y="658" type="curve" smooth="yes"/>
      <point x="375.333" y="655.333"/>
      <point x="396.667" y="651.333"/>
      <point x="414" y="646" type="curve" smooth="yes"/>
      <point x="430.667" y="640.667"/>
      <point x="446.333" y="633.167"/>
      <point x="461" y="623.5" type="curve" smooth="yes"/>
      <point x="475.667" y="613.833"/>
      <point x="488.333" y="602.5"/>
      <point x="499" y="589.5" type="curve" smooth="yes"/>
      <point x="509.667" y="576.5"/>
      <point x="518.167" y="561.667"/>
      <point x="524.5" y="545" type="curve" smooth="yes"/>
      <point x="530.833" y="528.333"/>
      <point x="534" y="510.667"/>
      <point x="534" y="492" type="curve" smooth="yes"/>
      <point x="534" y="451.333"/>
      <point x="520.833" y="416"/>
      <point x="494.5" y="386" type="curve" smooth="yes"/>
      <point x="468.167" y="356"/>
      <point x="427" y="334.667"/>
      <point x="371" y="322" type="curve"/>
      <point x="507" y="132" type="line" smooth="yes"/>
      <point x="523" y="110"/>
      <point x="537.167" y="92"/>
      <point x="549.5" y="78" type="curve" smooth="yes"/>
      <point x="561.833" y="64"/>
      <point x="574.333" y="53"/>
      <point x="587" y="45" type="curve" smooth="yes"/>
      <point x="599.667" y="37"/>
      <point x="613" y="31"/>
      <point x="627" y="27" type="curve" smooth="yes"/>
      <point x="641" y="23"/>
      <point x="657.333" y="20"/>
      <point x="676" y="18" type="curve"/>
    </contour>
    <contour>
      <point x="206" y="340" type="line"/>
      <point x="233" y="340" type="line" smooth="yes"/>
      <point x="297" y="340"/>
      <point x="344.833" y="353.667"/>
      <point x="376.5" y="381" type="curve" smooth="yes"/>
      <point x="408.167" y="408.333"/>
      <point x="424" y="443"/>
      <point x="424" y="485" type="curve" smooth="yes"/>
      <point x="424" y="527"/>
      <point x="411" y="560.833"/>
      <point x="385" y="586.5" type="curve" smooth="yes"/>
      <point x="359" y="612.167"/>
      <point x="324.667" y="625"/>
      <point x="282" y="625" type="curve" smooth="yes"/>
      <point x="263.333" y="625"/>
      <point x="238" y="622"/>
      <point x="206" y="616" type="curve"/>
    </contour>
  </outline>
</glyph>
<glyph name="uni0053" format="2">
  <advance width="546"/>
  <unicode hex="0053"/>
  <outline>
    <contour>
      <point x="407" y="638" type="curve" smooth="yes"/>
      <point x="429" y="638"/>
      <point x="436" y="654"/>
      <point x="440" y="677" type="curve"/>
      <point x="458" y="677" type="line"/>
      <point x="458" y="448" type="line"/>
      <point x="440" y="448" type="line"/>
      <point x="427" y="556"/>
      <point x="369" y="638"/>
      <point x="257" y="638" type="curve" smooth="yes"/>
      <point x="206" y="638"/>
      <point x="166" y="610"/>
      <point x="149" y="575" type="curve" smooth="yes"/>
      <point x="143" y="563"/>
      <point x="140" y="550"/>
      <point x="140" y="537" type="curve" smooth="yes"/>
      <point x="140" y="505"/>
      <point x="153" y="487"/>
      <point x="172" y="469" type="curve" smooth="yes"/>
      <point x="227" y="419"/>
      <point x="336" y="370"/>
      <point x="401" y="329" type="curve" smooth="yes"/>
      <point x="459" y="293"/>
      <point x="502" y="257"/>
      <point x="502" y="169" type="curve" smooth="yes"/>
      <point x="502" y="80"/>
      <point x="444" y="26"/>
      <point x="378" y="0" type="curve" smooth="yes"/>
      <point x="353" y="-10"/>
      <point x="325" y="-15"/>
      <point x="294" y="-15" type="curve" smooth="yes"/>
      <point x="279" y="-15"/>
      <point x="279" y="-15"/>
      <point x="270" y="-15" type="curve" smooth="yes"/>
      <point x="253" y="-15"/>
      <point x="242" y="-12"/>
      <point x="224" y="-8" type="curve" smooth="yes"/>
      <point x="207" y="-3"/>
      <point x="128" y="22"/>
      <point x="117" y="22" type="curve" smooth="yes"/>
      <point x="94" y="22"/>
      <point x="90" y="9"/>
      <point x="87" y="-15" type="curve"/>
      <point x="69" y="-15" type="line"/>
      <point x="69" y="212" type="line"/>
      <point x="87" y="212" type="line"/>
      <point x="109" y="102"/>
      <point x="154" y="23"/>
      <point x="284" y="23" type="curve" smooth="yes"/>
      <point x="344" y="23"/>
      <point x="388" y="49"/>
      <point x="407" y="90" type="curve" smooth="yes"/>
      <point x="413" y="102"/>
      <point x="416" y="116"/>
      <point x="416" y="131" type="curve" smooth="yes"/>
      <point x="416" y="167"/>
      <point x="409" y="183"/>
      <point x="389" y="203" type="curve" smooth="yes"/>
      <point x="378" y="214"/>
      <point x="362" y="227"/>
      <point x="340" y="240" type="curve" smooth="yes"/>
      <point x="270" y="285"/>
      <point x="159" y="335"/>
      <point x="104" y="393" type="curve" smooth="yes"/>
      <point x="78" y="421"/>
      <point x="62" y="452"/>
      <point x="62" y="503" type="curve" smooth="yes"/>
      <point x="62" y="556"/>
      <point x="88" y="597"/>
      <point x="118" y="625" type="curve" smooth="yes"/>
      <point x="150" y="654"/>
      <point x="197" y="677"/>
      <point x="256" y="677" type="curve" smooth="yes"/>
      <point x="291" y="677"/>
      <point x="328" y="668"/>
      <point x="368" y="651" type="curve" smooth="yes"/>
      <point x="387" y="643"/>
      <point x="400" y="638"/>
    </contour>
  </outline>
</glyph>
<glyph name="uni0054" format="2">
  <advance width="611"/>
  <unicode hex="0054"/>
  <outline>
    <contour>
      <point x="579" y="662" type="line"/>
      <point x="579" y="507" type="line"/>
      <point x="567" y="507" type="line"/>
      <point x="561.667" y="549.668"/>
      <point x="549.5" y="579.334"/>
      <point x="530.5" y="596" type="curve" smooth="yes"/>
      <point x="511.5" y="612.667"/>
      <point x="483.333" y="621"/>
      <point x="446" y="621" type="curve" smooth="yes"/>
      <point x="353" y="621" type="line"/>
      <point x="353" y="115" type="line" smooth="yes"/>
      <point x="353" y="91.6667"/>
      <point x="354.667" y="73.5"/>
      <point x="358" y="60.5" type="curve" smooth="yes"/>
      <point x="361.333" y="47.5"/>
      <point x="366" y="37.8333"/>
      <point x="372" y="31.5" type="curve" smooth="yes"/>
      <point x="378" y="25.1667"/>
      <point x="385.333" y="21.3333"/>
      <point x="394" y="20" type="curve" smooth="yes"/>
      <point x="402.667" y="18.6667"/>
      <point x="412.333" y="18"/>
      <point x="423" y="18" type="curve" smooth="yes"/>
      <point x="446" y="18" type="line"/>
      <point x="446" y="0" type="line"/>
      <point x="166" y="0" type="line"/>
      <point x="166" y="18" type="line"/>
      <point x="189" y="18" type="line" smooth="yes"/>
      <point x="201" y="18"/>
      <point x="211.333" y="19"/>
      <point x="220" y="21" type="curve" smooth="yes"/>
      <point x="228.667" y="23"/>
      <point x="236" y="27.1667"/>
      <point x="242" y="33.5" type="curve" smooth="yes"/>
      <point x="248" y="39.8333"/>
      <point x="252.333" y="49.5"/>
      <point x="255" y="62.5" type="curve" smooth="yes"/>
      <point x="257.667" y="75.5"/>
      <point x="259" y="93"/>
      <point x="259" y="115" type="curve" smooth="yes"/>
      <point x="259" y="621" type="line"/>
      <point x="180" y="621" type="line" smooth="yes"/>
      <point x="160" y="621"/>
      <point x="142.167" y="619.333"/>
      <point x="126.5" y="616" type="curve" smooth="yes"/>
      <point x="110.833" y="612.657"/>
      <point x="97.5" y="606.824"/>
      <point x="86.5" y="598.5" type="curve" smooth="yes"/>
      <point x="75.5" y="590.167"/>
      <point x="66.8333" y="578.5"/>
      <point x="60.5" y="563.5" type="curve" smooth="yes"/>
      <point x="54.1666" y="548.5"/>
      <point x="50.3333" y="529.667"/>
      <point x="49" y="507" type="curve"/>
      <point x="30" y="507" type="line"/>
      <point x="30" y="662" type="line"/>
    </contour>
  </outline>
</glyph>
<glyph name="uni0055" format="2">
  <advance width="722"/>
  <unicode hex="0055"/>
  <outline>
    <contour>
      <point x="477" y="644" type="line"/>
      <point x="477" y="662" type="line"/>
      <point x="711" y="662" type="line"/>
      <point x="711" y="644" type="line"/>
      <point x="687" y="644" type="line" smooth="yes"/>
      <point x="677" y="644"/>
      <point x="667.667" y="642.833"/>
      <point x="659" y="640.5" type="curve" smooth="yes"/>
      <point x="650.333" y="638.162"/>
      <point x="642.833" y="633.328"/>
      <point x="636.5" y="626" type="curve" smooth="yes"/>
      <point x="630.167" y="618.667"/>
      <point x="625.167" y="608.167"/>
      <point x="621.5" y="594.5" type="curve" smooth="yes"/>
      <point x="617.833" y="580.833"/>
      <point x="616" y="563"/>
      <point x="616" y="541" type="curve" smooth="yes"/>
      <point x="616" y="272" type="line" smooth="yes"/>
      <point x="616" y="232"/>
      <point x="612.833" y="194.5"/>
      <point x="606.5" y="159.5" type="curve" smooth="yes"/>
      <point x="600.164" y="124.5"/>
      <point x="587.831" y="94"/>
      <point x="569.5" y="68" type="curve" smooth="yes"/>
      <point x="551.165" y="42"/>
      <point x="525.331" y="21.5"/>
      <point x="492" y="6.5" type="curve" smooth="yes"/>
      <point x="458.667" y="-8.5"/>
      <point x="415" y="-16"/>
      <point x="361" y="-16" type="curve" smooth="yes"/>
      <point x="325" y="-16"/>
      <point x="293.5" y="-12.6667"/>
      <point x="266.5" y="-6" type="curve" smooth="yes"/>
      <point x="239.5" y="0.666667"/>
      <point x="216.167" y="10"/>
      <point x="196.5" y="22" type="curve" smooth="yes"/>
      <point x="176.833" y="34"/>
      <point x="160.667" y="48.5"/>
      <point x="148" y="65.5" type="curve" smooth="yes"/>
      <point x="135.333" y="82.5"/>
      <point x="125" y="101.667"/>
      <point x="117" y="123" type="curve" smooth="yes"/>
      <point x="107" y="151.667"/>
      <point x="102" y="206"/>
      <point x="102" y="286" type="curve" smooth="yes"/>
      <point x="102" y="545" type="line" smooth="yes"/>
      <point x="102" y="565"/>
      <point x="100.667" y="581.5"/>
      <point x="98" y="594.5" type="curve" smooth="yes"/>
      <point x="95.3333" y="607.5"/>
      <point x="91" y="617.667"/>
      <point x="85" y="625" type="curve" smooth="yes"/>
      <point x="79" y="632.333"/>
      <point x="71.5" y="637.333"/>
      <point x="62.5" y="640" type="curve" smooth="yes"/>
      <point x="53.5" y="642.667"/>
      <point x="42.6667" y="644"/>
      <point x="30" y="644" type="curve" smooth="yes"/>
      <point x="5" y="644" type="line"/>
      <point x="5" y="662" type="line"/>
      <point x="292" y="662" type="line"/>
      <point x="292" y="644" type="line"/>
      <point x="266" y="644" type="line" smooth="yes"/>
      <point x="254.667" y="644"/>
      <point x="244.5" y="642.833"/>
      <point x="235.5" y="640.5" type="curve" smooth="yes"/>
      <point x="226.5" y="638.162"/>
      <point x="219" y="633.328"/>
      <point x="213" y="626" type="curve" smooth="yes"/>
      <point x="207" y="618.667"/>
      <point x="202.5" y="608.5"/>
      <point x="199.5" y="595.5" type="curve" smooth="yes"/>
      <point x="196.5" y="582.5"/>
      <point x="195" y="565.667"/>
      <point x="195" y="545" type="curve" smooth="yes"/>
      <point x="195" y="256" type="line" smooth="yes"/>
      <point x="195" y="227.333"/>
      <point x="196.833" y="199.333"/>
      <point x="200.5" y="172" type="curve" smooth="yes"/>
      <point x="204.167" y="144.667"/>
      <point x="212" y="120.167"/>
      <point x="224" y="98.5" type="curve" smooth="yes"/>
      <point x="236" y="76.8333"/>
      <point x="253.333" y="59.3333"/>
      <point x="276" y="46" type="curve" smooth="yes"/>
      <point x="298.667" y="32.6667"/>
      <point x="329" y="26"/>
      <point x="367" y="26" type="curve" smooth="yes"/>
      <point x="411" y="26"/>
      <point x="449.833" y="35.5"/>
      <point x="483.5" y="54.5" type="curve" smooth="yes"/>
      <point x="517.168" y="73.5"/>
      <point x="540.334" y="97.6667"/>
      <point x="553" y="127" type="curve" smooth="yes"/>
      <point x="565.667" y="155"/>
      <point x="572" y="205"/>
      <point x="572" y="277" type="curve" smooth="yes"/>
      <point x="572" y="545" type="line" smooth="yes"/>
      <point x="572" y="568.333"/>
      <point x="570.333" y="586.667"/>
      <point x="567" y="600" type="curve" smooth="yes"/>
      <point x="563.667" y="613.333"/>
      <point x="559" y="623.167"/>
      <point x="553" y="629.5" type="curve" smooth="yes"/>
      <point x="547" y="635.833"/>
      <point x="539.667" y="639.833"/>
      <point x="531" y="641.5" type="curve" smooth="yes"/>
      <point x="522.333" y="643.167"/>
      <point x="512.667" y="644"/>
      <point x="502" y="644" type="curve" smooth="yes"/>
    </contour>
  </outline>
</glyph>
<glyph name="uni0056" format="2">
  <advance width="722"/>
  <unicode hex="0056"/>
  <outline>
    <contour>
      <point x="710" y="662" type="line"/>
      <point x="710" y="644" type="line"/>
      <point x="682.667" y="639.333"/>
      <point x="662.167" y="629.333"/>
      <point x="648.5" y="614" type="curve" smooth="yes"/>
      <point x="634.833" y="598.667"/>
      <point x="622.333" y="576.667"/>
      <point x="611" y="548" type="curve" smooth="yes"/>
      <point x="380" y="-15" type="line"/>
      <point x="362" y="-15" type="line"/>
      <point x="114" y="556" type="line" smooth="yes"/>
      <point x="106" y="574"/>
      <point x="98.8333" y="588.5"/>
      <point x="92.5" y="599.5" type="curve" smooth="yes"/>
      <point x="86.1667" y="610.5"/>
      <point x="79.3333" y="619.167"/>
      <point x="72" y="625.5" type="curve" smooth="yes"/>
      <point x="64.6667" y="631.833"/>
      <point x="56.1667" y="636.167"/>
      <point x="46.5" y="638.5" type="curve" smooth="yes"/>
      <point x="36.8333" y="640.833"/>
      <point x="24.3333" y="642.667"/>
      <point x="9" y="644" type="curve"/>
      <point x="9" y="662" type="line"/>
      <point x="279" y="662" type="line"/>
      <point x="279" y="644" type="line"/>
      <point x="248.333" y="641.333"/>
      <point x="228.5" y="636.167"/>
      <point x="219.5" y="628.5" type="curve" smooth="yes"/>
      <point x="210.5" y="620.833"/>
      <point x="206" y="611.333"/>
      <point x="206" y="600" type="curve" smooth="yes"/>
      <point x="206" y="584.667"/>
      <point x="213.667" y="559"/>
      <point x="229" y="523" type="curve" smooth="yes"/>
      <point x="397" y="135" type="line"/>
      <point x="553" y="519" type="line" smooth="yes"/>
      <point x="568.333" y="557"/>
      <point x="576" y="583"/>
      <point x="576" y="597" type="curve" smooth="yes"/>
      <point x="576" y="609.667"/>
      <point x="570.667" y="619"/>
      <point x="560" y="625" type="curve" smooth="yes"/>
      <point x="549.333" y="631"/>
      <point x="531.333" y="637.333"/>
      <point x="506" y="644" type="curve"/>
      <point x="506" y="662" type="line"/>
    </contour>
  </outline>
</glyph>
<glyph name="uni0057" format="2">
  <advance width="953"/>
  <unicode hex="0057"/>
  <outline>
    <contour>
      <point x="812" y="603" type="curve" smooth="yes"/>
      <point x="812" y="637"/>
      <point x="773" y="644"/>
      <point x="738" y="644" type="curve"/>
      <point x="738" y="662" type="line"/>
      <point x="936" y="662" type="line"/>
      <point x="936" y="644" type="line"/>
      <point x="907" y="644"/>
      <point x="893" y="641"/>
      <point x="879" y="624" type="curve" smooth="yes"/>
      <point x="872" y="615"/>
      <point x="864" y="603"/>
      <point x="858" y="586" type="curve" smooth="yes"/>
      <point x="850" y="569"/>
      <point x="842" y="547"/>
      <point x="833" y="519" type="curve" smooth="yes"/>
      <point x="648" y="-15" type="line"/>
      <point x="628" y="-15" type="line"/>
      <point x="478" y="408" type="line"/>
      <point x="328" y="-15" type="line"/>
      <point x="310" y="-15" type="line"/>
      <point x="113" y="535" type="line" smooth="yes"/>
      <point x="104" y="559"/>
      <point x="97" y="578"/>
      <point x="92" y="593" type="curve" smooth="yes"/>
      <point x="77" y="631"/>
      <point x="64" y="644"/>
      <point x="13" y="644" type="curve"/>
      <point x="13" y="662" type="line"/>
      <point x="258" y="662" type="line"/>
      <point x="258" y="644" type="line"/>
      <point x="247" y="644" type="line" smooth="yes"/>
      <point x="217" y="644"/>
      <point x="193" y="630"/>
      <point x="193" y="603" type="curve" smooth="yes"/>
      <point x="193" y="592"/>
      <point x="200" y="566"/>
      <point x="215" y="525" type="curve" smooth="yes"/>
      <point x="345" y="154" type="line"/>
      <point x="455" y="470" type="line"/>
      <point x="420" y="570" type="line"/>
      <point x="402" y="609"/>
      <point x="385" y="644"/>
      <point x="328" y="644" type="curve"/>
      <point x="328" y="662" type="line"/>
      <point x="585" y="662" type="line"/>
      <point x="585" y="644" type="line"/>
      <point x="568" y="644" type="line" smooth="yes"/>
      <point x="531" y="644"/>
      <point x="515" y="629"/>
      <point x="515" y="599" type="curve" smooth="yes"/>
      <point x="515" y="583"/>
      <point x="522" y="555"/>
      <point x="537" y="514" type="curve" smooth="yes"/>
      <point x="664" y="154" type="line"/>
      <point x="790" y="519" type="line"/>
      <point x="805" y="558"/>
      <point x="812" y="586"/>
    </contour>
  </outline>
</glyph>
